<svg width="68" height="88" viewBox="0 0 68 88" fill="none" xmlns="http://www.w3.org/2000/svg">
<rect x="0.75" y="0.75" width="66.5" height="66.5" rx="33.25" fill="#0BD3A0"/>
<rect x="0.75" y="0.75" width="66.5" height="66.5" rx="33.25" stroke="white" stroke-width="1.5"/>
<path d="M36.8 27.7C35.4 27.7 34.784 28.4 32.6 28.4C30.416 28.4 29.8 27.7 28.4 27.7C27 27.7 25.992 28.4 24.9 28.4C24.668 28.4 24.4383 28.377 24.214 28.3321C24.2094 28.3312 24.2048 28.3303 24.2001 28.3293V45.2C24.2001 45.9426 24.4951 46.6548 25.0202 47.1799C25.5453 47.705 26.2575 48 27.0001 48H38.2001C38.9427 48 39.6548 47.705 40.1799 47.1799C40.705 46.6548 41 45.9426 41 45.2L41 41.0001V32.6L41 28.3293C40.7713 28.376 40.5369 28.4 40.3 28.4C39.208 28.4 38.2 27.7 36.8 27.7Z" fill="white"/>
<path d="M32.6 28.4C34.784 28.4 35.4 27.7 36.8 27.7C38.2 27.7 39.208 28.4 40.3 28.4C40.5369 28.4 40.7713 28.376 41 28.3293C41.6674 28.193 42.286 27.8637 42.7748 27.3749C43.4312 26.7185 43.7999 25.8283 43.7999 24.9C43.7999 23.9718 43.4312 23.0815 42.7748 22.4251C42.1184 21.7688 41.2282 21.4 40.3 21.4C39.208 21.4 38.2 22.1 36.8 22.1C35.4 22.1 34.784 20 32.6 20C30.416 20 29.702 22.1 28.4 22.1C27.098 22.1 25.992 21.4 24.9 21.4C23.9718 21.4 23.0816 21.7688 22.4252 22.4251C21.7688 23.0815 21.4001 23.9718 21.4001 24.9C21.4001 25.8283 21.7688 26.7185 22.4252 27.3749C22.9141 27.8638 23.5327 28.1931 24.2001 28.3293C24.2048 28.3303 24.2094 28.3312 24.214 28.3321C24.4383 28.377 24.668 28.4 24.9 28.4C25.992 28.4 27 27.7 28.4 27.7C29.8 27.7 30.416 28.4 32.6 28.4Z" fill="white"/>
<path d="M41 32.6H42.3999C43.5139 32.6 44.5821 33.0425 45.3698 33.8302C46.1574 34.6178 46.5999 35.6861 46.5999 36.8C46.5999 37.914 46.1574 38.9822 45.3698 39.7699C44.5821 40.5576 43.5139 41.0001 42.3999 41.0001H41M41 28.3293L41 32.6V41.0001L41 45.2M29.8 34V42.4001M35.4 34V42.4001M40.3 28.4C39.208 28.4 38.2 27.7 36.8 27.7C35.4 27.7 34.784 28.4 32.6 28.4C30.416 28.4 29.8 27.7 28.4 27.7C27 27.7 25.992 28.4 24.9 28.4C24.668 28.4 24.4383 28.377 24.214 28.3321C23.5413 28.1977 22.9175 27.8672 22.4252 27.3749C21.7688 26.7185 21.4001 25.8283 21.4001 24.9C21.4001 23.9718 21.7688 23.0815 22.4252 22.4251C23.0816 21.7688 23.9718 21.4 24.9 21.4C25.992 21.4 27.098 22.1 28.4 22.1C29.702 22.1 30.416 20 32.6 20C34.784 20 35.4 22.1 36.8 22.1C38.2 22.1 39.208 21.4 40.3 21.4C41.2282 21.4 42.1184 21.7688 42.7748 22.4251C43.4312 23.0815 43.7999 23.9718 43.7999 24.9C43.7999 25.8283 43.4312 26.7185 42.7748 27.3749M24.214 28.3321C24.2094 28.3312 24.2048 28.3303 24.2001 28.3293C23.5327 28.1931 22.9141 27.8638 22.4252 27.3749M42.7748 27.3749C42.1184 28.0313 41.2282 28.4 40.3 28.4M42.7748 27.3749C42.286 27.8637 41.6674 28.193 41 28.3293M40.3 28.4C40.5369 28.4 40.7713 28.376 41 28.3293M24.2001 28.3293V45.2C24.2001 45.9426 24.4951 46.6548 25.0202 47.1799C25.5453 47.705 26.2575 48 27.0001 48H38.2001C38.9427 48 39.6548 47.705 40.1799 47.1799C40.705 46.6548 41 45.9426 41 45.2M41 45.2V28.3293" stroke="black" stroke-width="3" stroke-linecap="round" stroke-linejoin="round"/>
<path d="M35.4453 74.9766L36.75 73.6484L37.7969 74.6875L36.5078 76.0078C37.4609 77.1953 37.9375 78.526 37.9375 80C37.9375 81.7083 37.3203 83.1719 36.0859 84.3906C34.8516 85.6094 33.3698 86.2188 31.6406 86.2188C30.1979 86.2188 28.8672 85.7578 27.6484 84.8359L26.3516 86.125L25.3516 85.1016L26.6094 83.8047C25.7656 82.6797 25.3438 81.4167 25.3438 80.0156C25.3438 78.2135 25.9818 76.7057 27.2578 75.4922C28.5078 74.3047 29.9844 73.7109 31.6875 73.7109C33.0417 73.7109 34.2943 74.1328 35.4453 74.9766ZM34.1719 76.1797C33.4167 75.6745 32.5859 75.4219 31.6797 75.4219C30.3932 75.4219 29.3203 75.862 28.4609 76.7422C27.6068 77.6276 27.1797 78.7266 27.1797 80.0391C27.1797 80.8984 27.4323 81.737 27.9375 82.5547L34.1719 76.1797ZM35.2188 77.2031L28.9453 83.6016C29.8255 84.2109 30.7318 84.5156 31.6641 84.5156C32.8932 84.5156 33.9401 84.0755 34.8047 83.1953C35.6693 82.3151 36.1016 81.2422 36.1016 79.9766C36.1016 78.9818 35.8073 78.0573 35.2188 77.2031ZM41.6484 72.8047V86H39.8906V72.8047H41.6484Z" fill="white"/>
</svg>
