<svg width="68" height="88" viewBox="0 0 68 88" fill="none" xmlns="http://www.w3.org/2000/svg">
<rect x="0.75" y="0.75" width="66.5" height="66.5" rx="33.25" fill="#FFE12F"/>
<rect x="0.75" y="0.75" width="66.5" height="66.5" rx="33.25" stroke="white" stroke-width="1.5"/>
<path d="M38.7604 29.94C39.7282 30.7675 40.949 31.2405 42.2216 31.281C43.4942 31.3215 44.7426 30.9271 45.761 30.1629C46.7795 29.3986 47.507 28.3102 47.8238 27.0769C48.1405 25.8437 48.0275 24.5393 47.5035 23.3789C46.9794 22.2185 46.0756 21.2713 44.9409 20.6936C43.8063 20.1158 42.5087 19.9419 41.262 20.2006C40.0153 20.4593 38.8939 21.1352 38.0829 22.1167C37.2718 23.0982 36.8195 24.3269 36.8004 25.6M32.6004 36.8V48V36.8ZM27.0004 48H38.2004H27.0004Z" fill="white"/>
<path d="M38.7604 29.94C39.7282 30.7675 40.949 31.2405 42.2216 31.281C43.4942 31.3215 44.7426 30.9271 45.761 30.1629C46.7795 29.3986 47.507 28.3102 47.8238 27.0769C48.1405 25.8437 48.0276 24.5393 47.5035 23.3789C46.9794 22.2185 46.0756 21.2713 44.9409 20.6936C43.8063 20.1158 42.5087 19.9419 41.262 20.2006C40.0153 20.4593 38.8939 21.1352 38.0829 22.1167C37.2718 23.0982 36.8195 24.3269 36.8004 25.6M32.6004 36.8V48M27.0004 48H38.2004" stroke="black" stroke-width="2.40005" stroke-linecap="round" stroke-linejoin="round"/>
<path d="M42.4003 25.6L32.6003 36.8L22.8003 25.6H29.8003H42.4003Z" fill="white"/>
<path d="M29.8003 25.6L26.4403 21.12C26.0203 20.56 25.0403 20 24.2003 20H20.0003M22.8003 25.6H42.4003L32.6003 36.8L22.8003 25.6M29.8003 25.6H22.8003" stroke="black" stroke-width="2.40005" stroke-linecap="round" stroke-linejoin="round"/>
<path d="M11.3594 74.5859V76.7422C10.3073 75.862 9.21875 75.4219 8.09375 75.4219C6.85417 75.4219 5.8099 75.8672 4.96094 76.7578C4.10677 77.6432 3.67969 78.7266 3.67969 80.0078C3.67969 81.2734 4.10677 82.3411 4.96094 83.2109C5.8151 84.0807 6.86198 84.5156 8.10156 84.5156C8.74219 84.5156 9.28646 84.4115 9.73438 84.2031C9.98438 84.099 10.2422 83.9583 10.5078 83.7812C10.7786 83.6042 11.0625 83.3906 11.3594 83.1406V85.3359C10.3177 85.9245 9.22396 86.2188 8.07812 86.2188C6.35417 86.2188 4.88281 85.6172 3.66406 84.4141C2.45052 83.2005 1.84375 81.737 1.84375 80.0234C1.84375 78.487 2.35156 77.1172 3.36719 75.9141C4.61719 74.4401 6.23438 73.7031 8.21875 73.7031C9.30208 73.7031 10.349 73.9974 11.3594 74.5859ZM12.9688 82.1406C12.9688 81.0417 13.362 80.1068 14.1484 79.3359C14.9349 78.5651 15.8932 78.1797 17.0234 78.1797C18.1589 78.1797 19.1224 78.5677 19.9141 79.3438C20.6953 80.1198 21.0859 81.0729 21.0859 82.2031C21.0859 83.3438 20.6927 84.2995 19.9062 85.0703C19.1146 85.8359 18.1432 86.2188 16.9922 86.2188C15.8516 86.2188 14.8958 85.8281 14.125 85.0469C13.3542 84.276 12.9688 83.3073 12.9688 82.1406ZM14.7656 82.1719C14.7656 82.9323 14.9688 83.5339 15.375 83.9766C15.7917 84.4245 16.3411 84.6484 17.0234 84.6484C17.7109 84.6484 18.2604 84.4271 18.6719 83.9844C19.0833 83.5417 19.2891 82.9505 19.2891 82.2109C19.2891 81.4714 19.0833 80.8802 18.6719 80.4375C18.2552 79.9896 17.7057 79.7656 17.0234 79.7656C16.3516 79.7656 15.8073 79.9896 15.3906 80.4375C14.974 80.8854 14.7656 81.4635 14.7656 82.1719ZM28.875 78.7188V81.0547C28.474 80.5651 28.1146 80.2292 27.7969 80.0469C27.4844 79.8594 27.1172 79.7656 26.6953 79.7656C26.0339 79.7656 25.4844 79.9974 25.0469 80.4609C24.6094 80.9245 24.3906 81.5052 24.3906 82.2031C24.3906 82.9167 24.6016 83.5026 25.0234 83.9609C25.4505 84.4193 25.9948 84.6484 26.6562 84.6484C27.0781 84.6484 27.4505 84.5573 27.7734 84.375C28.0859 84.1979 28.4531 83.8542 28.875 83.3438V85.6641C28.1615 86.0339 27.4479 86.2188 26.7344 86.2188C25.5573 86.2188 24.5729 85.8385 23.7812 85.0781C22.9896 84.3125 22.5938 83.362 22.5938 82.2266C22.5938 81.0911 22.9948 80.1328 23.7969 79.3516C24.599 78.5703 25.5833 78.1797 26.75 78.1797C27.5 78.1797 28.2083 78.3594 28.875 78.7188ZM32.7578 72.8047V80.8516L35.2344 78.3906H37.5938L34.2891 81.5859L37.8359 86H35.5547L33.0391 82.7891L32.7578 83.0703V86H31V72.8047H32.7578ZM40.7812 80.0312V86H39.0234V80.0312H38.2734V78.3906H39.0234V75.6016H40.7812V78.3906H42.1484V80.0312H40.7812ZM49.0938 78.3906H50.8594V86H49.0938V85.2031C48.3698 85.8802 47.5911 86.2188 46.7578 86.2188C45.7057 86.2188 44.8359 85.8385 44.1484 85.0781C43.4661 84.3021 43.125 83.3333 43.125 82.1719C43.125 81.0312 43.4661 80.0807 44.1484 79.3203C44.8307 78.5599 45.6849 78.1797 46.7109 78.1797C47.5964 78.1797 48.3906 78.5443 49.0938 79.2734V78.3906ZM44.9219 82.1719C44.9219 82.901 45.1172 83.4948 45.5078 83.9531C45.9089 84.4167 46.4141 84.6484 47.0234 84.6484C47.6745 84.6484 48.2005 84.4245 48.6016 83.9766C49.0026 83.513 49.2031 82.9245 49.2031 82.2109C49.2031 81.4974 49.0026 80.9089 48.6016 80.4453C48.2005 79.9922 47.6797 79.7656 47.0391 79.7656C46.4349 79.7656 45.9297 79.9948 45.5234 80.4531C45.1224 80.9167 44.9219 81.4896 44.9219 82.1719ZM54.8359 78.3906V86H53.0781V78.3906H54.8359ZM52.8125 75.2266C52.8125 74.9193 52.9245 74.6536 53.1484 74.4297C53.3724 74.2057 53.6406 74.0938 53.9531 74.0938C54.2708 74.0938 54.5417 74.2057 54.7656 74.4297C54.9896 74.6484 55.1016 74.9167 55.1016 75.2344C55.1016 75.5521 54.9896 75.8229 54.7656 76.0469C54.5469 76.2708 54.2786 76.3828 53.9609 76.3828C53.6432 76.3828 53.3724 76.2708 53.1484 76.0469C52.9245 75.8229 52.8125 75.5495 52.8125 75.2266ZM58.8203 72.8047V86H57.0625V72.8047H58.8203ZM65.4688 79.6875L64.0156 80.4609C63.7865 79.9922 63.5026 79.7578 63.1641 79.7578C63.0026 79.7578 62.8646 79.8125 62.75 79.9219C62.6354 80.026 62.5781 80.1615 62.5781 80.3281C62.5781 80.6198 62.9167 80.9089 63.5938 81.1953C64.526 81.5964 65.1536 81.9661 65.4766 82.3047C65.7995 82.6432 65.9609 83.099 65.9609 83.6719C65.9609 84.4062 65.6901 85.0208 65.1484 85.5156C64.6224 85.9844 63.987 86.2188 63.2422 86.2188C61.9661 86.2188 61.0625 85.5964 60.5312 84.3516L62.0312 83.6562C62.2396 84.0208 62.3984 84.2526 62.5078 84.3516C62.7214 84.5495 62.9766 84.6484 63.2734 84.6484C63.8672 84.6484 64.1641 84.3776 64.1641 83.8359C64.1641 83.5234 63.9349 83.2318 63.4766 82.9609C63.2995 82.8724 63.1224 82.7865 62.9453 82.7031C62.7682 82.6198 62.5885 82.5339 62.4062 82.4453C61.8958 82.1953 61.5365 81.9453 61.3281 81.6953C61.0625 81.3776 60.9297 80.9688 60.9297 80.4688C60.9297 79.8073 61.1562 79.2604 61.6094 78.8281C62.0729 78.3958 62.6354 78.1797 63.2969 78.1797C64.2708 78.1797 64.9948 78.6823 65.4688 79.6875Z" fill="white"/>
</svg>
