<svg width="68" height="88" viewBox="0 0 68 88" fill="none" xmlns="http://www.w3.org/2000/svg">
<rect x="0.75" y="0.75" width="66.5" height="66.5" rx="33.25" fill="#FF4320"/>
<rect x="0.75" y="0.75" width="66.5" height="66.5" rx="33.25" stroke="white" stroke-width="1.5"/>
<path d="M53 34C53 44.4937 44.4937 53 34 53C23.5063 53 15 44.4937 15 34C15 23.5063 23.5063 15 34 15C44.4937 15 53 23.5063 53 34Z" fill="white" fill-opacity="0.8"/>
<path d="M45.4 34.0002C45.4 37.0236 44.1989 39.9233 42.061 42.0612C39.9231 44.1991 37.0234 45.4002 34 45.4002C30.9765 45.4002 28.0769 44.1991 25.939 42.0612C23.801 39.9233 22.6 37.0236 22.6 34.0002C22.6 30.9767 23.801 28.0771 25.939 25.9391C28.0769 23.8012 30.9765 22.6002 34 22.6002C37.0234 22.6002 39.9231 23.8012 42.061 25.9391C44.1989 28.0771 45.4 30.9767 45.4 34.0002Z" fill="white" fill-opacity="0.8"/>
<path d="M53 34C53 44.4937 44.4937 53 34 53C23.5063 53 15 44.4937 15 34C15 23.5063 23.5063 15 34 15C44.4937 15 53 23.5063 53 34Z" fill="white" fill-opacity="0.1" stroke="black" stroke-width="3"/>
<path d="M45.4 34.0002C45.4 37.0236 44.1989 39.9233 42.061 42.0612C39.9231 44.1991 37.0234 45.4002 34 45.4002C30.9765 45.4002 28.0769 44.1991 25.939 42.0612C23.801 39.9233 22.6 37.0236 22.6 34.0002C22.6 30.9767 23.801 28.0771 25.939 25.9391C28.0769 23.8012 30.9765 22.6002 34 22.6002C37.0234 22.6002 39.9231 23.8012 42.061 25.9391C44.1989 28.0771 45.4 30.9767 45.4 34.0002Z" fill="white" fill-opacity="0.02" stroke="black" stroke-width="3"/>
<path d="M36.0004 34C36.0004 34.5304 35.7897 35.0391 35.4146 35.4142C35.0395 35.7893 34.5308 36 34.0004 36C33.4699 36 32.9612 35.7893 32.5862 35.4142C32.2111 35.0391 32.0004 34.5304 32.0004 34C32.0004 33.4696 32.2111 32.9609 32.5862 32.5858C32.9612 32.2107 33.4699 32 34.0004 32C34.5308 32 35.0395 32.2107 35.4146 32.5858C35.7897 32.9609 36.0004 33.4696 36.0004 34Z" fill="white" fill-opacity="0.8" stroke="black" stroke-width="3"/>
<path d="M18.9453 86V73.9375H21.4766C22.6901 73.9375 23.6484 74.0573 24.3516 74.2969C25.1068 74.5312 25.7917 74.9297 26.4062 75.4922C27.651 76.6276 28.2734 78.1198 28.2734 79.9688C28.2734 81.8229 27.625 83.3229 26.3281 84.4688C25.6771 85.0417 24.9948 85.4401 24.2812 85.6641C23.6146 85.888 22.6693 86 21.4453 86H18.9453ZM20.7656 84.2891H21.5859C22.4036 84.2891 23.0833 84.2031 23.625 84.0312C24.1667 83.849 24.6562 83.5599 25.0938 83.1641C25.9896 82.3464 26.4375 81.2812 26.4375 79.9688C26.4375 78.6458 25.9948 77.5729 25.1094 76.75C24.3125 76.0156 23.138 75.6484 21.5859 75.6484H20.7656V84.2891ZM35.8438 78.3906H37.6094V86H35.8438V85.2031C35.1198 85.8802 34.3411 86.2188 33.5078 86.2188C32.4557 86.2188 31.5859 85.8385 30.8984 85.0781C30.2161 84.3021 29.875 83.3333 29.875 82.1719C29.875 81.0312 30.2161 80.0807 30.8984 79.3203C31.5807 78.5599 32.4349 78.1797 33.4609 78.1797C34.3464 78.1797 35.1406 78.5443 35.8438 79.2734V78.3906ZM31.6719 82.1719C31.6719 82.901 31.8672 83.4948 32.2578 83.9531C32.6589 84.4167 33.1641 84.6484 33.7734 84.6484C34.4245 84.6484 34.9505 84.4245 35.3516 83.9766C35.7526 83.513 35.9531 82.9245 35.9531 82.2109C35.9531 81.4974 35.7526 80.9089 35.3516 80.4453C34.9505 79.9922 34.4297 79.7656 33.7891 79.7656C33.1849 79.7656 32.6797 79.9948 32.2734 80.4531C31.8724 80.9167 31.6719 81.4896 31.6719 82.1719ZM39.8281 78.3906H41.5859V79.0703C41.9089 78.7318 42.1953 78.5 42.4453 78.375C42.7005 78.2448 43.0026 78.1797 43.3516 78.1797C43.8151 78.1797 44.2995 78.3307 44.8047 78.6328L44 80.2422C43.6667 80.0026 43.3411 79.8828 43.0234 79.8828C42.0651 79.8828 41.5859 80.6068 41.5859 82.0547V86H39.8281V78.3906ZM48.2031 80.0312V86H46.4453V80.0312H45.6953V78.3906H46.4453V75.6016H48.2031V78.3906H49.5703V80.0312H48.2031Z" fill="white"/>
</svg>
