<svg width="68" height="88" viewBox="0 0 68 88" fill="none" xmlns="http://www.w3.org/2000/svg">
<rect x="0.75" y="0.75" width="66.5" height="66.5" rx="33.25" fill="#FF9401"/>
<rect x="0.75" y="0.75" width="66.5" height="66.5" rx="33.25" stroke="white" stroke-width="1.5"/>
<rect x="43.4286" y="34.6665" width="8.57143" height="14" rx="4" fill="black"/>
<rect x="16" y="34.6665" width="8.57143" height="14" rx="4" fill="black"/>
<path fill-rule="evenodd" clip-rule="evenodd" d="M34 15.3335C43.9411 15.3335 52 24.2878 52 35.3335C52 38.7045 51.2484 41.8802 49.9229 44.6665H46.5449C48.0875 42.0209 49 38.8327 49 35.3335C49 25.6395 41.9948 18.3335 34 18.3335C26.0052 18.3335 19 25.6395 19 35.3335C19 38.8327 19.9125 42.0209 21.4551 44.6665H18.0771C16.7516 41.8802 16 38.7045 16 35.3335C16 24.2878 24.0589 15.3335 34 15.3335Z" fill="black"/>
<path d="M26.4453 86V73.9375H28.9766C30.1901 73.9375 31.1484 74.0573 31.8516 74.2969C32.6068 74.5312 33.2917 74.9297 33.9062 75.4922C35.151 76.6276 35.7734 78.1198 35.7734 79.9688C35.7734 81.8229 35.125 83.3229 33.8281 84.4688C33.1771 85.0417 32.4948 85.4401 31.7812 85.6641C31.1146 85.888 30.1693 86 28.9453 86H26.4453ZM28.2656 84.2891H29.0859C29.9036 84.2891 30.5833 84.2031 31.125 84.0312C31.6667 83.849 32.1562 83.5599 32.5938 83.1641C33.4896 82.3464 33.9375 81.2812 33.9375 79.9688C33.9375 78.6458 33.4948 77.5729 32.6094 76.75C31.8125 76.0156 30.638 75.6484 29.0859 75.6484H28.2656V84.2891ZM41.3047 73.9375V81.7422C41.3047 82.6745 41.2396 83.3698 41.1094 83.8281C40.9792 84.349 40.7578 84.7891 40.4453 85.1484C39.8359 85.862 39.0286 86.2188 38.0234 86.2188C37.263 86.2188 36.5521 86.0208 35.8906 85.625L36.7812 84.0703C37.224 84.3672 37.638 84.5156 38.0234 84.5156C38.5651 84.5156 38.9401 84.3099 39.1484 83.8984C39.3672 83.487 39.4766 82.7682 39.4766 81.7422V73.9375H41.3047Z" fill="white"/>
</svg>
