<svg width="68" height="88" viewBox="0 0 68 88" fill="none" xmlns="http://www.w3.org/2000/svg">
<rect x="0.75" y="0.75" width="66.5" height="66.5" rx="33.25" fill="#FF9401"/>
<rect x="0.75" y="0.75" width="66.5" height="66.5" rx="33.25" stroke="white" stroke-width="1.5"/>
<path d="M33.9998 16.9843V27.1226C37.0682 27.1299 40.0954 26.753 43.6286 26.0038C43.0014 23.4819 42.1237 20.9381 40.9998 18.3152C38.8336 17.4563 36.4718 16.9843 33.9998 16.9843Z" fill="white"/>
<path d="M33.9998 16.9843C31.5278 16.9843 29.166 17.4563 26.9998 18.3152C26.0929 21.1129 25.3205 23.6636 24.7086 26.0577C28.1521 26.7641 31.0944 27.1156 33.9998 27.1226V16.9843Z" fill="white"/>
<path d="M26.9998 18.3152C23.6975 19.6246 20.8495 21.8329 18.7579 24.6382C20.9273 25.2116 22.888 25.6842 24.7086 26.0577C25.3205 23.6636 26.0929 21.1129 26.9998 18.3152Z" fill="white"/>
<path d="M18.7579 24.6382C16.9801 27.0226 15.7487 29.8382 15.2489 32.8998C18.1906 33.7427 20.7923 34.4451 23.1803 34.9977C23.3643 32.153 23.8943 29.2441 24.7086 26.0577C22.888 25.6842 20.9273 25.2116 18.7579 24.6382Z" fill="white"/>
<path d="M33.9998 36.4703V27.1226C31.0944 27.1156 28.1521 26.7641 24.7086 26.0577C23.8943 29.2441 23.3643 32.153 23.1803 34.9977C27.1896 35.9254 30.5967 36.4309 33.9998 36.4703Z" fill="white"/>
<path d="M23.8848 44.315C27.4596 45.3596 30.7223 45.8917 33.9998 45.8958V36.4703C30.5967 36.4309 27.1896 35.9254 23.1803 34.9977C22.9805 38.0883 23.189 41.103 23.8848 44.315Z" fill="white"/>
<path d="M15.2489 32.8998C15.085 33.9037 14.9998 34.934 14.9998 35.9843C14.9998 37.8506 15.2689 39.6541 15.7703 41.358C18.705 42.5933 21.372 43.5808 23.8848 44.315C23.189 41.103 22.9805 38.0883 23.1803 34.9977C20.7923 34.4451 18.1906 33.7427 15.2489 32.8998Z" fill="white"/>
<path d="M43.7864 44.4296C44.4814 41.2084 44.8161 38.1445 44.7975 35.1454C40.8035 36.0827 37.4037 36.5097 33.9998 36.4703V45.8958C37.1514 45.8998 40.3168 45.4156 43.7864 44.4296Z" fill="white"/>
<path d="M43.6286 26.0038C40.0954 26.753 37.0682 27.1299 33.9998 27.1226V36.4703C37.4037 36.5097 40.8035 36.0827 44.7975 35.1454C44.7784 32.0633 44.3862 29.0496 43.6286 26.0038Z" fill="white"/>
<path d="M52.7507 32.8998C52.251 29.8382 51.0195 27.0226 49.2418 24.6382C47.2069 25.1816 45.3572 25.6372 43.6286 26.0038C44.3862 29.0496 44.7784 32.0633 44.7975 35.1454C47.192 34.5835 49.8001 33.8381 52.7507 32.8998Z" fill="white"/>
<path d="M52.9998 35.9843C52.9998 34.934 52.9146 33.9037 52.7507 32.8998C49.8001 33.8381 47.192 34.5835 44.7975 35.1454C44.8161 38.1445 44.4814 41.2084 43.7864 44.4296C46.3886 43.69 49.1621 42.6681 52.2293 41.358C52.7308 39.6541 52.9998 37.8506 52.9998 35.9843Z" fill="white"/>
<path d="M40.9998 53.6533C46.3937 51.5147 50.5754 46.9777 52.2293 41.358C49.1621 42.6681 46.3886 43.69 43.7864 44.4296C43.1558 47.3517 42.2288 50.4032 40.9998 53.6533Z" fill="white"/>
<path d="M33.9998 54.9843C36.4718 54.9843 38.8336 54.5122 40.9998 53.6533C42.2288 50.4032 43.1558 47.3517 43.7864 44.4296C40.3168 45.4156 37.1514 45.8998 33.9998 45.8958V54.9843Z" fill="white"/>
<path d="M26.9998 53.6533C29.166 54.5122 31.5278 54.9843 33.9998 54.9843V45.8958C30.7223 45.8917 27.4596 45.3596 23.8848 44.315C24.5103 47.2022 25.5295 50.2488 26.9998 53.6533Z" fill="white"/>
<path d="M15.7703 41.358C17.4242 46.9777 21.6059 51.5147 26.9998 53.6533C25.5295 50.2488 24.5103 47.2022 23.8848 44.315C21.372 43.5808 18.705 42.5933 15.7703 41.358Z" fill="white"/>
<path d="M49.2418 24.6382C47.1501 21.8329 44.3021 19.6246 40.9998 18.3152C42.1237 20.9381 43.0014 23.4819 43.6286 26.0038C45.3572 25.6372 47.2069 25.1816 49.2418 24.6382Z" fill="white"/>
<path d="M33.9998 54.9843C36.4718 54.9843 38.8336 54.5122 40.9998 53.6533M33.9998 54.9843C31.5278 54.9843 29.166 54.5122 26.9998 53.6533M33.9998 54.9843V45.8958M33.9998 16.9843C36.4718 16.9843 38.8336 17.4563 40.9998 18.3152M33.9998 16.9843C31.5278 16.9843 29.166 17.4563 26.9998 18.3152M33.9998 16.9843V11.0157M33.9998 16.9843V27.1226M40.9998 18.3152C44.3021 19.6246 47.1501 21.8329 49.2418 24.6382M40.9998 18.3152C42.1237 20.9381 43.0014 23.4819 43.6286 26.0038M49.2418 24.6382C51.0195 27.0226 52.251 29.8382 52.7507 32.8998C52.9146 33.9037 52.9998 34.934 52.9998 35.9843C52.9998 37.8506 52.7308 39.6541 52.2293 41.358C50.5754 46.9777 46.3937 51.5147 40.9998 53.6533M40.9998 53.6533C42.2288 50.4032 43.1558 47.3517 43.7864 44.4296M26.9998 53.6533C21.6059 51.5147 17.4242 46.9777 15.7703 41.358C15.2689 39.6541 14.9998 37.8506 14.9998 35.9843C14.9998 34.934 15.085 33.9037 15.2489 32.8998C15.7487 29.8382 16.9801 27.0226 18.7579 24.6382C20.8495 21.8329 23.6975 19.6246 26.9998 18.3152M26.9998 18.3152C26.0929 21.1129 25.3205 23.6636 24.7086 26.0577M26.9998 53.6533C25.5295 50.2488 24.5103 47.2022 23.8848 44.315M18.7579 24.6382C20.9273 25.2116 22.888 25.6842 24.7086 26.0577M49.2418 24.6382C47.2069 25.1816 45.3572 25.6372 43.6286 26.0038M15.2489 32.8998C18.1906 33.7427 20.7923 34.4451 23.1803 34.9977M52.7507 32.8998C49.8001 33.8381 47.192 34.5835 44.7975 35.1454M15.7703 41.358C18.705 42.5933 21.372 43.5808 23.8848 44.315M52.2293 41.358C49.1621 42.6681 46.3886 43.69 43.7864 44.4296M33.9998 27.1226C37.0682 27.1299 40.0954 26.753 43.6286 26.0038M33.9998 27.1226C31.0944 27.1156 28.1521 26.7641 24.7086 26.0577M33.9998 27.1226V36.4703M43.6286 26.0038C44.3862 29.0496 44.7784 32.0633 44.7975 35.1454M24.7086 26.0577C23.8943 29.2441 23.3643 32.153 23.1803 34.9977M23.1803 34.9977C27.1896 35.9254 30.5967 36.4309 33.9998 36.4703M23.1803 34.9977C22.9805 38.0883 23.189 41.103 23.8848 44.315M33.9998 36.4703V45.8958M33.9998 36.4703C37.4037 36.5097 40.8035 36.0827 44.7975 35.1454M23.8848 44.315C27.4596 45.3596 30.7223 45.8917 33.9998 45.8958M33.9998 45.8958C37.1514 45.8998 40.3168 45.4156 43.7864 44.4296M43.7864 44.4296C44.4814 41.2084 44.8161 38.1445 44.7975 35.1454" stroke="black" stroke-width="3"/>
<path d="M47 10L47.6735 12.0729H49.8532L48.0898 13.3541L48.7634 15.4271L47 14.1459L45.2366 15.4271L45.9102 13.3541L44.1468 12.0729H46.3265L47 10Z" stroke="white" stroke-width="2" stroke-linejoin="round"/>
<path d="M15 50L15.6735 52.0729H17.8532L16.0898 53.3541L16.7634 55.4271L15 54.1459L13.2366 55.4271L13.9102 53.3541L12.1468 52.0729H14.3265L15 50Z" stroke="white" stroke-width="2" stroke-linejoin="round"/>
<path d="M22.4688 75.6484H18.2656V78.5469H22.3203V80.2578H18.2656V86H16.4453V73.9375H22.4688V75.6484ZM26.0078 72.8047V86H24.25V72.8047H26.0078ZM27.875 82.1406C27.875 81.0417 28.2682 80.1068 29.0547 79.3359C29.8411 78.5651 30.7995 78.1797 31.9297 78.1797C33.0651 78.1797 34.0286 78.5677 34.8203 79.3438C35.6016 80.1198 35.9922 81.0729 35.9922 82.2031C35.9922 83.3438 35.599 84.2995 34.8125 85.0703C34.0208 85.8359 33.0495 86.2188 31.8984 86.2188C30.7578 86.2188 29.8021 85.8281 29.0312 85.0469C28.2604 84.276 27.875 83.3073 27.875 82.1406ZM29.6719 82.1719C29.6719 82.9323 29.875 83.5339 30.2812 83.9766C30.6979 84.4245 31.2474 84.6484 31.9297 84.6484C32.6172 84.6484 33.1667 84.4271 33.5781 83.9844C33.9896 83.5417 34.1953 82.9505 34.1953 82.2109C34.1953 81.4714 33.9896 80.8802 33.5781 80.4375C33.1615 79.9896 32.612 79.7656 31.9297 79.7656C31.2578 79.7656 30.7135 79.9896 30.2969 80.4375C29.8802 80.8854 29.6719 81.4635 29.6719 82.1719ZM37.5 82.1406C37.5 81.0417 37.8932 80.1068 38.6797 79.3359C39.4661 78.5651 40.4245 78.1797 41.5547 78.1797C42.6901 78.1797 43.6536 78.5677 44.4453 79.3438C45.2266 80.1198 45.6172 81.0729 45.6172 82.2031C45.6172 83.3438 45.224 84.2995 44.4375 85.0703C43.6458 85.8359 42.6745 86.2188 41.5234 86.2188C40.3828 86.2188 39.4271 85.8281 38.6562 85.0469C37.8854 84.276 37.5 83.3073 37.5 82.1406ZM39.2969 82.1719C39.2969 82.9323 39.5 83.5339 39.9062 83.9766C40.3229 84.4245 40.8724 84.6484 41.5547 84.6484C42.2422 84.6484 42.7917 84.4271 43.2031 83.9844C43.6146 83.5417 43.8203 82.9505 43.8203 82.2109C43.8203 81.4714 43.6146 80.8802 43.2031 80.4375C42.7865 79.9896 42.237 79.7656 41.5547 79.7656C40.8828 79.7656 40.3385 79.9896 39.9219 80.4375C39.5052 80.8854 39.2969 81.4635 39.2969 82.1719ZM47.4844 78.3906H49.2422V79.0703C49.5651 78.7318 49.8516 78.5 50.1016 78.375C50.3568 78.2448 50.6589 78.1797 51.0078 78.1797C51.4714 78.1797 51.9557 78.3307 52.4609 78.6328L51.6562 80.2422C51.3229 80.0026 50.9974 79.8828 50.6797 79.8828C49.7214 79.8828 49.2422 80.6068 49.2422 82.0547V86H47.4844V78.3906Z" fill="white"/>
</svg>
