<svg width="68" height="88" viewBox="0 0 68 88" fill="none" xmlns="http://www.w3.org/2000/svg">
<rect x="0.75" y="0.75" width="66.5" height="66.5" rx="33.25" fill="#0BD3A0"/>
<rect x="0.75" y="0.75" width="66.5" height="66.5" rx="33.25" stroke="white" stroke-width="1.5"/>
<path d="M44.8822 27.728L40.3217 21.4938L22.6581 36.28L25.7552 40.4542L44.8822 27.728Z" fill="white"/>
<path d="M22.6581 36.28L19.8834 38.6027L20.4882 39.4555L22.0562 41.6661L22.6581 42.5148L25.7552 40.4542L22.6581 36.28Z" fill="white"/>
<path d="M20.4882 39.4555L18.0673 41.6661L18.6068 42.4261L19.1463 43.186L22.0562 41.6661L20.4882 39.4555Z" fill="white"/>
<path d="M53 21.4938C53 17.9074 50.1619 15 46.6609 15C45.7106 15 44.8091 15.2142 44 15.5981L51.4906 25.7001C52.4319 24.5669 53 23.0983 53 21.4938Z" fill="white"/>
<path d="M42.4797 16.6127C42.1009 16.9535 41.7621 17.3398 41.4715 17.7633L45.0777 22.7066L46.8809 25.1783L48.684 27.6499C49.1457 27.4907 49.5837 27.2786 49.991 27.0205C50.556 26.6625 51.062 26.2161 51.4906 25.7001L44 15.5981C43.4452 15.8613 42.9337 16.2043 42.4797 16.6127Z" fill="white"/>
<path d="M44.8822 27.728C45.4466 27.8967 46.0433 27.9877 46.6609 27.9877C47.3683 27.9877 48.0486 27.8689 48.684 27.6499L46.8809 25.1783L45.0777 22.7066L41.4715 17.7633C40.747 18.8189 40.3217 20.1055 40.3217 21.4938L44.8822 27.728Z" fill="white"/>
<path d="M51.4906 25.7001C51.062 26.2161 50.556 26.6625 49.991 27.0205C49.5837 27.2786 49.1457 27.4907 48.684 27.6499C48.0486 27.8689 47.3683 27.9877 46.6609 27.9877C46.0433 27.9877 45.4466 27.8967 44.8822 27.728M44.8822 27.728L40.3217 21.4938M20.4882 39.4555L22.0562 41.6661L22.6581 42.5148L25.7552 40.4542L44.8822 27.728M51.4906 25.7001C52.4319 24.5669 53 23.0983 53 21.4938C53 17.9074 50.1619 15 46.6609 15C45.7106 15 44.8091 15.2142 44 15.5981C43.4451 15.8613 42.9337 16.2043 42.4797 16.6127C42.1009 16.9535 41.7621 17.3398 41.4715 17.7633C40.747 18.8189 40.3217 20.1055 40.3217 21.4938M20.4882 39.4555L19.8834 38.6027L22.6581 36.28L40.3217 21.4938M41.4715 17.7633L45.0777 22.7066L46.8809 25.1783L48.684 27.6499M22.6581 36.28L25.7552 40.4542M20.4882 39.4555L18.0673 41.6661L18.6068 42.4261M22.0562 41.6661L19.1463 43.186L18.6068 42.4261M18.6068 42.4261C18.6068 42.4261 12.5677 48.3416 16.1183 51.4022C19.669 54.4627 34.5962 44.4938 39.9913 45.0465C45.3863 45.5992 42.4797 53 42.4797 53M44 15.5981L51.4906 25.7001" stroke="black" stroke-width="2" stroke-linecap="round" stroke-linejoin="round"/>
<path d="M6.26562 78.75L10.9609 73.9375H13.3906L7.9375 79.3984L13.4219 86H10.9844L6.64062 80.6328L6.26562 81.0078V86H4.44531V73.9375H6.26562V78.75ZM19.7969 78.3906H21.5625V86H19.7969V85.2031C19.0729 85.8802 18.2943 86.2188 17.4609 86.2188C16.4089 86.2188 15.5391 85.8385 14.8516 85.0781C14.1693 84.3021 13.8281 83.3333 13.8281 82.1719C13.8281 81.0312 14.1693 80.0807 14.8516 79.3203C15.5339 78.5599 16.388 78.1797 17.4141 78.1797C18.2995 78.1797 19.0938 78.5443 19.7969 79.2734V78.3906ZM15.625 82.1719C15.625 82.901 15.8203 83.4948 16.2109 83.9531C16.612 84.4167 17.1172 84.6484 17.7266 84.6484C18.3776 84.6484 18.9036 84.4245 19.3047 83.9766C19.7057 83.513 19.9062 82.9245 19.9062 82.2109C19.9062 81.4974 19.7057 80.9089 19.3047 80.4453C18.9036 79.9922 18.3828 79.7656 17.7422 79.7656C17.138 79.7656 16.6328 79.9948 16.2266 80.4531C15.8255 80.9167 15.625 81.4896 15.625 82.1719ZM23.7812 78.3906H25.5391V79.0703C25.862 78.7318 26.1484 78.5 26.3984 78.375C26.6536 78.2448 26.9557 78.1797 27.3047 78.1797C27.7682 78.1797 28.2526 78.3307 28.7578 78.6328L27.9531 80.2422C27.6198 80.0026 27.2943 79.8828 26.9766 79.8828C26.0182 79.8828 25.5391 80.6068 25.5391 82.0547V86H23.7812V78.3906ZM35.2656 78.3906H37.0312V86H35.2656V85.2031C34.5417 85.8802 33.763 86.2188 32.9297 86.2188C31.8776 86.2188 31.0078 85.8385 30.3203 85.0781C29.638 84.3021 29.2969 83.3333 29.2969 82.1719C29.2969 81.0312 29.638 80.0807 30.3203 79.3203C31.0026 78.5599 31.8568 78.1797 32.8828 78.1797C33.7682 78.1797 34.5625 78.5443 35.2656 79.2734V78.3906ZM31.0938 82.1719C31.0938 82.901 31.2891 83.4948 31.6797 83.9531C32.0807 84.4167 32.5859 84.6484 33.1953 84.6484C33.8464 84.6484 34.3724 84.4245 34.7734 83.9766C35.1745 83.513 35.375 82.9245 35.375 82.2109C35.375 81.4974 35.1745 80.9089 34.7734 80.4453C34.3724 79.9922 33.8516 79.7656 33.2109 79.7656C32.6068 79.7656 32.1016 79.9948 31.6953 80.4531C31.2943 80.9167 31.0938 81.4896 31.0938 82.1719ZM38.8906 82.1406C38.8906 81.0417 39.2839 80.1068 40.0703 79.3359C40.8568 78.5651 41.8151 78.1797 42.9453 78.1797C44.0807 78.1797 45.0443 78.5677 45.8359 79.3438C46.6172 80.1198 47.0078 81.0729 47.0078 82.2031C47.0078 83.3438 46.6146 84.2995 45.8281 85.0703C45.0365 85.8359 44.0651 86.2188 42.9141 86.2188C41.7734 86.2188 40.8177 85.8281 40.0469 85.0469C39.276 84.276 38.8906 83.3073 38.8906 82.1406ZM40.6875 82.1719C40.6875 82.9323 40.8906 83.5339 41.2969 83.9766C41.7135 84.4245 42.263 84.6484 42.9453 84.6484C43.6328 84.6484 44.1823 84.4271 44.5938 83.9844C45.0052 83.5417 45.2109 82.9505 45.2109 82.2109C45.2109 81.4714 45.0052 80.8802 44.5938 80.4375C44.1771 79.9896 43.6276 79.7656 42.9453 79.7656C42.2734 79.7656 41.7292 79.9896 41.3125 80.4375C40.8958 80.8854 40.6875 81.4635 40.6875 82.1719ZM50.6328 72.8047V80.8516L53.1094 78.3906H55.4688L52.1641 81.5859L55.7109 86H53.4297L50.9141 82.7891L50.6328 83.0703V86H48.875V72.8047H50.6328ZM63.5234 82.6094H58.0703C58.1172 83.2344 58.3203 83.7318 58.6797 84.1016C59.0391 84.4661 59.5 84.6484 60.0625 84.6484C60.5 84.6484 60.862 84.5443 61.1484 84.3359C61.4297 84.1276 61.75 83.7422 62.1094 83.1797L63.5938 84.0078C63.3646 84.3984 63.1224 84.7344 62.8672 85.0156C62.612 85.2917 62.3385 85.5208 62.0469 85.7031C61.7552 85.8802 61.4401 86.0104 61.1016 86.0938C60.763 86.1771 60.3958 86.2188 60 86.2188C58.8646 86.2188 57.9531 85.8542 57.2656 85.125C56.5781 84.3906 56.2344 83.4167 56.2344 82.2031C56.2344 81 56.5677 80.026 57.2344 79.2812C57.9062 78.5469 58.7969 78.1797 59.9062 78.1797C61.026 78.1797 61.9115 78.5365 62.5625 79.25C63.2083 79.9583 63.5312 80.9401 63.5312 82.1953L63.5234 82.6094ZM61.7188 81.1719C61.474 80.2344 60.8828 79.7656 59.9453 79.7656C59.7318 79.7656 59.5312 79.7995 59.3438 79.8672C59.1562 79.9297 58.9844 80.0234 58.8281 80.1484C58.6771 80.2682 58.5469 80.4141 58.4375 80.5859C58.3281 80.7578 58.2448 80.9531 58.1875 81.1719H61.7188Z" fill="white"/>
</svg>
