<svg width="70" height="88" viewBox="0 0 70 88" fill="none" xmlns="http://www.w3.org/2000/svg">
<rect x="1.30469" y="0.75" width="66.5" height="66.5" rx="33.25" fill="#0BD3A0"/>
<rect x="1.30469" y="0.75" width="66.5" height="66.5" rx="33.25" stroke="white" stroke-width="1.5"/>
<path d="M30.5547 52H28.5547C26.3455 52 24.5547 50.2091 24.5547 48V46C24.5547 43.7909 26.3455 42 28.5547 42H34.5547V26V18L44.5547 16V24L34.5547 26V42V48C34.5547 50.2091 32.7638 52 30.5547 52Z" fill="white" fill-opacity="0.9"/>
<path d="M34.5547 42V48C34.5547 50.2091 32.7638 52 30.5547 52H28.5547C26.3455 52 24.5547 50.2091 24.5547 48V46C24.5547 43.7909 26.3455 42 28.5547 42H34.5547ZM34.5547 42V26M34.5547 26V18L44.5547 16V24L34.5547 26Z" stroke="black" stroke-width="3" stroke-linecap="round" stroke-linejoin="round"/>
<path d="M1.82031 73.9375V84.2891H5.36719V86H0V73.9375H1.82031ZM8.51562 78.3906V86H6.75781V78.3906H8.51562ZM6.49219 75.2266C6.49219 74.9193 6.60417 74.6536 6.82812 74.4297C7.05208 74.2057 7.32031 74.0938 7.63281 74.0938C7.95052 74.0938 8.22135 74.2057 8.44531 74.4297C8.66927 74.6484 8.78125 74.9167 8.78125 75.2344C8.78125 75.5521 8.66927 75.8229 8.44531 76.0469C8.22656 76.2708 7.95833 76.3828 7.64062 76.3828C7.32292 76.3828 7.05208 76.2708 6.82812 76.0469C6.60417 75.8229 6.49219 75.5495 6.49219 75.2266ZM11.6875 78.3906L13.6562 82.6641L15.6172 78.3906H17.5938L13.6406 86.5234L9.71875 78.3906H11.6875ZM25.4531 82.6094H20C20.0469 83.2344 20.25 83.7318 20.6094 84.1016C20.9688 84.4661 21.4297 84.6484 21.9922 84.6484C22.4297 84.6484 22.7917 84.5443 23.0781 84.3359C23.3594 84.1276 23.6797 83.7422 24.0391 83.1797L25.5234 84.0078C25.2943 84.3984 25.0521 84.7344 24.7969 85.0156C24.5417 85.2917 24.2682 85.5208 23.9766 85.7031C23.6849 85.8802 23.3698 86.0104 23.0312 86.0938C22.6927 86.1771 22.3255 86.2188 21.9297 86.2188C20.7943 86.2188 19.8828 85.8542 19.1953 85.125C18.5078 84.3906 18.1641 83.4167 18.1641 82.2031C18.1641 81 18.4974 80.026 19.1641 79.2812C19.8359 78.5469 20.7266 78.1797 21.8359 78.1797C22.9557 78.1797 23.8411 78.5365 24.4922 79.25C25.138 79.9583 25.4609 80.9401 25.4609 82.1953L25.4531 82.6094ZM23.6484 81.1719C23.4036 80.2344 22.8125 79.7656 21.875 79.7656C21.6615 79.7656 21.4609 79.7995 21.2734 79.8672C21.0859 79.9297 20.9141 80.0234 20.7578 80.1484C20.6068 80.2682 20.4766 80.4141 20.3672 80.5859C20.2578 80.7578 20.1745 80.9531 20.1172 81.1719H23.6484ZM26.2734 81.3672H29.7578V82.8984H26.2734V81.3672ZM30.8672 78.3906H32.625V79.0938C32.9635 78.7396 33.2526 78.5 33.4922 78.375C33.7474 78.2448 34.0677 78.1797 34.4531 78.1797C35.3125 78.1797 35.9922 78.5547 36.4922 79.3047C37.0443 78.5547 37.7917 78.1797 38.7344 78.1797C40.4479 78.1797 41.3047 79.2188 41.3047 81.2969V86H39.5391V81.7734C39.5391 81.0443 39.4505 80.5286 39.2734 80.2266C39.0911 79.9193 38.7917 79.7656 38.375 79.7656C37.8906 79.7656 37.5365 79.9479 37.3125 80.3125C37.0938 80.6771 36.9844 81.263 36.9844 82.0703V86H35.2188V81.7969C35.2188 80.4427 34.8281 79.7656 34.0469 79.7656C33.5521 79.7656 33.1901 79.9505 32.9609 80.3203C32.737 80.6901 32.625 81.2734 32.625 82.0703V86H30.8672V78.3906ZM45.2812 78.3906V82.7578C45.2812 84.0182 45.7786 84.6484 46.7734 84.6484C47.7682 84.6484 48.2656 84.0182 48.2656 82.7578V78.3906H50.0234V82.7969C50.0234 83.4062 49.9479 83.9323 49.7969 84.375C49.651 84.7708 49.3984 85.1276 49.0391 85.4453C48.4453 85.9609 47.6901 86.2188 46.7734 86.2188C45.862 86.2188 45.1094 85.9609 44.5156 85.4453C44.151 85.1276 43.8932 84.7708 43.7422 84.375C43.5964 84.0208 43.5234 83.4948 43.5234 82.7969V78.3906H45.2812ZM56.6641 79.6875L55.2109 80.4609C54.9818 79.9922 54.6979 79.7578 54.3594 79.7578C54.1979 79.7578 54.0599 79.8125 53.9453 79.9219C53.8307 80.026 53.7734 80.1615 53.7734 80.3281C53.7734 80.6198 54.112 80.9089 54.7891 81.1953C55.7214 81.5964 56.349 81.9661 56.6719 82.3047C56.9948 82.6432 57.1562 83.099 57.1562 83.6719C57.1562 84.4062 56.8854 85.0208 56.3438 85.5156C55.8177 85.9844 55.1823 86.2188 54.4375 86.2188C53.1615 86.2188 52.2578 85.5964 51.7266 84.3516L53.2266 83.6562C53.4349 84.0208 53.5938 84.2526 53.7031 84.3516C53.9167 84.5495 54.1719 84.6484 54.4688 84.6484C55.0625 84.6484 55.3594 84.3776 55.3594 83.8359C55.3594 83.5234 55.1302 83.2318 54.6719 82.9609C54.4948 82.8724 54.3177 82.7865 54.1406 82.7031C53.9635 82.6198 53.7839 82.5339 53.6016 82.4453C53.0911 82.1953 52.7318 81.9453 52.5234 81.6953C52.2578 81.3776 52.125 80.9688 52.125 80.4688C52.125 79.8073 52.3516 79.2604 52.8047 78.8281C53.2682 78.3958 53.8307 78.1797 54.4922 78.1797C55.4661 78.1797 56.1901 78.6823 56.6641 79.6875ZM60.5 78.3906V86H58.7422V78.3906H60.5ZM58.4766 75.2266C58.4766 74.9193 58.5885 74.6536 58.8125 74.4297C59.0365 74.2057 59.3047 74.0938 59.6172 74.0938C59.9349 74.0938 60.2057 74.2057 60.4297 74.4297C60.6536 74.6484 60.7656 74.9167 60.7656 75.2344C60.7656 75.5521 60.6536 75.8229 60.4297 76.0469C60.2109 76.2708 59.9427 76.3828 59.625 76.3828C59.3073 76.3828 59.0365 76.2708 58.8125 76.0469C58.5885 75.8229 58.4766 75.5495 58.4766 75.2266ZM64.4844 72.8047V80.8516L66.9609 78.3906H69.3203L66.0156 81.5859L69.5625 86H67.2812L64.7656 82.7891L64.4844 83.0703V86H62.7266V72.8047H64.4844Z" fill="white"/>
</svg>
