<svg width="68" height="88" viewBox="0 0 68 88" fill="none" xmlns="http://www.w3.org/2000/svg">
<rect x="0.75" y="0.75" width="66.5" height="66.5" rx="33.25" fill="#FF7CFB"/>
<rect x="0.75" y="0.75" width="66.5" height="66.5" rx="33.25" stroke="white" stroke-width="1.5"/>
<path d="M34 17C43.3891 17 51 24.6109 51 34C51 43.3891 43.3891 51 34 51C24.6109 51 17 43.3891 17 34C17 24.6109 24.6109 17 34 17ZM34 23.8C31.2948 23.8 28.7004 24.8746 26.7875 26.7875C24.8746 28.7004 23.8 31.2948 23.8 34C23.8 36.7052 24.8746 39.2996 26.7875 41.2125C28.7004 43.1254 31.2948 44.2 34 44.2C36.7052 44.2 39.2996 43.1254 41.2125 41.2125C43.1254 39.2996 44.2 36.7052 44.2 34C44.2 31.2948 43.1254 28.7004 41.2125 26.7875C39.2996 24.8746 36.7052 23.8 34 23.8ZM34 26.775C34.8168 26.775 35.6164 27.0103 36.3029 27.4529C36.9895 27.8955 37.5339 28.5266 37.8711 29.2706C38.2083 30.0145 38.324 30.8399 38.2042 31.648C38.0845 32.456 37.7345 33.2124 37.196 33.8266C38.1565 34.6018 38.76 35.7255 38.76 36.975C38.76 39.321 36.6282 41.225 34 41.225C31.3718 41.225 29.24 39.321 29.24 36.975C29.24 35.7255 29.8435 34.6018 30.804 33.8249C30.2661 33.2106 29.9165 32.4544 29.7971 31.6467C29.6776 30.8389 29.7934 30.0139 30.1305 29.2702C30.4677 28.5265 31.0119 27.8957 31.6981 27.4532C32.3843 27.0107 33.1835 26.7753 34 26.775ZM34 34.85C32.7182 34.85 31.79 36.1046 31.79 36.975C31.79 37.8454 32.7199 39.1 34 39.1C35.2818 39.1 36.21 37.8454 36.21 36.975C36.21 36.1046 35.2818 34.85 34 34.85ZM34 29.325C33.5491 29.325 33.1167 29.5041 32.7979 29.8229C32.4791 30.1417 32.3 30.5741 32.3 31.025C32.3 31.4759 32.4791 31.9083 32.7979 32.2271C33.1167 32.5459 33.5491 32.725 34 32.725C34.4509 32.725 34.8833 32.5459 35.2021 32.2271C35.5209 31.9083 35.7 31.4759 35.7 31.025C35.7 30.5741 35.5209 30.1417 35.2021 29.8229C34.8833 29.5041 34.4509 29.325 34 29.325Z" fill="black"/>
<path fill-rule="evenodd" clip-rule="evenodd" d="M34 23.8C31.2948 23.8 28.7004 24.8746 26.7875 26.7875C24.8746 28.7004 23.8 31.2948 23.8 34C23.8 36.7052 24.8746 39.2996 26.7875 41.2125C28.7004 43.1254 31.2948 44.2 34 44.2C36.7052 44.2 39.2996 43.1254 41.2125 41.2125C43.1254 39.2996 44.2 36.7052 44.2 34C44.2 31.2948 43.1254 28.7004 41.2125 26.7875C39.2996 24.8746 36.7052 23.8 34 23.8ZM36.3029 27.4529C35.6164 27.0103 34.8168 26.775 34 26.775C33.1835 26.7753 32.3843 27.0107 31.6981 27.4532C31.0119 27.8957 30.4677 28.5265 30.1305 29.2702C29.7934 30.0139 29.6776 30.8389 29.7971 31.6467C29.9165 32.4544 30.2661 33.2106 30.804 33.8249C29.8435 34.6018 29.24 35.7255 29.24 36.975C29.24 39.321 31.3718 41.225 34 41.225C36.6282 41.225 38.76 39.321 38.76 36.975C38.76 35.7255 38.1565 34.6018 37.196 33.8266C37.7345 33.2124 38.0845 32.456 38.2042 31.648C38.324 30.8399 38.2083 30.0145 37.8711 29.2706C37.5339 28.5266 36.9895 27.8955 36.3029 27.4529Z" fill="white"/>
<path d="M34 34.85C32.7182 34.85 31.79 36.1046 31.79 36.975C31.79 37.8454 32.7199 39.1 34 39.1C35.2818 39.1 36.21 37.8454 36.21 36.975C36.21 36.1046 35.2818 34.85 34 34.85Z" fill="white"/>
<path d="M34 29.325C33.5491 29.325 33.1167 29.5041 32.7979 29.8229C32.4791 30.1417 32.3 30.5741 32.3 31.025C32.3 31.4759 32.4791 31.9083 32.7979 32.2271C33.1167 32.5459 33.5491 32.725 34 32.725C34.4509 32.725 34.8833 32.5459 35.2021 32.2271C35.5209 31.9083 35.7 31.4759 35.7 31.025C35.7 30.5741 35.5209 30.1417 35.2021 29.8229C34.8833 29.5041 34.4509 29.325 34 29.325Z" fill="white"/>
<path d="M21.2656 81.1016V86H19.4453V73.9375H21.5078C22.5182 73.9375 23.2812 74.0078 23.7969 74.1484C24.3177 74.2891 24.776 74.5547 25.1719 74.9453C25.8646 75.6224 26.2109 76.4766 26.2109 77.5078C26.2109 78.612 25.8411 79.487 25.1016 80.1328C24.362 80.7786 23.3646 81.1016 22.1094 81.1016H21.2656ZM21.2656 79.4141H21.9453C23.6172 79.4141 24.4531 78.7708 24.4531 77.4844C24.4531 76.2396 23.5911 75.6172 21.8672 75.6172H21.2656V79.4141ZM26.9219 82.1406C26.9219 81.0417 27.3151 80.1068 28.1016 79.3359C28.888 78.5651 29.8464 78.1797 30.9766 78.1797C32.112 78.1797 33.0755 78.5677 33.8672 79.3438C34.6484 80.1198 35.0391 81.0729 35.0391 82.2031C35.0391 83.3438 34.6458 84.2995 33.8594 85.0703C33.0677 85.8359 32.0964 86.2188 30.9453 86.2188C29.8047 86.2188 28.849 85.8281 28.0781 85.0469C27.3073 84.276 26.9219 83.3073 26.9219 82.1406ZM28.7188 82.1719C28.7188 82.9323 28.9219 83.5339 29.3281 83.9766C29.7448 84.4245 30.2943 84.6484 30.9766 84.6484C31.6641 84.6484 32.2135 84.4271 32.625 83.9844C33.0365 83.5417 33.2422 82.9505 33.2422 82.2109C33.2422 81.4714 33.0365 80.8802 32.625 80.4375C32.2083 79.9896 31.6589 79.7656 30.9766 79.7656C30.3047 79.7656 29.7604 79.9896 29.3438 80.4375C28.9271 80.8854 28.7188 81.4635 28.7188 82.1719ZM36.5469 82.1406C36.5469 81.0417 36.9401 80.1068 37.7266 79.3359C38.513 78.5651 39.4714 78.1797 40.6016 78.1797C41.737 78.1797 42.7005 78.5677 43.4922 79.3438C44.2734 80.1198 44.6641 81.0729 44.6641 82.2031C44.6641 83.3438 44.2708 84.2995 43.4844 85.0703C42.6927 85.8359 41.7214 86.2188 40.5703 86.2188C39.4297 86.2188 38.474 85.8281 37.7031 85.0469C36.9323 84.276 36.5469 83.3073 36.5469 82.1406ZM38.3438 82.1719C38.3438 82.9323 38.5469 83.5339 38.9531 83.9766C39.3698 84.4245 39.9193 84.6484 40.6016 84.6484C41.2891 84.6484 41.8385 84.4271 42.25 83.9844C42.6615 83.5417 42.8672 82.9505 42.8672 82.2109C42.8672 81.4714 42.6615 80.8802 42.25 80.4375C41.8333 79.9896 41.2839 79.7656 40.6016 79.7656C39.9297 79.7656 39.3854 79.9896 38.9688 80.4375C38.5521 80.8854 38.3438 81.4635 38.3438 82.1719ZM48.2891 72.8047V86H46.5312V72.8047H48.2891Z" fill="white"/>
</svg>
