<svg width="68" height="88" viewBox="0 0 68 88" fill="none" xmlns="http://www.w3.org/2000/svg">
<rect x="0.75" y="0.75" width="66.5" height="66.5" rx="33.25" fill="#FFE12F"/>
<rect x="0.75" y="0.75" width="66.5" height="66.5" rx="33.25" stroke="white" stroke-width="1.5"/>
<path d="M28 25.5082C28 18.1639 40 18.1639 40 25.5083C40 30.7542 34.5455 29.7049 34.5455 36" stroke="black" stroke-width="3" stroke-linecap="round" stroke-linejoin="round"/>
<path d="M44.6112 30.1778C49.4296 24.6349 58.4861 32.5076 53.6677 38.0505C50.2261 42.0096 46.7979 37.6392 42.668 42.3902" stroke="black" stroke-width="3" stroke-linecap="round" stroke-linejoin="round"/>
<path d="M14.3279 36.0636C11.224 29.4073 22.0997 24.336 25.2036 30.9922C27.4206 35.7466 22.0337 37.1008 24.6941 42.8061" stroke="black" stroke-width="3" stroke-linecap="round" stroke-linejoin="round"/>
<path d="M34 40.0222L34.02 40" stroke="black" stroke-width="3" stroke-linecap="round" stroke-linejoin="round"/>
<path d="M40.0005 46.0211L40.0263 46.0062" stroke="black" stroke-width="3" stroke-linecap="round" stroke-linejoin="round"/>
<path d="M26.8164 45.8084L26.8364 45.7862" stroke="black" stroke-width="3" stroke-linecap="round" stroke-linejoin="round"/>
<path d="M29.7188 86.2188H27.4297L26.4844 85.25C25.4792 85.8958 24.3594 86.2188 23.125 86.2188C21.526 86.2188 20.1068 85.6771 18.8672 84.5938C17.5182 83.401 16.8438 81.8776 16.8438 80.0234C16.8438 78.2057 17.4818 76.6901 18.7578 75.4766C19.9974 74.2995 21.4609 73.7109 23.1484 73.7109C24.6797 73.7109 26.0521 74.2266 27.2656 75.2578C28.724 76.4974 29.4531 78.1146 29.4531 80.1094C29.4531 81.6719 28.8776 83.0599 27.7266 84.2734L29.7188 86.2188ZM24.7109 81.2266L26.4609 82.9688C27.2318 82.1667 27.6172 81.1745 27.6172 79.9922C27.6172 78.6953 27.1875 77.6094 26.3281 76.7344C25.4688 75.8594 24.401 75.4219 23.125 75.4219C21.8333 75.4219 20.7708 75.8594 19.9375 76.7344C19.099 77.6042 18.6797 78.7057 18.6797 80.0391C18.6797 81.3411 19.112 82.4062 19.9766 83.2344C20.8776 84.0885 21.9062 84.5156 23.0625 84.5156C23.849 84.5156 24.5599 84.3359 25.1953 83.9766L22.3594 81.2266H24.7109ZM33.1641 78.3906V82.7578C33.1641 84.0182 33.6615 84.6484 34.6562 84.6484C35.651 84.6484 36.1484 84.0182 36.1484 82.7578V78.3906H37.9062V82.7969C37.9062 83.4062 37.8307 83.9323 37.6797 84.375C37.5339 84.7708 37.2812 85.1276 36.9219 85.4453C36.3281 85.9609 35.5729 86.2188 34.6562 86.2188C33.7448 86.2188 32.9922 85.9609 32.3984 85.4453C32.0339 85.1276 31.776 84.7708 31.625 84.375C31.4792 84.0208 31.4062 83.4948 31.4062 82.7969V78.3906H33.1641ZM41.8828 78.3906V86H40.125V78.3906H41.8828ZM39.8594 75.2266C39.8594 74.9193 39.9714 74.6536 40.1953 74.4297C40.4193 74.2057 40.6875 74.0938 41 74.0938C41.3177 74.0938 41.5885 74.2057 41.8125 74.4297C42.0365 74.6484 42.1484 74.9167 42.1484 75.2344C42.1484 75.5521 42.0365 75.8229 41.8125 76.0469C41.5938 76.2708 41.3255 76.3828 41.0078 76.3828C40.6901 76.3828 40.4193 76.2708 40.1953 76.0469C39.9714 75.8229 39.8594 75.5495 39.8594 75.2266ZM46.6328 84.3438H51.1562V86H43.1484L48.0781 80.0312H44.1953V78.3906H51.5547L46.6328 84.3438Z" fill="white"/>
</svg>
