<svg width="68" height="88" viewBox="0 0 68 88" fill="none" xmlns="http://www.w3.org/2000/svg">
<rect x="0.75" y="0.75" width="66.5" height="66.5" rx="33.25" fill="#FF9401"/>
<rect x="0.75" y="0.75" width="66.5" height="66.5" rx="33.25" stroke="white" stroke-width="1.5"/>
<path d="M22 25.0909H46M34 25.0909V48M26 48V37.8182C26 36.2909 25.2 35.2727 24 35.2727H14M14 20V48M42 48V37.8182C42 37.1431 42.2107 36.4956 42.5858 36.0183C42.9609 35.5409 43.4696 35.2727 44 35.2727H54M54 20V48" stroke="black" stroke-width="3" stroke-linecap="round" stroke-linejoin="round"/>
<path d="M11.2656 75.7344L9.78906 76.6094C9.51302 76.1302 9.25 75.8177 9 75.6719C8.73958 75.5052 8.40365 75.4219 7.99219 75.4219C7.48698 75.4219 7.06771 75.5651 6.73438 75.8516C6.40104 76.1328 6.23438 76.487 6.23438 76.9141C6.23438 77.5026 6.67188 77.9766 7.54688 78.3359L8.75 78.8281C9.72917 79.224 10.4453 79.7083 10.8984 80.2812C11.3516 80.849 11.5781 81.5469 11.5781 82.375C11.5781 83.4844 11.2083 84.401 10.4688 85.125C9.72396 85.8542 8.79948 86.2188 7.69531 86.2188C6.64844 86.2188 5.78385 85.9089 5.10156 85.2891C4.42969 84.6693 4.01042 83.7969 3.84375 82.6719L5.6875 82.2656C5.77083 82.974 5.91667 83.4635 6.125 83.7344C6.5 84.2552 7.04688 84.5156 7.76562 84.5156C8.33333 84.5156 8.80469 84.3255 9.17969 83.9453C9.55469 83.5651 9.74219 83.0833 9.74219 82.5C9.74219 82.2656 9.70833 82.0521 9.64062 81.8594C9.57812 81.6615 9.47656 81.4818 9.33594 81.3203C9.20052 81.1536 9.02344 81 8.80469 80.8594C8.58594 80.7135 8.32552 80.5755 8.02344 80.4453L6.85938 79.9609C5.20833 79.263 4.38281 78.2422 4.38281 76.8984C4.38281 75.9922 4.72917 75.2344 5.42188 74.625C6.11458 74.0104 6.97656 73.7031 8.00781 73.7031C9.39844 73.7031 10.4844 74.3802 11.2656 75.7344ZM15.1953 78.3906V86H13.4375V78.3906H15.1953ZM13.1719 75.2266C13.1719 74.9193 13.2839 74.6536 13.5078 74.4297C13.7318 74.2057 14 74.0938 14.3125 74.0938C14.6302 74.0938 14.901 74.2057 15.125 74.4297C15.349 74.6484 15.4609 74.9167 15.4609 75.2344C15.4609 75.5521 15.349 75.8229 15.125 76.0469C14.9062 76.2708 14.638 76.3828 14.3203 76.3828C14.0026 76.3828 13.7318 76.2708 13.5078 76.0469C13.2839 75.8229 13.1719 75.5495 13.1719 75.2266ZM19.2344 80.0312V86H17.4766V80.0312H16.7266V78.3906H17.4766V75.6016H19.2344V78.3906H20.6016V80.0312H19.2344ZM20.6875 81.3672H24.1719V82.8984H20.6875V81.3672ZM30.8906 72.8047H32.6562V86H30.8906V85.2031C30.1979 85.8802 29.4141 86.2188 28.5391 86.2188C27.4974 86.2188 26.6328 85.8385 25.9453 85.0781C25.263 84.3021 24.9219 83.3333 24.9219 82.1719C24.9219 81.0365 25.263 80.0885 25.9453 79.3281C26.6224 78.5625 27.474 78.1797 28.5 78.1797C29.3906 78.1797 30.1875 78.5443 30.8906 79.2734V72.8047ZM26.7188 82.1719C26.7188 82.901 26.9141 83.4948 27.3047 83.9531C27.7057 84.4167 28.2109 84.6484 28.8203 84.6484C29.4714 84.6484 29.9974 84.4245 30.3984 83.9766C30.7995 83.513 31 82.9245 31 82.2109C31 81.4974 30.7995 80.9089 30.3984 80.4453C29.9974 79.9922 29.4766 79.7656 28.8359 79.7656C28.2318 79.7656 27.7266 79.9948 27.3203 80.4531C26.9193 80.9167 26.7188 81.4896 26.7188 82.1719ZM34.5156 82.1406C34.5156 81.0417 34.9089 80.1068 35.6953 79.3359C36.4818 78.5651 37.4401 78.1797 38.5703 78.1797C39.7057 78.1797 40.6693 78.5677 41.4609 79.3438C42.2422 80.1198 42.6328 81.0729 42.6328 82.2031C42.6328 83.3438 42.2396 84.2995 41.4531 85.0703C40.6615 85.8359 39.6901 86.2188 38.5391 86.2188C37.3984 86.2188 36.4427 85.8281 35.6719 85.0469C34.901 84.276 34.5156 83.3073 34.5156 82.1406ZM36.3125 82.1719C36.3125 82.9323 36.5156 83.5339 36.9219 83.9766C37.3385 84.4245 37.888 84.6484 38.5703 84.6484C39.2578 84.6484 39.8073 84.4271 40.2188 83.9844C40.6302 83.5417 40.8359 82.9505 40.8359 82.2109C40.8359 81.4714 40.6302 80.8802 40.2188 80.4375C39.8021 79.9896 39.2526 79.7656 38.5703 79.7656C37.8984 79.7656 37.3542 79.9896 36.9375 80.4375C36.5208 80.8854 36.3125 81.4635 36.3125 82.1719ZM45.1406 78.3906L47.1328 82.7344L49.2812 77.6953L51.4453 82.7344L53.4141 78.3906H55.3828L51.3984 86.5703L49.2812 81.6719L47.1406 86.5703L43.1641 78.3906H45.1406ZM56.5781 78.3906H58.3438V79.0938C58.9583 78.4844 59.651 78.1797 60.4219 78.1797C61.3073 78.1797 61.9974 78.4583 62.4922 79.0156C62.9193 79.4896 63.1328 80.263 63.1328 81.3359V86H61.3672V81.75C61.3672 81 61.263 80.4818 61.0547 80.1953C60.8516 79.9036 60.4818 79.7578 59.9453 79.7578C59.362 79.7578 58.9479 79.9505 58.7031 80.3359C58.4635 80.7161 58.3438 81.3802 58.3438 82.3281V86H56.5781V78.3906Z" fill="white"/>
</svg>
