<svg width="68" height="91" viewBox="0 0 68 91" fill="none" xmlns="http://www.w3.org/2000/svg">
<rect x="0.75" y="0.75" width="66.5" height="66.5" rx="33.25" fill="#FF7CFB"/>
<rect x="0.75" y="0.75" width="66.5" height="66.5" rx="33.25" stroke="white" stroke-width="1.5"/>
<rect x="32.3" y="19.5" width="16.2" height="16.2" rx="1.7" fill="white" stroke="black" stroke-width="3"/>
<rect x="16.5" y="29.3" width="22.2" height="22.2" rx="4.7" stroke="#FF7CFB" stroke-width="3"/>
<rect x="19.5" y="32.3" width="16.2" height="16.2" rx="1.7" fill="white" stroke="black" stroke-width="3"/>
<circle cx="24.4" cy="37.2" r="1.6" fill="black"/>
<circle cx="43.6" cy="24.4" r="1.6" fill="black"/>
<circle cx="37.2" cy="24.4" r="1.6" fill="black"/>
<circle cx="43.6" cy="30.8" r="1.6" fill="black"/>
<circle cx="30.8" cy="43.6" r="1.6" fill="black"/>
<path d="M28.7656 75.7344L27.2891 76.6094C27.013 76.1302 26.75 75.8177 26.5 75.6719C26.2396 75.5052 25.9036 75.4219 25.4922 75.4219C24.987 75.4219 24.5677 75.5651 24.2344 75.8516C23.901 76.1328 23.7344 76.487 23.7344 76.9141C23.7344 77.5026 24.1719 77.9766 25.0469 78.3359L26.25 78.8281C27.2292 79.224 27.9453 79.7083 28.3984 80.2812C28.8516 80.849 29.0781 81.5469 29.0781 82.375C29.0781 83.4844 28.7083 84.401 27.9688 85.125C27.224 85.8542 26.2995 86.2188 25.1953 86.2188C24.1484 86.2188 23.2839 85.9089 22.6016 85.2891C21.9297 84.6693 21.5104 83.7969 21.3438 82.6719L23.1875 82.2656C23.2708 82.974 23.4167 83.4635 23.625 83.7344C24 84.2552 24.5469 84.5156 25.2656 84.5156C25.8333 84.5156 26.3047 84.3255 26.6797 83.9453C27.0547 83.5651 27.2422 83.0833 27.2422 82.5C27.2422 82.2656 27.2083 82.0521 27.1406 81.8594C27.0781 81.6615 26.9766 81.4818 26.8359 81.3203C26.7005 81.1536 26.5234 81 26.3047 80.8594C26.0859 80.7135 25.8255 80.5755 25.5234 80.4453L24.3594 79.9609C22.7083 79.263 21.8828 78.2422 21.8828 76.8984C21.8828 75.9922 22.2292 75.2344 22.9219 74.625C23.6146 74.0104 24.4766 73.7031 25.5078 73.7031C26.8984 73.7031 27.9844 74.3802 28.7656 75.7344ZM32.6953 90.1406H30.9375V78.3906H32.6953V79.2188C33.388 78.526 34.1745 78.1797 35.0547 78.1797C36.1016 78.1797 36.9635 78.5651 37.6406 79.3359C38.3281 80.1016 38.6719 81.0677 38.6719 82.2344C38.6719 83.375 38.3307 84.3255 37.6484 85.0859C36.9714 85.8411 36.1172 86.2188 35.0859 86.2188C34.1953 86.2188 33.3984 85.862 32.6953 85.1484V90.1406ZM36.875 82.2422C36.875 81.513 36.6771 80.9193 36.2812 80.4609C35.8802 79.9974 35.375 79.7656 34.7656 79.7656C34.1198 79.7656 33.5964 79.9896 33.1953 80.4375C32.7943 80.8854 32.5938 81.474 32.5938 82.2031C32.5938 82.9167 32.7943 83.5052 33.1953 83.9688C33.5911 84.4219 34.112 84.6484 34.7578 84.6484C35.3672 84.6484 35.8698 84.4193 36.2656 83.9609C36.6719 83.5026 36.875 82.9297 36.875 82.2422ZM42.2891 78.3906V86H40.5312V78.3906H42.2891ZM40.2656 75.2266C40.2656 74.9193 40.3776 74.6536 40.6016 74.4297C40.8255 74.2057 41.0938 74.0938 41.4062 74.0938C41.724 74.0938 41.9948 74.2057 42.2188 74.4297C42.4427 74.6484 42.5547 74.9167 42.5547 75.2344C42.5547 75.5521 42.4427 75.8229 42.2188 76.0469C42 76.2708 41.7318 76.3828 41.4141 76.3828C41.0964 76.3828 40.8255 76.2708 40.6016 76.0469C40.3776 75.8229 40.2656 75.5495 40.2656 75.2266ZM46.2734 72.8047V86H44.5156V72.8047H46.2734Z" fill="white"/>
</svg>
