<svg width="68" height="91" viewBox="0 0 68 91" fill="none" xmlns="http://www.w3.org/2000/svg">
<rect x="0.75" y="0.75" width="66.5" height="66.5" rx="33.25" fill="#0BD3A0"/>
<rect x="0.75" y="0.75" width="66.5" height="66.5" rx="33.25" stroke="white" stroke-width="1.5"/>
<path d="M41.6084 31.5279L34 26L26.3915 31.5279L29.2977 40.4721H38.7023L41.6084 31.5279Z" fill="black"/>
<path d="M25.9999 45L16.6756 44C19.6574 49.1546 24.8737 52.855 30.9999 53.7765L25.9999 45Z" fill="black"/>
<path d="M14.0987 36L20.9999 29L18.9999 20.7709C15.8881 24.2965 13.9999 28.9278 13.9999 34C13.9999 34.675 14.0334 35.3422 14.0987 36Z" fill="black"/>
<path d="M27.2486 15.1682L34 20L40.7513 15.1682C38.6422 14.412 36.3692 14 33.9999 14C31.6307 14 29.3577 14.412 27.2486 15.1682Z" fill="black"/>
<path d="M46.9999 29L53.9012 36C53.9665 35.3422 53.9999 34.675 53.9999 34C53.9999 28.9278 52.1118 24.2965 48.9999 20.7709L46.9999 29Z" fill="black"/>
<path d="M51.3243 44L41.9999 45L36.9999 53.7765C43.1262 52.855 48.3425 49.1546 51.3243 44Z" fill="black"/>
<path d="M41.6084 31.5279L38.7023 40.4721L41.9999 45L51.3243 44C52.7107 41.6033 53.614 38.8923 53.9012 36L46.9999 29L41.6084 31.5279Z" fill="white"/>
<path d="M34 26L41.6084 31.5279L46.9999 29L48.9999 20.7709C46.7887 18.2656 43.9597 16.3186 40.7513 15.1682L34 20V26Z" fill="white"/>
<path d="M26.3915 31.5279L34 26V20L27.2486 15.1682C24.0402 16.3186 21.2111 18.2656 18.9999 20.7709L20.9999 29L26.3915 31.5279Z" fill="white"/>
<path d="M29.2977 40.4721L26.3915 31.5279L20.9999 29L14.0987 36C14.3859 38.8923 15.2892 41.6033 16.6756 44L25.9999 45L29.2977 40.4721Z" fill="white"/>
<path d="M38.7023 40.4721H29.2977L25.9999 45L30.9999 53.7765C31.9785 53.9237 32.9803 54 33.9999 54C35.0196 54 36.0214 53.9237 36.9999 53.7765L41.9999 45L38.7023 40.4721Z" fill="white"/>
<path d="M34 26L41.6084 31.5279M34 26L26.3915 31.5279M34 26V20M41.6084 31.5279L38.7023 40.4721M41.6084 31.5279L46.9999 29M38.7023 40.4721H29.2977M38.7023 40.4721L41.9999 45M29.2977 40.4721L26.3915 31.5279M29.2977 40.4721L25.9999 45M26.3915 31.5279L20.9999 29M20.9999 29L14.0987 36M20.9999 29L18.9999 20.7709M14.0987 36C14.0334 35.3422 13.9999 34.675 13.9999 34M30.9999 53.7765C24.8737 52.855 19.6574 49.1546 16.6756 44C15.2892 41.6033 14.3859 38.8923 14.0987 36M18.9999 20.7709C15.8881 24.2965 13.9999 28.9278 13.9999 34M33.9999 14C31.6307 14 29.3577 14.412 27.2486 15.1682C24.0402 16.3186 21.2111 18.2656 18.9999 20.7709M46.9999 29L53.9012 36M46.9999 29L48.9999 20.7709M51.3243 44C52.7107 41.6033 53.614 38.8923 53.9012 36C53.9665 35.3422 53.9999 34.675 53.9999 34M48.9999 20.7709C52.1118 24.2965 53.9999 28.9278 53.9999 34M33.9999 14C36.3692 14 38.6422 14.412 40.7513 15.1682C43.9597 16.3186 46.7887 18.2656 48.9999 20.7709M34 20L27.2486 15.1682M34 20L40.7513 15.1682M25.9999 45L16.6756 44M25.9999 45L30.9999 53.7765M30.9999 53.7765C31.9785 53.9237 32.9803 54 33.9999 54M41.9999 45L51.3243 44M41.9999 45L36.9999 53.7765M51.3243 44C48.3425 49.1546 43.1262 52.855 36.9999 53.7765M36.9999 53.7765C36.0214 53.9237 35.0196 54 33.9999 54M53.9999 34C53.9999 45.0457 45.0456 54 33.9999 54M53.9999 34C53.9999 22.9543 45.0456 14 33.9999 14M33.9999 54C22.9542 54 13.9999 45.0457 13.9999 34M13.9999 34C13.9999 22.9543 22.9542 14 33.9999 14" stroke="black" stroke-width="3" stroke-linecap="round" stroke-linejoin="round"/>
<path d="M22.2656 75.7344L20.7891 76.6094C20.513 76.1302 20.25 75.8177 20 75.6719C19.7396 75.5052 19.4036 75.4219 18.9922 75.4219C18.487 75.4219 18.0677 75.5651 17.7344 75.8516C17.401 76.1328 17.2344 76.487 17.2344 76.9141C17.2344 77.5026 17.6719 77.9766 18.5469 78.3359L19.75 78.8281C20.7292 79.224 21.4453 79.7083 21.8984 80.2812C22.3516 80.849 22.5781 81.5469 22.5781 82.375C22.5781 83.4844 22.2083 84.401 21.4688 85.125C20.724 85.8542 19.7995 86.2188 18.6953 86.2188C17.6484 86.2188 16.7839 85.9089 16.1016 85.2891C15.4297 84.6693 15.0104 83.7969 14.8438 82.6719L16.6875 82.2656C16.7708 82.974 16.9167 83.4635 17.125 83.7344C17.5 84.2552 18.0469 84.5156 18.7656 84.5156C19.3333 84.5156 19.8047 84.3255 20.1797 83.9453C20.5547 83.5651 20.7422 83.0833 20.7422 82.5C20.7422 82.2656 20.7083 82.0521 20.6406 81.8594C20.5781 81.6615 20.4766 81.4818 20.3359 81.3203C20.2005 81.1536 20.0234 81 19.8047 80.8594C19.5859 80.7135 19.3255 80.5755 19.0234 80.4453L17.8594 79.9609C16.2083 79.263 15.3828 78.2422 15.3828 76.8984C15.3828 75.9922 15.7292 75.2344 16.4219 74.625C17.1146 74.0104 17.9766 73.7031 19.0078 73.7031C20.3984 73.7031 21.4844 74.3802 22.2656 75.7344ZM26.1953 90.1406H24.4375V78.3906H26.1953V79.2188C26.888 78.526 27.6745 78.1797 28.5547 78.1797C29.6016 78.1797 30.4635 78.5651 31.1406 79.3359C31.8281 80.1016 32.1719 81.0677 32.1719 82.2344C32.1719 83.375 31.8307 84.3255 31.1484 85.0859C30.4714 85.8411 29.6172 86.2188 28.5859 86.2188C27.6953 86.2188 26.8984 85.862 26.1953 85.1484V90.1406ZM30.375 82.2422C30.375 81.513 30.1771 80.9193 29.7812 80.4609C29.3802 79.9974 28.875 79.7656 28.2656 79.7656C27.6198 79.7656 27.0964 79.9896 26.6953 80.4375C26.2943 80.8854 26.0938 81.474 26.0938 82.2031C26.0938 82.9167 26.2943 83.5052 26.6953 83.9688C27.0911 84.4219 27.612 84.6484 28.2578 84.6484C28.8672 84.6484 29.3698 84.4193 29.7656 83.9609C30.1719 83.5026 30.375 82.9297 30.375 82.2422ZM33.6719 82.1406C33.6719 81.0417 34.0651 80.1068 34.8516 79.3359C35.638 78.5651 36.5964 78.1797 37.7266 78.1797C38.862 78.1797 39.8255 78.5677 40.6172 79.3438C41.3984 80.1198 41.7891 81.0729 41.7891 82.2031C41.7891 83.3438 41.3958 84.2995 40.6094 85.0703C39.8177 85.8359 38.8464 86.2188 37.6953 86.2188C36.5547 86.2188 35.599 85.8281 34.8281 85.0469C34.0573 84.276 33.6719 83.3073 33.6719 82.1406ZM35.4688 82.1719C35.4688 82.9323 35.6719 83.5339 36.0781 83.9766C36.4948 84.4245 37.0443 84.6484 37.7266 84.6484C38.4141 84.6484 38.9635 84.4271 39.375 83.9844C39.7865 83.5417 39.9922 82.9505 39.9922 82.2109C39.9922 81.4714 39.7865 80.8802 39.375 80.4375C38.9583 79.9896 38.4089 79.7656 37.7266 79.7656C37.0547 79.7656 36.5104 79.9896 36.0938 80.4375C35.6771 80.8854 35.4688 81.4635 35.4688 82.1719ZM43.6562 78.3906H45.4141V79.0703C45.737 78.7318 46.0234 78.5 46.2734 78.375C46.5286 78.2448 46.8307 78.1797 47.1797 78.1797C47.6432 78.1797 48.1276 78.3307 48.6328 78.6328L47.8281 80.2422C47.4948 80.0026 47.1693 79.8828 46.8516 79.8828C45.8932 79.8828 45.4141 80.6068 45.4141 82.0547V86H43.6562V78.3906ZM52.0312 80.0312V86H50.2734V80.0312H49.5234V78.3906H50.2734V75.6016H52.0312V78.3906H53.3984V80.0312H52.0312Z" fill="white"/>
</svg>
