<svg width="84" height="88" viewBox="0 0 84 88" fill="none" xmlns="http://www.w3.org/2000/svg">
<rect x="8.40625" y="0.75" width="66.5" height="66.5" rx="33.25" fill="#FF4320"/>
<rect x="8.40625" y="0.75" width="66.5" height="66.5" rx="33.25" stroke="white" stroke-width="1.5"/>
<path d="M41.6562 54C52.7019 54 61.6562 45.0457 61.6562 34C61.6562 22.9543 52.7019 14 41.6562 14C30.6106 14 21.6562 22.9543 21.6562 34C21.6562 45.0457 30.6106 54 41.6562 54Z" fill="white" fill-opacity="0.9" stroke="black" stroke-width="3" stroke-linecap="round" stroke-linejoin="round"/>
<path d="M48.6562 42C49.2085 42 49.6562 41.5523 49.6562 41C49.6562 40.4477 49.2085 40 48.6562 40C48.104 40 47.6562 40.4477 47.6562 41C47.6562 41.5523 48.104 42 48.6562 42Z" fill="black" stroke="black" stroke-width="3" stroke-linecap="round" stroke-linejoin="round"/>
<path d="M34.6562 28C35.2085 28 35.6562 27.5523 35.6562 27C35.6562 26.4477 35.2085 26 34.6562 26C34.104 26 33.6562 26.4477 33.6562 27C33.6562 27.5523 34.104 28 34.6562 28Z" fill="black" stroke="black" stroke-width="3" stroke-linecap="round" stroke-linejoin="round"/>
<path d="M49.6562 26L33.6562 42" stroke="black" stroke-width="3" stroke-linecap="round" stroke-linejoin="round"/>
<path d="M7.42188 75.7344L5.94531 76.6094C5.66927 76.1302 5.40625 75.8177 5.15625 75.6719C4.89583 75.5052 4.5599 75.4219 4.14844 75.4219C3.64323 75.4219 3.22396 75.5651 2.89062 75.8516C2.55729 76.1328 2.39062 76.487 2.39062 76.9141C2.39062 77.5026 2.82812 77.9766 3.70312 78.3359L4.90625 78.8281C5.88542 79.224 6.60156 79.7083 7.05469 80.2812C7.50781 80.849 7.73438 81.5469 7.73438 82.375C7.73438 83.4844 7.36458 84.401 6.625 85.125C5.88021 85.8542 4.95573 86.2188 3.85156 86.2188C2.80469 86.2188 1.9401 85.9089 1.25781 85.2891C0.585938 84.6693 0.166667 83.7969 0 82.6719L1.84375 82.2656C1.92708 82.974 2.07292 83.4635 2.28125 83.7344C2.65625 84.2552 3.20312 84.5156 3.92188 84.5156C4.48958 84.5156 4.96094 84.3255 5.33594 83.9453C5.71094 83.5651 5.89844 83.0833 5.89844 82.5C5.89844 82.2656 5.86458 82.0521 5.79688 81.8594C5.73438 81.6615 5.63281 81.4818 5.49219 81.3203C5.35677 81.1536 5.17969 81 4.96094 80.8594C4.74219 80.7135 4.48177 80.5755 4.17969 80.4453L3.01562 79.9609C1.36458 79.263 0.539062 78.2422 0.539062 76.8984C0.539062 75.9922 0.885417 75.2344 1.57812 74.625C2.27083 74.0104 3.13281 73.7031 4.16406 73.7031C5.55469 73.7031 6.64062 74.3802 7.42188 75.7344ZM11.6875 80.0312V86H9.92969V80.0312H9.17969V78.3906H9.92969V75.6016H11.6875V78.3906H13.0547V80.0312H11.6875ZM16.0078 78.3906V82.7578C16.0078 84.0182 16.5052 84.6484 17.5 84.6484C18.4948 84.6484 18.9922 84.0182 18.9922 82.7578V78.3906H20.75V82.7969C20.75 83.4062 20.6745 83.9323 20.5234 84.375C20.3776 84.7708 20.125 85.1276 19.7656 85.4453C19.1719 85.9609 18.4167 86.2188 17.5 86.2188C16.5885 86.2188 15.8359 85.9609 15.2422 85.4453C14.8776 85.1276 14.6198 84.7708 14.4688 84.375C14.3229 84.0208 14.25 83.4948 14.25 82.7969V78.3906H16.0078ZM28.5781 72.8047H30.3438V86H28.5781V85.2031C27.8854 85.8802 27.1016 86.2188 26.2266 86.2188C25.1849 86.2188 24.3203 85.8385 23.6328 85.0781C22.9505 84.3021 22.6094 83.3333 22.6094 82.1719C22.6094 81.0365 22.9505 80.0885 23.6328 79.3281C24.3099 78.5625 25.1615 78.1797 26.1875 78.1797C27.0781 78.1797 27.875 78.5443 28.5781 79.2734V72.8047ZM24.4062 82.1719C24.4062 82.901 24.6016 83.4948 24.9922 83.9531C25.3932 84.4167 25.8984 84.6484 26.5078 84.6484C27.1589 84.6484 27.6849 84.4245 28.0859 83.9766C28.487 83.513 28.6875 82.9245 28.6875 82.2109C28.6875 81.4974 28.487 80.9089 28.0859 80.4453C27.6849 79.9922 27.1641 79.7656 26.5234 79.7656C25.9193 79.7656 25.4141 79.9948 25.0078 80.4531C24.6068 80.9167 24.4062 81.4896 24.4062 82.1719ZM34.3203 78.3906V86H32.5625V78.3906H34.3203ZM32.2969 75.2266C32.2969 74.9193 32.4089 74.6536 32.6328 74.4297C32.8568 74.2057 33.125 74.0938 33.4375 74.0938C33.7552 74.0938 34.026 74.2057 34.25 74.4297C34.474 74.6484 34.5859 74.9167 34.5859 75.2344C34.5859 75.5521 34.474 75.8229 34.25 76.0469C34.0312 76.2708 33.763 76.3828 33.4453 76.3828C33.1276 76.3828 32.8568 76.2708 32.6328 76.0469C32.4089 75.8229 32.2969 75.5495 32.2969 75.2266ZM43.4766 82.6094H38.0234C38.0703 83.2344 38.2734 83.7318 38.6328 84.1016C38.9922 84.4661 39.4531 84.6484 40.0156 84.6484C40.4531 84.6484 40.8151 84.5443 41.1016 84.3359C41.3828 84.1276 41.7031 83.7422 42.0625 83.1797L43.5469 84.0078C43.3177 84.3984 43.0755 84.7344 42.8203 85.0156C42.5651 85.2917 42.2917 85.5208 42 85.7031C41.7083 85.8802 41.3932 86.0104 41.0547 86.0938C40.7161 86.1771 40.349 86.2188 39.9531 86.2188C38.8177 86.2188 37.9062 85.8542 37.2188 85.125C36.5312 84.3906 36.1875 83.4167 36.1875 82.2031C36.1875 81 36.5208 80.026 37.1875 79.2812C37.8594 78.5469 38.75 78.1797 39.8594 78.1797C40.9792 78.1797 41.8646 78.5365 42.5156 79.25C43.1615 79.9583 43.4844 80.9401 43.4844 82.1953L43.4766 82.6094ZM41.6719 81.1719C41.4271 80.2344 40.8359 79.7656 39.8984 79.7656C39.6849 79.7656 39.4844 79.7995 39.2969 79.8672C39.1094 79.9297 38.9375 80.0234 38.7812 80.1484C38.6302 80.2682 38.5 80.4141 38.3906 80.5859C38.2812 80.7578 38.1979 80.9531 38.1406 81.1719H41.6719ZM45.4062 78.3906H47.1641V79.0703C47.487 78.7318 47.7734 78.5 48.0234 78.375C48.2786 78.2448 48.5807 78.1797 48.9297 78.1797C49.3932 78.1797 49.8776 78.3307 50.3828 78.6328L49.5781 80.2422C49.2448 80.0026 48.9193 79.8828 48.6016 79.8828C47.6432 79.8828 47.1641 80.6068 47.1641 82.0547V86H45.4062V78.3906ZM56.8906 78.3906H58.6562V86H56.8906V85.2031C56.1667 85.8802 55.388 86.2188 54.5547 86.2188C53.5026 86.2188 52.6328 85.8385 51.9453 85.0781C51.263 84.3021 50.9219 83.3333 50.9219 82.1719C50.9219 81.0312 51.263 80.0807 51.9453 79.3203C52.6276 78.5599 53.4818 78.1797 54.5078 78.1797C55.3932 78.1797 56.1875 78.5443 56.8906 79.2734V78.3906ZM52.7188 82.1719C52.7188 82.901 52.9141 83.4948 53.3047 83.9531C53.7057 84.4167 54.2109 84.6484 54.8203 84.6484C55.4714 84.6484 55.9974 84.4245 56.3984 83.9766C56.7995 83.513 57 82.9245 57 82.2109C57 81.4974 56.7995 80.9089 56.3984 80.4453C55.9974 79.9922 55.4766 79.7656 54.8359 79.7656C54.2318 79.7656 53.7266 79.9948 53.3203 80.4531C52.9193 80.9167 52.7188 81.4896 52.7188 82.1719ZM62.6328 72.8047V79.2734C63.3359 78.5443 64.1328 78.1797 65.0234 78.1797C66.0495 78.1797 66.9036 78.5625 67.5859 79.3281C68.2682 80.0885 68.6094 81.0365 68.6094 82.1719C68.6094 83.3438 68.2656 84.3125 67.5781 85.0781C66.8958 85.8385 66.0339 86.2188 64.9922 86.2188C64.112 86.2188 63.3255 85.8802 62.6328 85.2031V86H60.875V72.8047H62.6328ZM66.8125 82.25C66.8125 81.5208 66.6146 80.9271 66.2188 80.4688C65.8177 80 65.3151 79.7656 64.7109 79.7656C64.0651 79.7656 63.5391 79.9922 63.1328 80.4453C62.7318 80.8932 62.5312 81.4766 62.5312 82.1953C62.5312 82.9349 62.7292 83.526 63.125 83.9688C63.5208 84.4219 64.0417 84.6484 64.6875 84.6484C65.2969 84.6484 65.8021 84.4219 66.2031 83.9688C66.6094 83.5104 66.8125 82.9375 66.8125 82.25ZM76.0781 78.3906H77.8438V86H76.0781V85.2031C75.3542 85.8802 74.5755 86.2188 73.7422 86.2188C72.6901 86.2188 71.8203 85.8385 71.1328 85.0781C70.4505 84.3021 70.1094 83.3333 70.1094 82.1719C70.1094 81.0312 70.4505 80.0807 71.1328 79.3203C71.8151 78.5599 72.6693 78.1797 73.6953 78.1797C74.5807 78.1797 75.375 78.5443 76.0781 79.2734V78.3906ZM71.9062 82.1719C71.9062 82.901 72.1016 83.4948 72.4922 83.9531C72.8932 84.4167 73.3984 84.6484 74.0078 84.6484C74.6589 84.6484 75.1849 84.4245 75.5859 83.9766C75.987 83.513 76.1875 82.9245 76.1875 82.2109C76.1875 81.4974 75.987 80.9089 75.5859 80.4453C75.1849 79.9922 74.6641 79.7656 74.0234 79.7656C73.4193 79.7656 72.9141 79.9948 72.5078 80.4531C72.1068 80.9167 71.9062 81.4896 71.9062 82.1719ZM81.875 80.0312V86H80.1172V80.0312H79.3672V78.3906H80.1172V75.6016H81.875V78.3906H83.2422V80.0312H81.875Z" fill="white"/>
</svg>
