<svg width="192" height="192" viewBox="0 0 192 192" fill="none" xmlns="http://www.w3.org/2000/svg">
<rect width="192" height="192" rx="96" fill="#FF9401"/>
<path d="M96 44.9529V75.3678C105.205 75.3899 114.287 74.2591 124.886 72.0114C123.005 64.4458 120.372 56.8143 117 48.9458C110.501 46.3691 103.416 44.9529 96 44.9529Z" fill="white"/>
<path d="M96 44.9529C88.5839 44.9529 81.4987 46.3691 75 48.9458C72.2794 57.3388 69.962 64.9909 68.1264 72.1732C78.4568 74.2923 87.2836 75.3469 96 75.3678V44.9529Z" fill="white"/>
<path d="M75 48.9458C65.093 52.8738 56.5492 59.4987 50.2741 67.9148C56.7825 69.6348 62.6646 71.0528 68.1264 72.1732C69.962 64.9909 72.2794 57.3388 75 48.9458Z" fill="white"/>
<path d="M50.2741 67.9148C44.9409 75.0679 41.2465 83.5148 39.7472 92.6995C48.5722 95.2282 56.3773 97.3354 63.5416 98.9932C64.0935 90.4592 65.6833 81.7323 68.1264 72.1732C62.6646 71.0528 56.7825 69.6348 50.2741 67.9148Z" fill="white"/>
<path d="M96 103.411V75.3678C87.2836 75.3469 78.4568 74.2923 68.1264 72.1732C65.6833 81.7323 64.0935 90.4592 63.5416 98.9932C75.5692 101.776 85.7908 103.293 96 103.411Z" fill="white"/>
<path d="M65.6551 126.945C76.3793 130.079 86.1675 131.675 96 131.688V103.411C85.7908 103.293 75.5692 101.776 63.5416 98.9932C62.942 108.265 63.5675 117.309 65.6551 126.945Z" fill="white"/>
<path d="M39.7472 92.6995C39.2556 95.7112 39 98.8022 39 101.953C39 107.552 39.8072 112.962 41.3116 118.074C50.1157 121.78 58.1166 124.742 65.6551 126.945C63.5675 117.309 62.942 108.265 63.5416 98.9932C56.3773 97.3354 48.5722 95.2282 39.7472 92.6995Z" fill="white"/>
<path d="M125.36 127.289C127.445 117.625 128.449 108.434 128.393 99.4363C116.411 102.248 106.212 103.529 96 103.411V131.688C105.455 131.7 114.951 130.247 125.36 127.289Z" fill="white"/>
<path d="M124.886 72.0114C114.287 74.2591 105.205 75.3899 96 75.3678V103.411C106.212 103.529 116.411 102.248 128.393 99.4363C128.336 90.1899 127.159 81.1488 124.886 72.0114Z" fill="white"/>
<path d="M152.253 92.6995C150.753 83.5148 147.059 75.0679 141.726 67.9148C135.621 69.5449 130.072 70.9118 124.886 72.0114C127.159 81.1488 128.336 90.1899 128.393 99.4363C135.577 97.7505 143.401 95.5144 152.253 92.6995Z" fill="white"/>
<path d="M153 101.953C153 98.8022 152.744 95.7112 152.253 92.6995C143.401 95.5144 135.577 97.7505 128.393 99.4363C128.449 108.434 127.445 117.625 125.36 127.289C133.166 125.07 141.487 122.004 150.688 118.074C152.193 112.962 153 107.552 153 101.953Z" fill="white"/>
<path d="M117 154.96C133.182 148.544 145.727 134.933 150.688 118.074C141.487 122.004 133.166 125.07 125.36 127.289C123.468 136.055 120.687 145.21 117 154.96Z" fill="white"/>
<path d="M96 158.953C103.416 158.953 110.501 157.537 117 154.96C120.687 145.21 123.468 136.055 125.36 127.289C114.951 130.247 105.455 131.7 96 131.688V158.953Z" fill="white"/>
<path d="M75 154.96C81.4987 157.537 88.5839 158.953 96 158.953V131.688C86.1675 131.675 76.3793 130.079 65.6551 126.945C67.5315 135.607 70.5891 144.747 75 154.96Z" fill="white"/>
<path d="M41.3116 118.074C46.2731 134.933 58.8183 148.544 75 154.96C70.5891 144.747 67.5315 135.607 65.6551 126.945C58.1166 124.742 50.1157 121.78 41.3116 118.074Z" fill="white"/>
<path d="M141.726 67.9148C135.451 59.4987 126.907 52.8738 117 48.9458C120.372 56.8143 123.005 64.4458 124.886 72.0114C130.072 70.9118 135.621 69.5449 141.726 67.9148Z" fill="white"/>
<path d="M96 158.953C103.416 158.953 110.501 157.537 117 154.96M96 158.953C88.5839 158.953 81.4987 157.537 75 154.96M96 158.953V131.688M96 44.9529C103.416 44.9529 110.501 46.3691 117 48.9458M96 44.9529C88.5839 44.9529 81.4987 46.3691 75 48.9458M96 44.9529V27.0471M96 44.9529V75.3678M117 48.9458C126.907 52.8738 135.451 59.4987 141.726 67.9148M117 48.9458C120.372 56.8143 123.005 64.4458 124.886 72.0114M141.726 67.9148C147.059 75.0679 150.753 83.5148 152.253 92.6995C152.744 95.7112 153 98.8022 153 101.953C153 107.552 152.193 112.962 150.688 118.074C145.727 134.933 133.182 148.544 117 154.96M117 154.96C120.687 145.21 123.468 136.055 125.36 127.289M75 154.96C58.8183 148.544 46.2731 134.933 41.3116 118.074C39.8072 112.962 39 107.552 39 101.953C39 98.8022 39.2556 95.7112 39.7472 92.6995C41.2465 83.5148 44.9409 75.0679 50.2741 67.9148C56.5492 59.4987 65.093 52.8738 75 48.9458M75 48.9458C72.2794 57.3388 69.962 64.9909 68.1264 72.1732M75 154.96C70.5891 144.747 67.5315 135.607 65.6551 126.945M50.2741 67.9148C56.7825 69.6348 62.6646 71.0528 68.1264 72.1732M141.726 67.9148C135.621 69.5449 130.072 70.9118 124.886 72.0114M39.7472 92.6995C48.5722 95.2282 56.3773 97.3354 63.5416 98.9932M152.253 92.6995C143.401 95.5144 135.577 97.7505 128.393 99.4363M41.3116 118.074C50.1157 121.78 58.1166 124.742 65.6551 126.945M150.688 118.074C141.487 122.004 133.166 125.07 125.36 127.289M96 75.3678C105.205 75.3899 114.287 74.2591 124.886 72.0114M96 75.3678C87.2836 75.3469 78.4568 74.2923 68.1264 72.1732M96 75.3678V103.411M124.886 72.0114C127.159 81.1488 128.336 90.1899 128.393 99.4363M68.1264 72.1732C65.6833 81.7323 64.0935 90.4592 63.5416 98.9932M63.5416 98.9932C75.5692 101.776 85.7908 103.293 96 103.411M63.5416 98.9932C62.942 108.265 63.5675 117.309 65.6551 126.945M96 103.411V131.688M96 103.411C106.212 103.529 116.411 102.248 128.393 99.4363M65.6551 126.945C76.3793 130.079 86.1675 131.675 96 131.688M96 131.688C105.455 131.7 114.951 130.247 125.36 127.289M125.36 127.289C127.445 117.625 128.449 108.434 128.393 99.4363" stroke="black" stroke-width="9"/>
<path d="M135 24L137.021 30.2188H143.56L138.269 34.0623L140.29 40.2812L135 36.4377L129.71 40.2812L131.731 34.0623L126.44 30.2188H132.979L135 24Z" stroke="white" stroke-width="6" stroke-linejoin="round"/>
<path d="M39 144L41.0206 150.219H47.5595L42.2694 154.062L44.2901 160.281L39 156.438L33.7099 160.281L35.7306 154.062L30.4405 150.219H36.9794L39 144Z" stroke="white" stroke-width="6" stroke-linejoin="round"/>
</svg>
