<svg width="64" height="64" viewBox="0 0 64 64" fill="none" xmlns="http://www.w3.org/2000/svg">
<rect width="64" height="64" rx="32" fill="black"/>
<g clip-path="url(#clip0_173_343)">
<path d="M58.5362 26.5677H56.1221V23.9558C56.1221 23.9558 52.7364 24.1553 47.1061 21.3268C41.4759 18.4984 36.7043 15.7124 32.4414 15.7124C28.1785 15.7124 24.3417 17.4647 20.7962 19.4165C17.2506 21.3682 12.1073 23.9176 8.02813 23.9176V26.5709H5.46409C4.07441 26.5748 2.74275 27.1154 1.75979 28.0746C0.776833 29.0338 0.222404 30.3338 0.217529 31.6908V32.422C0.22269 33.7788 0.777246 35.0785 1.76017 36.0375C2.7431 36.9965 4.0746 37.5369 5.46409 37.5408H8.02813V40.0381C8.02813 40.0381 11.4139 39.8386 17.043 42.6671C22.6722 45.4955 27.4449 48.2836 31.7078 48.2836C35.9707 48.2836 39.8053 46.5303 43.3541 44.5785C46.9029 42.6267 52.0429 40.088 56.1221 40.088V37.5408H58.5362C59.9264 37.5369 61.2586 36.9959 62.2416 36.036C63.2247 35.0761 63.7787 33.7753 63.7828 32.4178V31.6865C63.7776 30.3297 63.223 29.03 62.2401 28.071C61.2572 27.112 59.9257 26.5716 58.5362 26.5677Z" fill="black" stroke="url(#paint0_linear_173_343)" stroke-width="0.0866363" stroke-miterlimit="10"/>
<path d="M26.1958 39.0664C26.374 39.0664 26.624 39.1386 26.9447 39.2861L27.0023 39.2957H27.111C27.187 39.2957 27.2707 39.2299 27.3599 39.1014H27.3979V39.1173C27.3117 39.291 27.1874 39.4439 27.0338 39.5652L26.9849 39.5737C26.9251 39.5737 26.736 39.4676 26.4197 39.2447L26.3338 39.2267H26.3142L26.2958 39.2447V39.2617C26.3088 39.7103 26.3244 39.9349 26.3425 39.9356L26.3914 39.9462L26.774 39.9537C26.8178 39.9137 26.8707 39.8846 26.9284 39.8688C26.9479 39.8741 26.9566 39.89 26.9566 39.9197V40.0375L26.9381 40.1564H26.9186L26.8512 40.063L26.8131 40.0556H26.4066C26.3436 40.0556 26.3099 40.0917 26.3099 40.1617C26.2914 40.4737 26.2816 40.7656 26.2816 41.0405V41.0914C26.2816 41.2368 26.2914 41.3101 26.3099 41.3101C26.4686 41.3196 26.6958 41.326 26.9903 41.326H27.1936C27.3411 41.3004 27.4776 41.2328 27.5859 41.1318H27.5946C27.6229 41.1318 27.6403 41.171 27.6435 41.2517C27.6435 41.3854 27.5414 41.4544 27.337 41.4544L27.2881 41.4618L27.0012 41.4364L26.0316 41.4459C25.8784 41.4459 25.8012 41.4342 25.8012 41.4119C25.9106 41.3822 25.9653 41.2188 25.9653 40.9216L25.9936 40.4568L26.0034 39.3593L25.9936 39.2161H25.9719C25.9015 39.2393 25.8362 39.2753 25.7795 39.3222L25.7512 39.3137V39.2882C25.7512 39.2256 25.8523 39.1534 26.0566 39.0685L26.1958 39.0664Z" fill="url(#paint1_linear_173_343)"/>
<path d="M28.61 40.2117C28.6198 40.2117 28.6252 40.2265 28.6252 40.2584C28.6013 40.3825 28.5763 40.4441 28.5535 40.4441C28.538 40.4654 28.5177 40.483 28.4941 40.4955C28.4706 40.508 28.4444 40.5151 28.4176 40.5163C28.2916 40.4846 28.1735 40.4278 28.0709 40.3496L28.0339 40.3412C27.9622 40.3412 27.9046 40.39 27.8611 40.4919L27.8546 40.5492C27.8546 40.6288 27.8796 40.6702 27.9263 40.6702C27.9263 40.6765 27.9416 40.6808 27.9687 40.6861H28.0557C28.1549 40.6841 28.2537 40.6716 28.3502 40.6489H28.3752C28.4403 40.6485 28.5033 40.6716 28.552 40.7137C28.6008 40.7558 28.6319 40.814 28.6394 40.8771L28.6448 40.9525C28.6448 41.1775 28.5578 41.3261 28.3807 41.4014C28.2742 41.4282 28.1645 41.4411 28.0546 41.4396C27.8894 41.3887 27.8057 41.3494 27.8057 41.3229C27.7658 41.278 27.7391 41.2233 27.7285 41.1647C27.7539 41.1054 27.8001 41.0568 27.8589 41.0278L27.8926 41.014H27.9013C27.9079 41.014 27.9111 41.014 27.9111 41.0278C27.8897 41.076 27.8793 41.1282 27.8807 41.1807C27.9057 41.3123 27.9448 41.377 27.9981 41.377C28.0292 41.3875 28.0619 41.3933 28.0948 41.394H28.1046C28.1578 41.398 28.2109 41.3856 28.2565 41.3585C28.3022 41.3315 28.338 41.2912 28.3589 41.2433C28.4023 41.1794 28.4305 41.1069 28.4415 41.031L28.4513 40.9397V40.8782C28.453 40.8394 28.4421 40.8012 28.4203 40.7688C28.3984 40.7364 28.3667 40.7115 28.3296 40.6978H28.297C28.1909 40.7126 28.0891 40.7487 27.9981 40.8039L27.9176 40.8219C27.8817 40.8194 27.8472 40.807 27.8182 40.7861C27.7891 40.7653 27.7667 40.7369 27.7535 40.7041L27.7383 40.6373C27.7499 40.5537 27.7853 40.475 27.8405 40.4101C27.883 40.3785 27.9223 40.343 27.9579 40.304H27.9057C27.8485 40.3092 27.7957 40.3363 27.7589 40.3794H27.7492C27.7691 40.3335 27.8048 40.2959 27.8503 40.2732C27.8897 40.2589 27.9311 40.2507 27.9731 40.2488C28.1099 40.2627 28.2427 40.302 28.3644 40.3645H28.4046H28.4296C28.5383 40.3443 28.5915 40.3008 28.5915 40.2318L28.61 40.2117Z" fill="url(#paint2_linear_173_343)"/>
<path d="M29.4284 40.2063H29.4588H29.7414L29.7708 40.2212L29.7632 40.2986V40.4515L29.7447 40.4653C29.7069 40.4211 29.6731 40.3739 29.6436 40.3241C29.5964 40.2856 29.5376 40.2632 29.4762 40.2604H29.3936C29.3577 40.2774 29.3393 40.3209 29.3393 40.3942C29.3327 40.4451 29.3273 40.6393 29.3208 40.9779C29.3208 41.2464 29.3382 41.3801 29.361 41.3801C29.3765 41.3949 29.3887 41.4126 29.3969 41.4321C29.3969 41.4438 29.336 41.4502 29.2153 41.4502H29.2023C29.1088 41.4502 29.0621 41.4438 29.0621 41.4321C29.098 41.3914 29.1207 41.3411 29.1273 41.2878V40.8633V40.7253V40.6308L29.1371 40.3358C29.1164 40.2933 29.0947 40.2742 29.0697 40.2742H28.9751C28.9355 40.2704 28.8957 40.2793 28.8618 40.2996C28.8278 40.3199 28.8016 40.3505 28.7871 40.3867C28.7638 40.4212 28.7465 40.4592 28.736 40.4992H28.7273C28.7132 40.4992 28.7034 40.4589 28.6958 40.3782C28.6958 40.2721 28.7067 40.2265 28.7306 40.2265C28.7306 40.218 28.9632 40.2127 29.4284 40.2063Z" fill="url(#paint3_linear_173_343)"/>
<path d="M30.273 41.0242C30.3339 41.0242 30.3991 41.0889 30.4719 41.2195C30.4719 41.316 30.3904 41.3893 30.223 41.4392C30.123 41.413 30.073 41.3705 30.073 41.3118C30.0744 41.2514 30.0929 41.1925 30.1265 41.1417C30.16 41.0909 30.2074 41.0503 30.2632 41.0242H30.273Z" fill="#F0C938"/>
<path d="M32.2764 39.0398H32.484C32.5128 39.0411 32.5409 39.0489 32.5662 39.0625C32.5915 39.0761 32.6132 39.0952 32.6296 39.1183C32.6046 39.2909 32.5941 39.4652 32.5981 39.6394C32.5981 40.7867 32.6362 41.362 32.7068 41.362L32.7688 41.414V41.432L32.7362 41.4405L32.646 41.432L32.5525 41.448H32.2851L32.2025 41.466C32.196 41.448 32.1764 41.4405 32.1427 41.4405L32.0492 41.448C32.0155 41.4416 31.9971 41.432 31.9971 41.4225V41.414C32.1275 41.3503 32.1916 41.2866 32.1916 41.223L32.2025 39.597L32.1916 39.5705H32.171L31.9449 39.614C31.8398 39.5921 31.7435 39.5409 31.6677 39.4665V39.4569C31.6677 39.4431 31.7579 39.424 31.9351 39.3964C32.034 39.3667 32.1394 39.2542 32.2536 39.0578L32.2764 39.0398Z" fill="url(#paint4_linear_173_343)"/>
<path d="M34.4348 39.0731C34.5163 39.0661 34.5982 39.0825 34.6703 39.1202C34.7425 39.1579 34.8019 39.2153 34.8413 39.2854V39.3193C34.8413 39.4785 34.6391 39.7439 34.2304 40.1153L34.2206 40.1238V40.1503C34.2206 40.1748 34.338 40.3053 34.5706 40.5441C34.7147 40.7159 34.8232 40.9135 34.8902 41.1257C34.826 41.3539 34.6956 41.4685 34.5011 41.4685L34.338 41.477C34.1479 41.4547 33.9671 41.3836 33.8141 41.2711C33.5293 41.0504 33.387 40.9113 33.387 40.8519V40.8349C33.387 40.6746 33.4957 40.4719 33.7272 40.2268V40.1939C33.6835 40.0749 33.6543 39.9512 33.6402 39.8256C33.6545 39.6307 33.7366 39.4465 33.8728 39.3034C34.0278 39.1664 34.2261 39.0852 34.4348 39.0731ZM33.6098 40.82C33.6054 40.9006 33.625 40.9807 33.6663 41.0506C33.7076 41.1205 33.7688 41.1772 33.8424 41.2138C33.9559 41.3162 34.1041 41.3741 34.2587 41.3762C34.4761 41.3762 34.5956 41.3348 34.6184 41.2563C34.6184 41.1745 34.4348 40.9644 34.0663 40.6195C34.0128 40.5276 33.9356 40.4512 33.8424 40.3976C33.7711 40.444 33.7126 40.5068 33.672 40.5804C33.6314 40.6541 33.6101 40.7364 33.6098 40.82ZM33.8619 39.5358V39.6048C33.8934 39.7299 33.9528 39.8466 34.0359 39.9466H34.0663C34.4543 39.6282 34.6467 39.4212 34.6467 39.3098V39.2832C34.6467 39.2291 34.5902 39.1835 34.4728 39.1463H34.3271C34.1956 39.1463 34.0435 39.2525 33.8728 39.4711L33.8619 39.5358Z" fill="url(#paint5_linear_173_343)"/>
<path d="M36.4999 39.0806C36.5185 39.108 36.5286 39.14 36.5293 39.1729C36.474 39.3941 36.3916 39.6079 36.2836 39.8097L35.6597 40.8031C35.614 40.9004 35.5776 41.0017 35.5511 41.1056V41.1725C35.5511 41.2329 35.6087 41.3083 35.725 41.3996C35.725 41.4229 35.6565 41.4346 35.5184 41.4346H35.2728L35.1185 41.4505C35.1185 41.4388 35.1087 41.4346 35.0891 41.4346L35.0782 41.4261V41.4081C35.1045 41.3842 35.1361 41.3667 35.1706 41.3571C35.1706 40.9552 35.3482 40.5208 35.7032 40.0538C35.951 39.694 36.0826 39.4011 36.1032 39.1793L36.0608 39.1612C35.75 39.1612 35.5554 39.1941 35.4782 39.2674C35.438 39.2981 35.4163 39.3257 35.4163 39.3523V39.3682C35.4136 39.4324 35.437 39.4951 35.4814 39.5426C35.5257 39.5901 35.5875 39.6185 35.6532 39.6218L35.725 39.6112L35.7347 39.6218V39.6378C35.7347 39.7004 35.6913 39.7439 35.6011 39.7715L35.5087 39.78C35.3837 39.78 35.2674 39.7014 35.1609 39.5444L35.1511 39.486C35.2109 39.2323 35.3685 39.1071 35.6108 39.1071L36.4999 39.0806Z" fill="url(#paint6_linear_173_343)"/>
<path d="M37.2588 39.061C37.6407 39.061 37.8689 39.187 37.9436 39.4389L37.9555 39.5333C37.9555 39.648 37.8197 39.7934 37.549 39.9717C37.6368 40.0214 37.7297 40.0619 37.8262 40.0926C38.0173 40.2118 38.1582 40.3941 38.2229 40.6063L38.2544 40.7125C38.2544 41.0171 38.0914 41.2537 37.7631 41.4257L37.6544 41.4437C37.1664 41.4437 36.8849 41.3195 36.8077 41.0744L36.7969 41.0054C36.7952 40.9678 36.8071 40.9308 36.8306 40.9009C36.854 40.871 36.8875 40.8501 36.9251 40.842L36.9903 40.8335L37.099 40.8504L37.1675 40.8313L37.2316 40.8483V40.8664C37.2316 40.8759 37.1925 40.9003 37.1142 40.9428C37.0851 41.0077 37.0702 41.0778 37.0708 41.1487C37.118 41.2108 37.1797 41.2611 37.2508 41.2954C37.3218 41.3297 37.4002 41.3471 37.4794 41.3461L37.5958 41.3546C37.6876 41.3633 37.7792 41.3369 37.8514 41.2808C37.9237 41.2248 37.9707 41.1435 37.9827 41.0542C38.0148 40.9843 38.029 40.9078 38.024 40.8313C38.024 40.6912 37.936 40.5395 37.7566 40.376C37.5311 40.257 37.2989 40.1507 37.061 40.0576V40.0322C37.061 40.0088 37.1762 39.9823 37.4034 39.9547C37.5675 39.9112 37.6501 39.788 37.6501 39.5853C37.6501 39.4516 37.5396 39.3402 37.3186 39.251H37.136C37.0859 39.2483 37.0368 39.2646 36.9987 39.2964C36.9606 39.3282 36.9366 39.3732 36.9316 39.4219V39.4516C36.9396 39.4635 36.9509 39.473 36.9642 39.479C36.9774 39.485 36.9921 39.4873 37.0066 39.4856L37.224 39.476V39.5025C37.2076 39.5239 37.1869 39.5416 37.1631 39.5548C37.1394 39.5679 37.1131 39.5762 37.086 39.579C36.8936 39.5397 36.7958 39.4612 36.7958 39.3465C36.7958 39.2319 36.9153 39.1491 37.149 39.0642L37.2588 39.061Z" fill="url(#paint7_linear_173_343)"/>
<path d="M58.2197 27.382H30.6456C30.6967 27.264 30.7551 27.1491 30.8206 27.0381C31.0053 26.7376 31.1586 26.4197 31.2782 26.0893C31.3651 25.8547 31.413 25.3888 31.6108 25.2168C31.6294 25.2533 31.6373 25.2941 31.6336 25.3346C31.6336 25.4769 31.6336 25.6191 31.6336 25.7592C31.6173 26.1042 31.7061 26.4463 31.889 26.742C32.2466 27.3363 32.9531 27.2302 33.4259 26.8301C33.6836 26.6147 33.8852 26.3426 34.014 26.0362C34.0759 25.8897 34.1227 25.8802 34.3009 25.9099C34.3817 25.9241 34.4634 25.9327 34.5455 25.9354C34.9059 25.9611 35.2683 25.9361 35.6215 25.8611C35.7837 25.8301 35.9365 25.7635 36.0684 25.6662C36.2002 25.5689 36.3076 25.4435 36.3824 25.2996C36.4729 25.1322 36.503 24.9399 36.4679 24.7537C36.4328 24.5675 36.3345 24.3983 36.1889 24.2733C35.7911 23.9337 35.352 23.6079 34.9444 23.2969C34.8009 23.1908 34.6498 23.0846 34.5096 22.9785C34.4737 22.952 34.2314 22.7874 34.4411 22.7885C34.8444 22.7885 35.2737 22.8384 35.678 22.8681C36.0425 22.9095 36.4117 22.881 36.765 22.7843C37.3378 22.5964 37.4845 22.0562 37.2595 21.5446C37.0921 21.1625 36.7921 20.8908 36.4541 20.6563C36.3595 20.5905 36.3595 20.5332 36.3878 20.4355C36.4813 20.1086 36.59 19.7849 36.5791 19.4379C36.5595 18.8308 36.2726 18.4827 35.7367 18.3097C35.3748 18.194 34.9183 18.1675 34.5879 18.3723C34.2118 18.6069 33.8346 18.9911 33.5357 19.3137C33.203 19.6501 32.8898 20.0044 32.5977 20.375C32.4347 20.5947 32.4673 19.8444 32.4695 19.7627C32.4749 19.4368 32.4858 19.1121 32.4847 18.7873C32.4847 18.2747 32.5586 17.5848 32.1227 17.2048C31.8097 16.9321 31.4043 16.9353 31.0423 17.104C30.663 17.2952 30.3466 17.5869 30.1293 17.9457C30.1114 17.9846 30.0789 18.0153 30.0384 18.0315C29.998 18.0477 29.9527 18.0481 29.9119 18.0327C29.4206 17.9202 28.8435 17.7949 28.3707 18.0327C28.1881 18.1324 28.0378 18.2802 27.937 18.4592C27.8361 18.6382 27.7887 18.8412 27.8001 19.0452C27.812 19.7733 28.5609 20.2816 29.0435 20.7539C29.1804 20.8866 29.3272 21.0076 29.4783 21.1265C29.6098 21.2326 29.7359 21.3387 29.8652 21.4502C29.8805 21.463 29.8919 21.4797 29.898 21.4984C29.9041 21.5172 29.9048 21.5372 29.9 21.5563C29.8826 21.6508 28.8131 21.6136 28.6968 21.6285C28.2316 21.6868 27.7533 21.6677 27.2957 21.7802C26.7425 21.9161 26.3534 22.26 26.4675 22.8416C26.5315 23.0912 26.6672 23.3176 26.8588 23.4943C27.0371 23.6794 27.2504 23.829 27.487 23.9347C27.5957 23.9825 27.6979 24.0409 27.6566 24.1895C27.5603 24.5425 27.5417 24.9115 27.6022 25.272C27.699 25.8759 28.0968 26.1275 28.65 26.1689C29.2554 26.2145 29.6283 25.8727 30.063 25.5098C30.3684 25.2508 30.6804 24.9982 30.9608 24.7127C30.9736 24.6931 30.9913 24.677 31.0122 24.6659C31.0331 24.6547 31.0566 24.6489 31.0804 24.649C31.1325 24.649 31.1543 24.6639 31.1391 24.7169C31.0012 25.244 30.7375 25.7317 30.3695 26.1402C30.1071 26.4202 29.8095 26.6666 29.4837 26.8736C29.3543 26.9564 29.0315 27.1856 28.7228 27.382H5.7182C4.46815 27.3856 3.27036 27.872 2.38634 28.735C1.50232 29.598 1.00389 30.7675 0.999878 31.9881V32.0826C1.00332 33.3036 1.5015 34.4736 2.38558 35.3371C3.26966 36.2005 4.46778 36.6873 5.7182 36.6909H58.2164C59.4664 36.687 60.6641 36.2003 61.5479 35.3371C62.4318 34.4739 62.9299 33.3043 62.9336 32.0837V31.9892C62.9302 30.769 62.4326 29.5998 61.5494 28.7366C60.6662 27.8734 59.4692 27.3864 58.2197 27.382Z" fill="url(#paint8_linear_173_343)"/>
<path d="M5.65423 29.3799H5.77487L6.86179 29.399L6.97918 29.4552L6.95092 29.7938L6.9694 30.4508L6.90092 30.507H6.88245C6.73435 30.3185 6.60376 30.1175 6.49224 29.9063C6.36398 29.7673 6.14769 29.6739 5.84552 29.6219H5.51945C5.38395 29.6969 5.31583 29.8911 5.31511 30.2045C5.29192 30.4288 5.26946 31.2691 5.24772 32.7252C5.25859 33.8863 5.31185 34.469 5.40206 34.469C5.4627 34.5357 5.50891 34.6136 5.53793 34.6982C5.53793 34.746 5.30641 34.7725 4.83795 34.7725H4.78795C4.42492 34.7725 4.24449 34.746 4.24449 34.6982V34.6759C4.41514 34.4255 4.49774 34.2206 4.49774 34.0561L4.51731 32.2147V31.614L4.49774 31.199L4.53253 29.9254C4.45644 29.746 4.36949 29.6601 4.27819 29.6601H3.90755C3.74908 29.6498 3.59178 29.6927 3.46171 29.7817C3.33164 29.8707 3.2366 30.0004 3.19235 30.1493C3.09341 30.3006 3.02241 30.4676 2.98258 30.6429H2.9478C2.89454 30.6429 2.85758 30.4677 2.82715 30.1122C2.82715 29.6717 2.8728 29.4552 2.96301 29.4552C2.96301 29.4329 3.85972 29.4107 5.65423 29.3799Z" fill="black"/>
<path d="M10.7017 29.3799C10.9028 29.4213 11.0006 29.4584 11.0006 29.4924V29.5295C10.8919 29.6123 10.8343 29.6717 10.8343 29.7015L10.8158 29.814L10.8343 29.9254C10.7365 30.2502 10.6832 31.8528 10.6832 34.7279V34.7821C10.6832 34.9943 10.7778 35.3127 10.9626 35.7373V35.7553L10.906 35.7744C10.6317 35.5336 10.4048 35.2459 10.2365 34.9253C10.1609 34.633 10.1161 34.334 10.1028 34.0328V33.1105L10.1593 31.77H10.1408L8.60828 31.8114L8.64633 32.6371L8.59416 34.2514C8.59976 34.3223 8.62091 34.3913 8.65617 34.4535C8.69142 34.5158 8.73996 34.5699 8.7985 34.6122V34.6303L7.84418 34.7651C7.44745 34.746 7.24637 34.7088 7.24637 34.6494V34.6303C7.24637 34.6006 7.29203 34.5825 7.37898 34.5751C7.59636 34.5751 7.69745 34.003 7.69745 32.8642L7.71158 31.6395L7.6931 30.0379H7.67353C7.27681 30.0379 7.07573 29.9923 7.07573 29.9105L7.05725 29.8925V29.832H7.33659C7.4355 29.832 7.66266 29.694 8.01048 29.4181L8.22786 29.4361H8.47025L8.59959 29.4552V29.4924C8.54163 29.5413 8.50315 29.6085 8.4909 29.6824V29.7758C8.4909 30.0942 8.52459 30.6461 8.58546 31.4495H10.1604C10.2245 31.4495 10.255 30.9634 10.255 30.0008C10.255 29.7885 10.2137 29.6452 10.1224 29.5762C10.1224 29.5133 10.3155 29.4478 10.7017 29.3799Z" fill="black"/>
<path d="M12.2496 29.2567C12.6539 29.2567 13.218 29.4212 13.9452 29.7576L14.0734 29.7799H14.3114C14.4864 29.7799 14.6756 29.6303 14.8756 29.3352H14.9625V29.3692C14.8538 29.6611 14.5767 30.0007 14.1375 30.3923L14.0288 30.4114C13.8933 30.4114 13.4669 30.1613 12.7495 29.6611L12.5572 29.6197H12.5115L12.4702 29.6611V29.6982C12.5006 30.7256 12.5343 31.2403 12.5789 31.2403L12.6876 31.2626L13.5571 31.2817C13.731 31.1512 13.8484 31.0875 13.9049 31.0875C13.9615 31.0875 13.9691 31.1363 13.9691 31.2032V31.4717L13.9278 31.7445H13.8821L13.731 31.5322L13.6441 31.5131H12.7354C12.5919 31.5131 12.518 31.5948 12.518 31.7636C12.4767 32.4768 12.4539 33.1433 12.4539 33.7727V33.8883C12.4539 34.2205 12.4767 34.3882 12.518 34.3882C12.8778 34.4105 13.3876 34.4254 14.0582 34.4254H14.5169C14.781 34.3999 15.0766 34.2503 15.406 33.9817H15.4244C15.4886 33.9817 15.5266 34.0709 15.5331 34.2545C15.5331 34.5602 15.3027 34.7172 14.8408 34.7172L14.7321 34.7353L14.0799 34.6758L11.8887 34.6981C11.5409 34.6981 11.367 34.6727 11.367 34.6196C11.6159 34.5527 11.7376 34.1791 11.7376 33.4999L11.8017 32.4386L11.8246 29.9285L11.8017 29.6006H11.7333C11.68 29.6006 11.5365 29.6749 11.2985 29.8319L11.2344 29.8128V29.7534C11.2344 29.6112 11.4659 29.4467 11.9267 29.2524L12.2496 29.2567Z" fill="black"/>
<path d="M19.7688 29.302C20.1438 29.3614 20.4047 29.4697 20.5557 29.6268C20.8818 29.9452 21.1046 30.4068 21.222 31.0192C21.2993 31.3842 21.3397 31.7557 21.3427 32.1283C21.3427 32.5391 21.234 33.0835 20.9992 33.767C20.7866 34.1436 20.4633 34.4493 20.071 34.6448C19.8141 34.7103 19.5495 34.7428 19.284 34.7413H19.1862C18.6069 34.6352 18.3167 34.5514 18.3167 34.4728C18.0229 34.2197 17.8243 33.8778 17.7526 33.5017L17.5711 32.5688C17.5694 31.9108 17.6905 31.258 17.9287 30.6425C18.4243 29.7934 18.9623 29.3805 19.5406 29.3805L19.7688 29.302ZM18.4362 32.5656V32.7375C18.4362 33.715 18.5123 34.2043 18.6602 34.2043C18.6602 34.3051 18.8417 34.4028 19.2036 34.4919H19.3058C19.8286 34.4919 20.1231 34.3858 20.1916 34.1863C20.434 34.0069 20.5547 33.4614 20.5547 32.5433L20.5742 31.8598C20.4829 30.7242 20.4036 30.1617 20.3318 30.1617C20.2481 29.8666 20.1275 29.7212 19.9677 29.7212C19.9389 29.6946 19.9046 29.6741 19.8672 29.6611C19.8298 29.6481 19.7899 29.6429 19.7503 29.6459H19.5873C19.133 29.752 18.9025 29.8581 18.9025 29.9897C18.8112 30.0831 18.6852 30.3888 18.5384 30.9046C18.4721 31.067 18.4362 31.6168 18.4362 32.5656Z" fill="black"/>
<path d="M22.7168 29.332H22.7733L22.807 29.3692V29.4063C22.7418 29.4948 22.6547 29.5657 22.5538 29.6122C22.5045 29.6122 22.4567 30.3141 22.4103 31.7179C22.4103 33.4691 22.452 34.3454 22.5353 34.3468C22.8226 34.3924 23.1138 34.4113 23.4048 34.4031C24.1613 34.4031 24.7428 34.2662 25.1493 33.9923H25.1678C25.208 34.0667 25.2264 34.1504 25.2211 34.2343V34.3097C25.2211 34.5485 25.0243 34.6684 24.6233 34.6684L22.4994 34.7236L21.682 34.6865C21.5614 34.679 21.5005 34.6419 21.5005 34.5803C21.682 34.4232 21.7733 34.2959 21.7733 34.2067L21.8266 30.1811C21.8266 29.8521 21.7429 29.625 21.5723 29.505C21.5386 29.505 21.5081 29.4785 21.4821 29.4307V29.3936L21.5907 29.3745L22.6233 29.3936L22.7168 29.332Z" fill="black"/>
<path d="M25.4983 29.2409H26.3113C26.508 29.2409 26.6026 29.3162 26.6026 29.4722V30.0549H26.6406C26.6895 30.0549 26.9471 29.8723 27.4167 29.5136C27.5928 29.3888 27.8016 29.3152 28.0188 29.3013C28.321 29.3013 28.6503 29.4468 29.0057 29.745C29.472 30.3022 29.7025 31.0186 29.7025 31.8995C29.7025 32.946 29.4188 33.8063 28.8514 34.4806C28.6078 34.6687 28.3065 34.7711 27.996 34.7715C27.7156 34.7715 27.2917 34.6144 26.7167 34.3045H26.6602V34.5592L26.6787 34.5772C26.6787 34.66 26.6221 34.712 26.5047 34.7343C26.145 34.7343 25.9613 34.6855 25.9613 34.5963V34.5772L25.9428 33.8608C25.8039 33.7663 25.6844 33.6472 25.5906 33.5095V33.4533L25.708 33.3333L25.7265 33.3567H25.9798L25.9993 33.2591L25.9613 30.8318L25.9798 30.212C25.8211 29.6516 25.6211 29.3756 25.3787 29.3756L25.3591 29.3565V29.3194C25.3706 29.2934 25.3903 29.2718 25.4154 29.2577C25.4405 29.2435 25.4695 29.2376 25.4983 29.2409ZM26.5852 30.4253L26.6037 31.5928V31.6119L26.5624 33.6284C26.5624 33.9415 26.695 34.14 26.9526 34.2291C27.2852 34.4085 27.5504 34.5019 27.7471 34.5019H27.8232C28.2395 34.5019 28.5905 33.9012 28.871 32.6976C28.9254 32.3639 28.957 32.0271 28.9655 31.6893V31.3954C28.9655 31.1268 28.8786 30.7586 28.6971 30.2682C28.4242 29.8012 28.1786 29.5699 27.959 29.5699H27.8199C27.5417 29.5996 27.1286 29.8872 26.5841 30.4295L26.5852 30.4253Z" fill="black"/>
<path d="M33.1838 29.3691C33.2159 29.3714 33.247 29.381 33.2746 29.3973C33.3021 29.4135 33.3254 29.4359 33.3424 29.4625L33.0848 29.7937C33.0538 29.9535 33.0414 30.1162 33.0479 30.2787V30.335L33.0055 32.2804V32.8599C33.0055 33.9424 33.0479 34.4879 33.1272 34.4879C33.3011 34.6747 33.3837 34.801 33.3837 34.8615H33.3631C33.1457 34.7225 33.0001 34.6556 32.9435 34.6556H32.5642C32.4146 34.6599 32.2671 34.6916 32.1294 34.749C32.0957 34.749 32.062 34.7151 32.0316 34.6556C32.1794 34.5134 32.249 34.42 32.249 34.3754C32.2903 34.0549 32.337 33.0951 32.3892 31.496C32.3892 30.2713 32.3283 29.6631 32.2077 29.6631C32.1489 29.6351 32.1008 29.5893 32.0707 29.5326C32.0707 29.4265 32.3968 29.3829 33.049 29.3829L33.1838 29.3691Z" fill="black"/>
<path d="M33.4565 29.3691C33.5381 29.5007 33.643 29.6172 33.7663 29.713H34.2239C34.3565 29.713 34.7163 29.6345 35.3032 29.4848C35.5375 29.4394 35.7753 29.4134 36.014 29.4073C36.4988 29.4073 36.8836 29.6982 37.1651 30.284C37.2017 30.4143 37.2196 30.549 37.2183 30.6841V30.9898C37.2183 31.3305 37.014 31.6552 36.5977 31.9609C36.4407 32.0409 36.2757 32.105 36.1053 32.152V32.1891C36.4314 32.5404 36.5977 33.0031 36.5977 33.5784C36.6466 33.8098 36.7151 34.4147 36.7977 35.389C36.9064 35.7329 37.0097 35.9048 37.0933 35.9048H37.1673C37.2879 35.8709 37.3488 35.7732 37.3488 35.6172V35.561C37.3279 35.463 37.284 35.371 37.2205 35.2924L37.3488 35.2542C37.5662 35.2542 37.6748 35.3858 37.6748 35.6543C37.6748 35.8337 37.5238 35.9908 37.2173 36.1319L37.0542 36.1511C36.5771 36.1511 36.2934 35.8443 36.214 35.2362V35.0791L36.2858 34.0178V33.5932C36.2858 32.9168 36.0423 32.4923 35.5554 32.3196L35.2825 32.204H35.1021C34.8478 32.204 34.7195 32.2347 34.7195 32.3016V33.9997C34.7499 34.1271 34.9086 34.3319 35.1967 34.6089V34.6461H35.2108C35.2084 34.6725 35.1958 34.6971 35.1757 34.715C35.1556 34.7329 35.1293 34.7428 35.1021 34.7427L34.901 34.6832L33.6793 34.7204C33.6065 34.6949 33.5706 34.6684 33.5706 34.6461C33.6925 34.512 33.8339 34.3962 33.9902 34.3022C34.0429 34.2281 34.0799 34.1443 34.0989 34.056V33.3502L34.1674 31.1734C34.1521 30.4602 34.1108 30.1057 34.0424 30.1057L33.638 30.1237C33.556 30.084 33.4879 30.0213 33.4426 29.9436C33.3973 29.8659 33.3768 29.7767 33.3837 29.6875H33.363C33.3956 29.4753 33.4261 29.3691 33.4565 29.3691ZM34.788 29.8255L34.7358 31.4271L34.7543 31.8643C34.8793 31.928 35.1097 31.9609 35.4467 31.9609H35.814C36.1401 31.9609 36.4118 31.6478 36.6347 31.028L36.6727 30.6841C36.6727 30.1874 36.4912 29.8436 36.1238 29.6568L36.0151 29.6345H35.613C35.2499 29.6302 34.9771 29.6939 34.788 29.8213V29.8255Z" fill="black"/>
<path d="M38.7976 29.3691C38.8296 29.3716 38.8607 29.3813 38.8882 29.3975C38.9158 29.4137 38.9391 29.436 38.9563 29.4625L38.7008 29.7937C38.6686 29.9533 38.6559 30.1161 38.6628 30.2787V30.335L38.6215 32.2804V32.8599C38.6215 33.9424 38.6628 34.4879 38.7421 34.4879C38.9171 34.6747 38.9997 34.801 38.9997 34.8615H38.9813C38.7574 34.7225 38.6182 34.6556 38.5606 34.6556H38.1824C38.0327 34.6599 37.8853 34.6916 37.7476 34.749C37.7139 34.749 37.6802 34.7151 37.6498 34.6556C37.7965 34.5134 37.8672 34.42 37.8672 34.3754C37.9085 34.0549 37.9548 33.0951 38.0063 31.496C38.0063 30.2713 37.9465 29.6631 37.8248 29.6631C37.7665 29.6348 37.7189 29.589 37.6889 29.5326C37.6889 29.4265 38.015 29.3829 38.6671 29.3829L38.7976 29.3691Z" fill="black"/>
<path d="M43.0366 29.178C43.0823 29.178 43.1018 29.2459 43.1018 29.3839C42.9931 29.9443 42.8899 30.2245 42.791 30.2245C42.7232 30.3189 42.634 30.3968 42.5303 30.4521C42.4266 30.5073 42.3112 30.5384 42.1932 30.5429C41.9551 30.5429 41.4519 30.2924 40.6834 29.7999L40.528 29.7628H40.5095C40.1911 29.7628 39.9378 29.9867 39.7487 30.4346L39.7258 30.6925C39.7258 31.0512 39.8345 31.2338 40.0356 31.2338C40.0356 31.2635 40.0965 31.29 40.2139 31.3081H40.5921C41.0259 31.3 41.4572 31.2437 41.8779 31.1404H41.9866C42.5736 31.1404 42.9594 31.48 43.1409 32.1678L43.1638 32.5031C43.1638 33.5114 42.7823 34.18 42.0095 34.5197C41.5396 34.6371 41.0552 34.6896 40.5704 34.6757C39.8476 34.4517 39.4835 34.2798 39.4835 34.1535C39.34 34.0113 39.2302 33.7757 39.1498 33.4435C39.3019 33.1378 39.4943 32.9319 39.7258 32.8311L39.8617 32.7748H39.903C39.9335 32.7748 39.9487 32.7939 39.9487 32.8311C39.8566 33.0486 39.8114 33.2824 39.8161 33.5178C39.9248 34.1004 40.0921 34.3955 40.3269 34.3955C40.4613 34.4453 40.6038 34.4709 40.7476 34.4708H40.7932C41.3301 34.4708 41.6964 34.2458 41.9008 33.798C42.0301 33.6494 42.1508 33.3395 42.2573 32.8682L42.2986 32.4575V32.1773C42.3064 32.0064 42.2595 31.8373 42.1644 31.6935C42.0694 31.5498 41.9309 31.4384 41.7682 31.3749H41.6367C41.3714 31.3749 40.9323 31.5352 40.3269 31.86L39.9715 31.9353C39.6911 31.9353 39.453 31.7591 39.2596 31.4121L39.1954 31.1138C39.29 30.6203 39.4378 30.2807 39.6389 30.0897C39.9791 29.8031 40.1497 29.646 40.1497 29.6237H39.9258C39.7258 29.6237 39.5096 29.7299 39.2824 29.9591H39.2378V29.9411C39.3262 29.7395 39.4838 29.5744 39.6835 29.4741C39.8548 29.4208 40.0316 29.3856 40.2106 29.369C40.5813 29.369 41.1486 29.541 41.9203 29.8923L42.0986 29.9114H42.2073C42.6844 29.8211 42.9181 29.6237 42.9181 29.3138L43.0366 29.178Z" fill="black"/>
<path d="M46.9627 29.3799C47.1627 29.4213 47.2616 29.4584 47.2616 29.4924V29.5295C47.1529 29.6123 47.0953 29.6717 47.0953 29.7015L47.0758 29.814L47.0953 29.9254C46.9968 30.2502 46.946 31.851 46.9431 34.7279V34.7821C46.9431 34.9943 47.0377 35.3127 47.2236 35.7373V35.7553L47.1671 35.7744C46.8924 35.5336 46.6651 35.2459 46.4964 34.9253C46.4209 34.6306 46.3769 34.329 46.3649 34.0253V33.103L46.4214 31.7626H46.4062L44.8737 31.804L44.9117 32.6297L44.8541 34.2514C44.8602 34.3219 44.8816 34.3903 44.9168 34.4522C44.952 34.514 45.0003 34.5679 45.0584 34.6101V34.6282L44.1052 34.763C43.7074 34.7439 43.5074 34.7067 43.5074 34.6473V34.6282C43.5074 34.5985 43.552 34.5804 43.64 34.573C43.8519 34.573 43.9574 34.0009 43.9574 32.8621L43.9759 31.6373L43.9574 30.0358H43.9389C43.5411 30.0358 43.34 29.9901 43.34 29.9084L43.3215 29.8904V29.8299H43.602C43.6998 29.8299 43.928 29.6919 44.2758 29.416L44.4987 29.434H44.741L44.8693 29.4531V29.4903C44.8113 29.5392 44.7729 29.6064 44.7606 29.6802V29.7736C44.7606 30.092 44.7954 30.6439 44.8552 31.4474H46.4225C46.4866 31.4474 46.5171 30.9613 46.5171 29.9986C46.5171 29.7864 46.4747 29.6431 46.3845 29.5741C46.3834 29.5115 46.5758 29.4478 46.9627 29.3799Z" fill="black"/>
<path d="M51.8104 29.3691C52.056 29.3691 52.3285 29.5011 52.6278 29.765C52.7525 29.8847 52.851 30.0279 52.9174 30.1859C52.9837 30.3439 53.0164 30.5134 53.0136 30.6841V30.7404C53.0136 31.0163 52.893 31.3485 52.643 31.737C52.5028 31.9015 52.2267 32.0363 51.8104 32.1477L51.6821 32.1668H51.3756C51.1307 32.1565 50.8878 32.1187 50.6517 32.0543H50.6376L50.618 32.1106L50.5724 34.2131C50.5724 34.385 50.6746 34.5155 50.8756 34.6089L50.8941 34.627V34.6652L50.8115 34.6832H50.268C49.9691 34.6949 49.8148 34.7204 49.8028 34.7575C49.7685 34.7423 49.7406 34.7161 49.7235 34.6832V34.6652C49.7235 34.6344 49.7844 34.5941 49.8974 34.5336C50.0061 34.4275 50.0604 34.0783 50.0604 33.4807C50.0833 33.2685 50.1017 32.1594 50.1246 30.1577L50.0757 30.0824H49.867C49.7889 30.0882 49.7109 30.0697 49.6442 30.0294C49.5776 29.9892 49.5258 29.9293 49.4963 29.8584L49.417 29.4254L49.4322 29.4073H49.4811C49.6822 29.5782 49.8333 29.6684 49.9311 29.6684H50.1398C50.8713 29.4625 51.4321 29.3691 51.8104 29.3691ZM50.6376 31.6956C50.9017 31.8718 51.0724 31.9609 51.1517 31.9609H51.2158C51.8745 31.9609 52.2528 31.7221 52.3549 31.2477C52.4083 31.0965 52.4352 30.9375 52.4343 30.7775C52.4343 30.1832 52.2647 29.7873 51.9202 29.5941L51.7615 29.575H51.568C50.9782 29.6946 50.6829 29.8326 50.6822 29.989L50.6376 31.6956Z" fill="black"/>
<path d="M56.9417 29.3691C57.0334 29.3781 57.1198 29.4153 57.1884 29.4753C57.0371 29.5615 56.8995 29.6688 56.7797 29.7937C56.7602 32.2061 56.708 33.4118 56.6167 33.4118C56.2982 34.2937 55.7613 34.7374 55.0124 34.7374H54.8081C54.3233 34.7374 53.9095 34.4699 53.5668 33.935C53.4938 33.8346 53.4444 33.7197 53.4222 33.5986L53.4831 31.6606V30.4114C53.4831 30.041 53.369 29.7533 53.1385 29.5517C53.1385 29.5145 53.5733 29.4774 54.4429 29.4402L54.5037 29.4211C54.5711 29.4211 54.6211 29.4625 54.6472 29.5517C54.6472 29.5814 54.5602 29.6642 54.382 29.7947L54.3635 29.9253C54.3099 30.8847 54.2682 31.979 54.2385 33.208C54.2385 33.8618 54.3972 34.2417 54.7081 34.3468L54.8515 34.3659H54.9309C55.583 34.3659 56.0319 34.0295 56.2743 33.3576C56.396 33.0138 56.4558 32.0915 56.4558 30.5982C56.4558 29.9263 56.4026 29.591 56.2939 29.591C56.2429 29.5755 56.1996 29.5422 56.1721 29.4976V29.4753C56.1721 29.4116 56.4297 29.3819 56.9439 29.3819L56.9417 29.3691Z" fill="black"/>
<path d="M57.071 29.1969C58.5775 29.1969 59.4593 29.2676 59.7166 29.4091C60.1818 29.6479 60.4122 30.0067 60.4122 30.4843C60.4122 30.7836 60.272 31.0935 59.985 31.4066V31.4257C60.4426 31.6379 60.7567 31.9075 60.9274 32.2514C61.0937 32.5273 61.173 32.7555 61.173 32.9349V33.2289C61.173 33.8943 60.6437 34.3613 59.5796 34.6224C59.5796 34.6641 58.7825 34.6963 57.1884 34.719L56.8938 34.6224V34.5248C56.8938 34.1703 56.9243 33.9941 56.984 33.9941H57.0069C57.0482 33.9941 57.0938 34.0832 57.1427 34.2668C57.1946 34.3104 57.2549 34.3434 57.3201 34.3638C57.3852 34.3842 57.4539 34.3917 57.5221 34.3857H57.571V34.3677L57.5221 31.6082L57.5482 29.8422L57.5221 29.4686L57.4992 29.4495H57.4351C57.3058 29.4495 57.158 29.5917 56.984 29.8825H56.9199C56.8743 29.8719 56.8514 29.8199 56.8514 29.7265V29.6479C56.8514 29.3454 56.9199 29.1958 57.0558 29.1958L57.071 29.1969ZM58.3275 29.4749L58.3047 29.4972V29.5163L58.259 31.0839C58.259 31.3683 58.3047 31.5084 58.3949 31.5084C58.9383 31.5084 59.2698 31.449 59.4057 31.3333C59.5814 31.1371 59.683 30.888 59.6937 30.6275C59.6937 29.9907 59.4764 29.6118 59.0416 29.4919L58.3231 29.4505L58.3275 29.4749ZM58.3275 31.7717L58.3047 33.9262V34.4154C59.2166 34.3931 59.6709 34.3146 59.6709 34.1798C59.8524 34.1798 59.997 33.8179 60.1176 33.1004V32.9444C59.9959 32.1336 59.735 31.7303 59.334 31.7303L58.3275 31.7717Z" fill="black"/>
</g>
<defs>
<linearGradient id="paint0_linear_173_343" x1="0.000145402" y1="31.9996" x2="64.0001" y2="31.9996" gradientUnits="userSpaceOnUse">
<stop offset="0.01" stop-color="#FFEF99"/>
<stop offset="0.3" stop-color="#E9B943"/>
<stop offset="0.7" stop-color="#FFEF99"/>
<stop offset="1" stop-color="#FFD23B"/>
</linearGradient>
<linearGradient id="paint1_linear_173_343" x1="25.7458" y1="40.2657" x2="27.6446" y2="40.2657" gradientUnits="userSpaceOnUse">
<stop offset="0.01" stop-color="#FFEF99"/>
<stop offset="0.3" stop-color="#E9B943"/>
<stop offset="0.7" stop-color="#FFEF99"/>
<stop offset="1" stop-color="#FFD23B"/>
</linearGradient>
<linearGradient id="paint2_linear_173_343" x1="27.7198" y1="40.8262" x2="28.6404" y2="40.8262" gradientUnits="userSpaceOnUse">
<stop offset="0.01" stop-color="#FFEF99"/>
<stop offset="0.3" stop-color="#E9B943"/>
<stop offset="0.7" stop-color="#FFEF99"/>
<stop offset="1" stop-color="#FFD23B"/>
</linearGradient>
<linearGradient id="paint3_linear_173_343" x1="28.6958" y1="40.8304" x2="29.7708" y2="40.8304" gradientUnits="userSpaceOnUse">
<stop offset="0.01" stop-color="#FFEF99"/>
<stop offset="0.3" stop-color="#E9B943"/>
<stop offset="0.7" stop-color="#FFEF99"/>
<stop offset="1" stop-color="#FFD23B"/>
</linearGradient>
<linearGradient id="paint4_linear_173_343" x1="31.6742" y1="40.2529" x2="32.7753" y2="40.2529" gradientUnits="userSpaceOnUse">
<stop offset="0.01" stop-color="#FFEF99"/>
<stop offset="0.3" stop-color="#E9B943"/>
<stop offset="0.7" stop-color="#FFEF99"/>
<stop offset="1" stop-color="#FFD23B"/>
</linearGradient>
<linearGradient id="paint5_linear_173_343" x1="33.387" y1="40.2766" x2="34.8902" y2="40.2766" gradientUnits="userSpaceOnUse">
<stop offset="0.01" stop-color="#FFEF99"/>
<stop offset="0.3" stop-color="#E9B943"/>
<stop offset="0.7" stop-color="#FFEF99"/>
<stop offset="1" stop-color="#FFD23B"/>
</linearGradient>
<linearGradient id="paint6_linear_173_343" x1="35.075" y1="40.2661" x2="36.5293" y2="40.2661" gradientUnits="userSpaceOnUse">
<stop offset="0.01" stop-color="#FFEF99"/>
<stop offset="0.3" stop-color="#E9B943"/>
<stop offset="0.7" stop-color="#FFEF99"/>
<stop offset="1" stop-color="#FFD23B"/>
</linearGradient>
<linearGradient id="paint7_linear_173_343" x1="36.7871" y1="40.2508" x2="38.2544" y2="40.2508" gradientUnits="userSpaceOnUse">
<stop offset="0.01" stop-color="#FFEF99"/>
<stop offset="0.3" stop-color="#E9B943"/>
<stop offset="0.7" stop-color="#FFEF99"/>
<stop offset="1" stop-color="#FFD23B"/>
</linearGradient>
<linearGradient id="paint8_linear_173_343" x1="0.999878" y1="26.8386" x2="62.9369" y2="26.8386" gradientUnits="userSpaceOnUse">
<stop offset="0.01" stop-color="#FFEF99"/>
<stop offset="0.3" stop-color="#E9B943"/>
<stop offset="0.7" stop-color="#FFEF99"/>
<stop offset="1" stop-color="#FFD23B"/>
</linearGradient>
<clipPath id="clip0_173_343">
<rect width="64" height="33" fill="white" transform="translate(0 15.5)"/>
</clipPath>
</defs>
</svg>
