<svg width="44" height="45" viewBox="0 0 44 45" fill="none" xmlns="http://www.w3.org/2000/svg">
<g filter="url(#filter0_d_558_4183)">
<path d="M3.43604 12.8C3.43604 8.38173 7.01776 4.8 11.436 4.8H27.436C31.8543 4.8 35.436 8.38173 35.436 12.8V28.8C35.436 33.2183 31.8543 36.8 27.436 36.8H11.436C7.01776 36.8 3.43604 33.2183 3.43604 28.8V12.8Z" fill="white"/>
<path d="M12.5244 2.82034C13.1648 2.76824 14.0041 2.82395 14.642 2.90042C14.8419 2.92414 14.7407 3.03015 14.8787 3.0513C15.1486 3.09252 15.4001 3.04052 15.6668 3.08963C15.7552 3.10642 15.6452 3.27435 15.7379 3.28811C16.2458 3.36233 16.7263 3.31956 17.2408 3.35525C19.7753 3.53137 22.2666 3.59441 24.832 3.67093C25.6319 3.69465 26.5949 3.83222 27.436 3.79075C27.4907 3.78837 27.5448 3.78588 27.5984 3.7832C27.7134 3.77764 27.6486 3.62891 27.6709 3.61724C28.0268 3.4434 27.8996 3.73702 28.1197 3.79093C28.9943 4.00907 29.929 4.24431 30.7373 4.50915C31.08 4.62367 30.859 4.21246 31.1331 4.51017C31.1516 4.53062 31.0043 4.63621 31.0876 4.69178C31.2762 4.81512 31.664 4.98359 31.8075 5.08206C32.0827 5.26983 32.1297 5.29789 32.3898 5.47298C32.7449 5.71672 33.0938 6.09205 33.4496 6.37863C33.5264 6.4401 33.5416 6.2331 33.6754 6.3231C33.811 6.41209 34.0939 6.72822 34.1572 6.8609C34.2223 6.99238 34.0868 7.0295 34.0813 7.06712C34.0282 7.373 34.5787 7.53457 34.623 7.58595C35.4048 8.42902 35.6599 9.42571 35.943 10.4295C36.1592 11.1932 36.3308 12.0362 36.3209 12.8C36.3209 12.8057 36.3208 12.8114 36.3207 12.817C36.3097 13.6393 36.2228 14.3363 36.2377 15.1351C36.2391 15.2194 36.4278 15.1206 36.4299 15.2236C36.4518 16.3176 36.4312 17.404 36.3039 18.4933C36.2909 18.6025 36.1253 18.4617 36.1025 18.5709C35.9663 19.2391 35.6393 20.2964 36.3605 20.6932C36.3324 21.1459 36.3033 21.6954 36.1579 22.1003C36.0643 22.3614 35.8839 22.1078 35.9609 22.4286C35.978 22.5009 36.1361 22.4068 36.1498 22.5153C36.2077 22.972 36.1563 23.471 36.238 23.9228C36.2549 24.0147 36.3965 23.9896 36.422 24.0157C36.6286 24.2345 36.2872 24.5988 36.2624 24.6782C36.0774 25.283 36.1502 25.7246 36.1457 26.288C36.1446 26.4187 36.3348 26.2642 36.3405 26.39C36.3678 27.0424 36.3514 27.7183 36.267 28.3572C36.2478 28.4993 36.0858 28.3686 36.0683 28.4365C36.0262 28.6042 36.1037 28.6988 36.1684 28.8C36.2191 28.887 36.2613 28.9807 36.2274 29.1183C36.2114 29.1841 36.0742 29.1412 36.0585 29.1526C35.8125 29.3248 36.1373 29.506 36.1404 29.5572C36.1837 30.1865 35.7637 30.5124 35.6642 31.0766C35.6515 31.1458 35.8639 31.0395 35.8163 31.2331C35.5001 32.5257 34.7252 33.7794 33.7392 34.6273C33.5863 34.7593 33.5885 34.564 33.5678 34.5624C33.247 34.5327 33.3976 34.86 33.3582 34.9164C33.0465 35.3467 32.5013 35.4117 32.4488 35.943C30.9418 36.8736 29.2016 37.5398 27.436 37.4031C27.0356 37.3701 26.6354 37.3214 26.2355 37.2496C26.2098 37.2454 26.2559 37.0779 26.2045 37.0702C25.5864 36.9761 25.7051 37.2365 25.2961 37.5551C25.1931 37.635 24.8797 37.2505 24.852 37.2223C24.7509 37.1184 24.8557 36.8691 24.8219 36.849C24.5419 36.691 24.5875 37.5155 24.2099 37.5158C24.1981 37.5144 24.2477 37.3626 24.216 37.3475C24.1175 37.3002 24.0199 37.3605 23.9235 37.3082C23.7029 37.1874 23.6244 36.7868 23.2875 37.0199C23.2449 37.0502 23.31 37.5178 22.9728 37.4957C22.8384 37.4865 22.2434 37.4945 22.0766 37.4642C21.91 37.434 22.0244 37.2833 22.0125 37.2767C21.5637 37.0775 21.7339 36.9949 21.5091 36.6998C21.2842 36.4059 21.3466 37.1069 21.2549 37.1852C21.1631 37.2632 20.8341 37.0988 20.7532 37.0416C20.6724 36.9844 20.7732 36.8887 20.7013 36.8563C20.2248 36.6449 20.4922 37.2043 20.3352 37.3156C19.965 37.579 19.6767 37.0591 19.3379 37.0082C19.2462 36.9944 19.321 37.1128 19.2393 37.1239C18.916 37.1662 18.7215 37.004 18.3536 37.1527C18.2934 37.177 17.996 37.4895 17.8035 37.2601C17.7762 37.2271 17.8537 37.0975 17.7159 37.0685C17.51 37.0249 17.1391 36.9966 16.9178 37.0399C16.7544 37.072 16.9417 37.2854 16.736 37.2191C16.6446 37.1895 16.814 37.0646 16.6423 37.0194C16.4715 36.9742 16.0347 36.9797 15.8686 36.984C15.7027 36.9884 15.7935 37.1504 15.7801 37.1613C15.6989 37.2238 15.3806 37.3018 15.3525 37.3016C13.9996 37.3205 12.7471 37.0733 11.436 37.1285C11.369 37.1312 11.3018 37.1338 11.2346 37.1364C11.1216 37.1402 11.1916 37.3129 11.1743 37.3153C10.7786 37.3703 11.1054 36.9314 10.8537 36.7639C10.8673 37.1116 10.7153 37.0416 10.441 37.0476C10.3088 37.05 10.3623 37.1917 10.3488 37.2039C10.124 37.3805 10.0245 37.0956 10.0011 37.0371C9.90949 36.8204 9.72957 37.0227 9.6703 36.8742C9.61516 36.7273 9.84591 36.5799 9.60241 36.5269C9.50362 36.6308 9.61726 36.9913 9.41084 36.9957C8.60259 37.033 7.37598 36.1965 6.91196 35.8293C6.42457 35.4762 6.26361 35.365 6.02459 35.1067C5.60945 34.6278 5.62003 34.959 5.25605 34.7511C4.89654 34.5301 5.47055 34.2747 5.52562 34.1478C5.58464 34.0235 5.44867 34.0676 5.45818 33.9718C5.46887 33.8772 5.62486 33.9261 5.54692 33.7948C5.46914 33.6678 5.03895 33.4781 4.89836 33.5063C4.60103 33.5725 4.47111 33.9109 4.31055 33.4881C4.30204 33.4639 4.47609 33.4455 4.43728 33.3577C4.12761 32.6662 3.80545 31.9616 3.688 31.2295C3.67253 31.1295 3.86424 31.1637 3.85759 31.1059C3.80227 30.5056 3.58159 30.7916 3.18806 30.5246C3.62783 30.5084 3.83769 30.2781 3.77962 29.8471C3.74798 29.5853 3.56735 29.6513 3.41863 29.487C3.37354 29.4366 3.49004 29.2342 3.40042 29.2039C3.10777 29.0997 2.78334 29.3041 2.90543 28.8C2.90548 28.7998 2.90554 28.7996 2.90559 28.7994C2.90775 28.7922 2.92886 28.7956 2.95571 28.8C2.99102 28.8062 3.03627 28.8139 3.06139 28.8C3.07134 28.7948 3.07814 28.7863 3.0799 28.7733C3.14276 28.3137 2.83975 28.2587 2.80305 27.762C2.77426 27.3726 2.95903 26.6801 2.98908 26.2368C3.47418 26.2461 3.3631 25.8273 3.02864 25.6575C3.04233 25.3698 3.02342 25.059 3.06965 24.7809C3.08541 24.6852 3.22586 24.7481 3.24104 24.736C3.4791 24.5509 3.1537 24.4258 3.14094 24.3637C3.01693 23.6906 3.26356 23.1422 3.02253 22.4998C3.01385 22.477 2.67689 22.4401 2.92292 22.2684C2.93988 22.2573 3.0932 22.4694 3.10505 22.1673C3.11693 21.865 3.29757 21.2953 3.14143 20.8757C3.10384 20.7742 2.83029 20.5173 3.04402 20.3112C3.07304 20.2837 3.16968 20.3138 3.22346 20.2742C3.39482 20.146 3.05423 20.076 3.34358 19.9254C3.63291 19.7748 3.8496 19.4615 3.64997 19.0384C3.64417 19.0249 3.37422 18.9247 3.37849 18.7917C3.38553 18.5792 3.44177 18.2777 3.44001 18.0559C3.43907 17.9497 3.27145 18.0176 3.26838 17.9992C3.17445 17.2851 3.32389 16.7769 3.38874 16.012C3.40096 15.8717 3.17238 15.4687 3.3531 15.1973C3.55093 14.8992 4.37386 15.2055 4.1778 14.5203C4.09938 14.244 3.05534 13.8941 3.59626 13.3974C3.56817 13.1956 3.55812 12.9969 3.55804 12.8C3.55985 12.0601 3.79066 11.3948 3.84821 10.6359C3.85124 10.5935 3.61089 10.3782 3.64778 10.278C3.70227 10.1316 3.85918 10.0978 3.90511 9.9994C4.10174 9.58998 4.17495 9.16224 4.41124 8.78469C4.50144 8.64274 4.59216 8.76459 4.70183 8.60147C4.81213 8.44115 4.73169 8.22493 4.96357 8.05844C5.14082 7.93294 5.55903 8.01336 5.75627 7.85385C5.48098 7.602 5.6022 7.46766 5.76196 7.16571C5.79302 7.10743 5.65289 7.06366 5.66306 7.03115C5.70391 6.89546 5.86146 6.89401 5.89842 6.761C5.90773 6.7287 5.82279 6.63339 5.82609 6.60131C5.85269 6.321 6.30148 6.326 6.37454 6.33399C6.66087 6.35176 6.64173 6.16134 6.82099 6.12727C6.99787 6.09659 6.85081 6.31032 7.03156 6.24215C7.40311 6.10271 7.81921 5.84519 8.17759 5.68934C8.31967 5.62665 8.15356 5.51483 8.17221 5.50226C8.45846 5.32594 8.82558 5.38687 8.8953 5.00782C9.37789 5.77747 9.05774 4.85921 9.57454 4.91166C9.61553 4.9168 9.74984 5.31122 9.63315 5.40169C9.51836 5.49182 9.28398 5.4208 9.13337 5.56878C9.09413 5.60351 8.98798 6.05137 8.96915 6.08456C8.79937 6.34453 8.53248 5.7879 8.50425 5.76189C8.20583 5.48603 8.0883 6.00528 8.03522 6.06642C7.76769 6.35095 7.45825 6.43789 7.25767 6.68944C7.12739 6.8543 7.3535 7.19347 7.22951 7.27118C6.83031 7.53027 6.295 7.2518 6.31298 7.93761C6.32033 8.08461 6.71277 8.30641 6.22333 8.33494C6.19412 8.33375 5.77401 8.33878 5.84176 8.58687C5.85053 8.61756 5.95439 8.69476 5.94837 8.72102C5.90713 8.89497 5.75934 8.92627 5.70202 9.10496C5.64517 9.28362 5.60112 9.50256 5.46825 9.66095C5.38847 9.75497 5.10196 9.79385 5.02229 9.82596C4.79303 9.91511 4.97915 10.1957 4.74934 10.2201C4.5159 10.2527 4.30203 9.92451 4.06869 10.1716C4.3814 10.2957 4.69841 10.4344 5.01245 10.5609C4.80552 11.1184 4.57699 11.6857 4.54765 12.2997C4.54467 12.3753 4.73006 12.3109 4.73203 12.3906C4.73575 12.5328 4.71585 12.6645 4.69705 12.8C4.67161 13.0157 4.64142 13.2309 4.67096 13.4676C4.71138 13.7859 4.90277 14.1348 4.95099 14.4676C4.56623 14.6708 4.69685 15.1646 4.66169 15.5233C4.64954 15.649 4.54677 15.6406 4.51325 15.7299C4.38926 16.067 4.72927 15.9091 4.78278 16.0015C5.01115 16.398 4.24155 16.432 4.26057 16.8994C4.26131 16.9242 4.67154 17.2269 4.69709 17.2686C4.86367 17.5336 4.5543 17.3125 4.52399 17.4783C4.4686 17.781 4.37063 17.9914 4.49079 18.3466C4.52638 18.4502 4.78207 18.6986 4.58429 18.8998C4.5584 18.9262 4.4228 18.9116 4.41486 18.9329C4.28249 19.3184 4.70855 19.3285 4.85285 19.5488C4.99711 19.7692 4.703 20.1094 4.61823 20.1787C4.39894 20.3599 4.52451 20.0399 4.503 20.0301C4.2469 19.9148 4.29099 20.163 4.26935 20.3526C3.8516 20.3801 3.87667 20.6453 4.2486 20.5492C4.28923 20.5383 4.25027 20.3907 4.26935 20.3526C4.67923 20.5191 4.73172 20.8105 4.3487 21.1324C4.16918 21.2831 3.95987 21.1407 4.03644 21.5984C4.07101 21.8061 4.35866 21.7259 4.43708 21.9092C4.61601 22.328 4.34768 22.8723 4.38996 23.3041C4.40531 23.4608 4.56276 23.3081 4.57868 23.4152C4.62141 23.6995 4.50327 23.9501 4.56379 24.2356C4.56947 24.2614 4.73429 24.1982 4.73639 24.287C4.75554 24.96 4.64996 25.5459 4.64704 26.2486C4.6457 26.588 4.7366 27.195 4.71833 27.5467C4.69856 27.9391 4.59213 28.3898 4.5344 28.8C4.50242 28.9975 4.49396 29.1845 4.52715 29.344C4.58967 29.6332 4.75009 29.5516 4.87555 29.6576C5.11623 29.8522 4.81651 30.321 4.7751 30.3979C4.77279 30.4009 4.68059 30.1632 4.62684 30.3131C4.47214 30.4298 4.77392 30.3959 4.7751 30.3979C4.74117 30.443 4.84185 30.9396 4.90899 31.0229C4.94285 31.0686 5.08066 30.9889 5.0954 31.013C5.44371 31.5843 5.77019 32.1204 6.09633 32.6921C6.10062 32.7034 5.94913 32.7922 5.96137 32.8178C6.13319 33.1792 6.46668 33.2337 6.77038 33.3648C7.07705 33.4962 7.22072 33.676 7.17761 34.0283C7.38525 34.1513 7.58726 34.4583 7.71819 34.6354C7.84947 34.8136 8.04896 34.5335 8.06638 34.5366C8.63407 34.6139 8.81562 34.9122 9.33909 35.1252C9.58526 35.2278 10.1102 35.3063 10.3965 35.3087C10.6213 35.3131 10.7487 35.4071 10.9598 35.3719C10.9882 35.3671 10.9706 35.2141 10.9795 35.2088C11.2149 35.0419 11.0872 35.4044 11.132 35.4731C11.2317 35.6235 11.3153 35.7301 11.436 35.7647C11.5251 35.7869 11.6308 35.7797 11.772 35.7352C11.8548 35.7093 12.0961 35.1763 12.2471 35.1452C12.4434 35.1056 12.3694 35.2967 12.5749 35.2504C12.5925 35.2466 12.5888 35.1287 12.7157 35.1339C13.3046 35.1565 13.9467 35.2251 14.5587 35.2133C14.6423 35.2121 14.5351 35.0252 14.6559 35.0204C15.2226 34.9982 15.8438 35.0052 16.396 35.0927C16.5319 35.1148 16.4467 35.2457 16.4762 35.2846C16.6573 35.5197 16.9142 35.178 16.9566 35.1715C17.9675 35.0073 18.7412 35.3165 19.7716 35.1693C19.8277 35.1607 20.2594 34.7944 20.452 35.1085C20.4652 35.1294 20.6558 35.4508 20.8243 35.2311C20.8347 35.2173 20.716 35.0519 20.9232 35.0687C21.1304 35.0856 21.464 34.9751 21.7488 35.1569C21.839 35.2141 22.0521 35.5348 22.3211 35.2792C22.3387 35.2613 22.754 34.6834 22.9022 35.0822C22.9262 35.1478 22.9011 35.5697 23.2221 35.3534C23.2835 35.3115 23.1721 35.2174 23.3337 35.1586C23.5813 35.068 23.9094 35.181 24.2138 34.9931C24.2669 34.9598 24.4928 34.6734 24.6741 34.8908C24.7025 34.9248 24.6486 35.0657 24.7443 35.0814C25.1995 35.1571 25.6761 35.0628 26.1383 35.1603C26.302 35.1945 26.2183 35.4223 26.3889 35.4833C26.5596 35.5443 26.9034 35.603 27.082 35.4989C27.2606 35.3948 27.0655 35.0319 27.3331 35.0028C27.3674 34.9991 27.4017 34.9957 27.436 34.9925C28.3023 34.8895 29.1872 34.9091 30.0235 34.569C30.1488 34.5166 29.9936 34.4468 30.1693 34.3593C30.8411 34.0474 31.7131 33.1813 32.3121 32.8487C32.8128 32.5773 32.5273 33.2078 32.8556 32.9357C33.0177 32.7952 32.7913 32.3754 32.8034 32.3323C32.9351 31.883 33.2429 31.6952 33.3538 31.2923C33.3752 31.2103 33.1859 31.2201 33.2049 31.1524C33.267 30.9227 33.4197 30.7105 33.4675 30.486C33.4882 30.3853 33.3571 30.3699 33.3894 30.2834C33.4642 30.0744 33.5549 29.8944 33.7074 29.6913C33.7214 29.6719 33.8629 29.8338 33.8927 29.663C33.9349 29.4124 34.0582 29.1037 33.9833 28.8C33.9757 28.7625 33.9662 28.7251 33.9545 28.688C33.917 28.5701 33.6185 28.5654 33.8246 28.3119C33.8677 28.2587 34.2262 28.3265 33.9164 28.0311C33.865 27.9815 33.4472 27.4852 33.7165 27.2417C33.7874 27.1775 34.0807 27.0135 34.0346 26.8716C34.0272 26.8524 33.8669 26.9295 33.8513 26.8119C33.7989 26.3976 33.816 25.9634 33.7658 25.5378C33.7521 25.4241 33.5861 25.5934 33.571 25.424C33.529 24.9582 33.5713 24.3766 33.6232 23.9211C33.6427 23.7531 33.7801 23.8692 33.7951 23.857C34.0384 23.6605 33.71 23.5443 33.6909 23.4791C33.5762 23.0734 33.7305 22.7645 33.6896 22.3906C33.6788 22.2874 33.5222 22.3606 33.5082 22.3401C33.3718 22.127 33.653 22.2857 33.684 22.1509C33.7718 21.7731 33.7592 21.352 33.7392 20.97C33.7316 20.8297 33.5501 20.9874 33.5453 20.8615C33.5141 20.1162 33.5314 19.3414 33.6315 18.614C33.6507 18.4771 33.7905 18.5632 33.8224 18.5347C34.0459 18.338 33.7411 18.0496 33.7121 17.9833C33.5796 17.6816 33.7032 17.5645 33.6801 17.298C33.5652 15.9967 33.6471 14.3898 33.6977 13.1614C33.7027 13.0389 33.708 12.9186 33.7137 12.8C33.7728 11.6767 33.6387 10.7011 33.0737 9.71462C33.0343 9.64756 32.9094 9.80576 32.8739 9.75062C32.426 9.04473 31.9258 8.35676 31.2232 7.88148C31.1663 7.84305 31.1367 8.04211 31.0435 7.98706C30.8519 7.8757 30.628 7.71583 30.4624 7.55586C30.3806 7.47776 30.5848 7.42009 30.4988 7.34331C30.2966 7.16409 30.0408 7.02687 29.7771 6.95201C29.6654 6.92119 29.7593 7.1518 29.6218 7.10037C28.9168 6.8453 28.1934 6.73257 27.436 6.64289C27.1101 6.61325 26.7827 6.57146 26.4531 6.5132C26.3625 6.49716 26.283 6.13066 26.0904 6.20095C26.0759 6.30266 26.0767 6.42231 26.0704 6.53102C24.1669 6.58959 22.2829 6.46253 20.3741 6.44289C20.2936 6.4421 20.4327 6.63629 20.2769 6.63576C19.3751 6.63289 18.4994 6.68669 17.5769 6.49367C17.4854 6.47479 17.5324 6.13317 17.2626 6.18483C17.2151 6.19426 16.8088 6.23982 16.7038 6.31398C16.6896 6.32517 16.7637 6.48463 16.6328 6.48928C15.8721 6.51349 15.0749 6.47709 14.3155 6.37966C14.193 6.36363 14.3235 6.19382 14.2362 6.18093C13.617 6.09079 12.9435 6.21987 12.3518 6.06569C11.9558 5.96188 12.1024 5.66835 11.892 5.37942C11.8622 5.33865 11.6169 5.33219 11.6043 5.16409C11.5717 4.74136 11.6905 4.27849 11.6417 3.82791C11.6315 3.73086 11.303 3.83539 11.4975 3.60086C11.5111 3.58516 11.7492 3.50732 11.8078 3.42776C11.8487 3.37276 11.7751 3.20179 11.8584 3.13138C11.9417 3.06103 12.0332 3.20434 12.1714 3.12161C12.3094 3.03786 12.2487 2.84337 12.5244 2.82034ZM8.36927 35.4022C8.4847 35.6344 8.74809 35.0965 8.50374 35.143C8.49167 35.1458 8.36343 35.3906 8.36927 35.4022ZM4.15827 11.616C3.85539 11.8409 4.22428 12.0668 4.44711 11.9111C4.67025 11.7666 4.25012 11.5524 4.15827 11.616ZM4.90974 8.97192C4.56899 9.14814 5.29678 9.5872 5.30094 9.2315C5.30154 9.21122 4.92941 8.96233 4.90974 8.97192ZM12.8679 5.29714C12.8649 5.2892 12.6886 5.28146 12.6844 5.28933C12.5905 5.47931 12.9431 5.49466 12.8679 5.29714ZM6.5857 6.72356C6.43289 6.69682 6.29635 6.98891 6.48477 7.01528C6.63246 7.03785 6.77094 6.75835 6.5857 6.72356ZM19.3287 36.7162C19.3321 36.7251 19.4585 36.7331 19.456 36.6827C19.4474 36.5205 19.2715 36.5663 19.3287 36.7162ZM11.0417 5.02546C10.343 5.03602 9.75379 4.43394 10.6084 4.40219C10.7595 4.40066 10.3084 4.65947 10.5062 4.70118C10.8533 4.77899 11.0641 4.32602 11.4295 4.5596C11.4888 4.60087 11.0763 5.02414 11.0405 5.0265C11.0409 5.02615 11.0413 5.0258 11.0417 5.02546ZM8.18027 36.1056C8.18071 36.115 8.33891 36.1916 8.34583 36.1855C8.50428 36.047 8.19415 35.8967 8.18027 36.1056ZM26.7036 37.0861C26.7133 37.1029 27.1193 37.1187 27.1326 37.1032C27.3444 36.7926 26.5235 36.7598 26.7036 37.0861ZM3.00202 26.2298C2.81098 26.0389 2.78848 25.8105 3.02839 25.6583C3.01566 25.8481 3.01378 26.039 3.00202 26.2298Z" fill="white"/>
<path d="M19.1027 11.4667H29.7694M8.43608 30.1333H12.4361M8.43608 11.4667H13.7694M17.7694 30.1333H29.7694M25.7694 20.8H29.7694M8.43608 20.8H20.4361" stroke="black" stroke-width="1.33333" stroke-linecap="round"/>
<path d="M13.7694 11.4667C13.7694 12.9394 14.9634 14.1333 16.4361 14.1333C17.9089 14.1333 19.1028 12.9394 19.1028 11.4667C19.1028 9.99391 17.9089 8.8 16.4361 8.8C14.9634 8.8 13.7694 9.99391 13.7694 11.4667Z" stroke="black" stroke-width="1.33333" stroke-linecap="round"/>
<path d="M20.4361 20.8C20.4361 22.2728 21.63 23.4667 23.1027 23.4667C24.5755 23.4667 25.7694 22.2728 25.7694 20.8C25.7694 19.3272 24.5755 18.1333 23.1027 18.1333C21.63 18.1333 20.4361 19.3272 20.4361 20.8Z" stroke="black" stroke-width="1.33333" stroke-linecap="round"/>
<path d="M12.4361 30.1333C12.4361 31.6061 13.63 32.8 15.1027 32.8C16.5755 32.8 17.7694 31.6061 17.7694 30.1333C17.7694 28.6606 16.5755 27.4667 15.1027 27.4667C13.63 27.4667 12.4361 28.6606 12.4361 30.1333Z" stroke="black" stroke-width="1.33333" stroke-linecap="round"/>
</g>
<defs>
<filter id="filter0_d_558_4183" x="4.86374e-05" y="2.86102e-06" width="43.2881" height="44.366" filterUnits="userSpaceOnUse" color-interpolation-filters="sRGB">
<feFlood flood-opacity="0" result="BackgroundImageFix"/>
<feColorMatrix in="SourceAlpha" type="matrix" values="0 0 0 0 0 0 0 0 0 0 0 0 0 0 0 0 0 0 127 0" result="hardAlpha"/>
<feOffset dx="2" dy="2"/>
<feGaussianBlur stdDeviation="2.4"/>
<feComposite in2="hardAlpha" operator="out"/>
<feColorMatrix type="matrix" values="0 0 0 0 0 0 0 0 0 0 0 0 0 0 0 0 0 0 0.05 0"/>
<feBlend mode="normal" in2="BackgroundImageFix" result="effect1_dropShadow_558_4183"/>
<feBlend mode="normal" in="SourceGraphic" in2="effect1_dropShadow_558_4183" result="shape"/>
</filter>
</defs>
</svg>
