<svg width="171" height="56" viewBox="0 0 171 56" fill="none" xmlns="http://www.w3.org/2000/svg">
<rect width="171" height="56" fill="#FF9401"/>
<path d="M62.3066 36V20.9219H64.5723C65.5814 20.9219 66.3854 21 66.9844 21.1562C67.5898 21.3125 68.1009 21.5762 68.5176 21.9473C68.9408 22.3314 69.276 22.8099 69.5234 23.3828C69.7773 23.9622 69.9043 24.5482 69.9043 25.1406C69.9043 26.2214 69.4909 27.1361 68.6641 27.8848C69.4648 28.1582 70.0964 28.6367 70.5586 29.3203C71.0273 29.9974 71.2617 30.7852 71.2617 31.6836C71.2617 32.862 70.8451 33.8581 70.0117 34.6719C69.5104 35.1732 68.9473 35.5215 68.3223 35.7168C67.6387 35.9056 66.7826 36 65.7539 36H62.3066ZM64.582 27.3965H65.2949C66.1413 27.3965 66.7598 27.2109 67.1504 26.8398C67.5475 26.4622 67.7461 25.9089 67.7461 25.1797C67.7461 24.4701 67.5443 23.9329 67.1406 23.5684C66.737 23.1973 66.151 23.0117 65.3828 23.0117H64.582V27.3965ZM64.582 33.8613H65.9883C67.0169 33.8613 67.7721 33.6595 68.2539 33.2559C68.7617 32.8197 69.0156 32.2663 69.0156 31.5957C69.0156 30.9447 68.7715 30.3978 68.2832 29.9551C67.8079 29.5189 66.9583 29.3008 65.7344 29.3008H64.582V33.8613ZM80.7344 26.4883H82.9414V36H80.7344V35.0039C79.8294 35.8503 78.8561 36.2734 77.8145 36.2734C76.4993 36.2734 75.4121 35.7982 74.5527 34.8477C73.6999 33.8776 73.2734 32.6667 73.2734 31.2148C73.2734 29.7891 73.6999 28.6009 74.5527 27.6504C75.4056 26.6999 76.4733 26.2246 77.7559 26.2246C78.8626 26.2246 79.8555 26.6803 80.7344 27.5918V26.4883ZM75.5195 31.2148C75.5195 32.1263 75.7637 32.8685 76.252 33.4414C76.7533 34.0208 77.3848 34.3105 78.1465 34.3105C78.9603 34.3105 79.6178 34.0306 80.1191 33.4707C80.6204 32.8913 80.8711 32.1556 80.8711 31.2637C80.8711 30.3717 80.6204 29.6361 80.1191 29.0566C79.6178 28.4902 78.9668 28.207 78.166 28.207C77.4108 28.207 76.7793 28.4935 76.2715 29.0664C75.7702 29.6458 75.5195 30.362 75.5195 31.2148ZM85.7148 26.4883H87.9121V27.3379C88.3158 26.9147 88.6738 26.625 88.9863 26.4688C89.3053 26.306 89.6829 26.2246 90.1191 26.2246C90.6986 26.2246 91.304 26.4134 91.9355 26.791L90.9297 28.8027C90.513 28.5033 90.1061 28.3535 89.709 28.3535C88.5111 28.3535 87.9121 29.2585 87.9121 31.0684V36H85.7148V26.4883ZM101.721 31.7617H94.9043C94.9629 32.543 95.2168 33.1647 95.666 33.627C96.1152 34.0827 96.6914 34.3105 97.3945 34.3105C97.9414 34.3105 98.3939 34.1803 98.752 33.9199C99.1035 33.6595 99.5039 33.1777 99.9531 32.4746L101.809 33.5098C101.522 33.998 101.219 34.418 100.9 34.7695C100.581 35.1146 100.24 35.401 99.875 35.6289C99.5104 35.8503 99.1165 36.013 98.6934 36.1172C98.2702 36.2214 97.8112 36.2734 97.3164 36.2734C95.8971 36.2734 94.7578 35.8177 93.8984 34.9062C93.0391 33.9883 92.6094 32.7708 92.6094 31.2539C92.6094 29.75 93.026 28.5326 93.8594 27.6016C94.6992 26.6836 95.8125 26.2246 97.1992 26.2246C98.599 26.2246 99.7057 26.6706 100.52 27.5625C101.327 28.4479 101.73 29.6751 101.73 31.2441L101.721 31.7617ZM99.4648 29.9648C99.1589 28.793 98.4199 28.207 97.248 28.207C96.9811 28.207 96.7305 28.2493 96.4961 28.334C96.2617 28.4121 96.0469 28.5293 95.8516 28.6855C95.6628 28.8353 95.5 29.0176 95.3633 29.2324C95.2266 29.4473 95.1224 29.6914 95.0508 29.9648H99.4648ZM104.133 26.4883H106.33V27.3379C106.734 26.9147 107.092 26.625 107.404 26.4688C107.723 26.306 108.101 26.2246 108.537 26.2246C109.117 26.2246 109.722 26.4134 110.354 26.791L109.348 28.8027C108.931 28.5033 108.524 28.3535 108.127 28.3535C106.929 28.3535 106.33 29.2585 106.33 31.0684V36H104.133V26.4883Z" fill="white"/>
</svg>
