<svg width="171" height="56" viewBox="0 0 171 56" fill="none" xmlns="http://www.w3.org/2000/svg">
<rect width="171" height="56" fill="#FF9401"/>
<path d="M67.127 23.0605H61.082V26.6836H66.9512V28.8223H61.082V33.8613H67.127V36H58.8066V20.9219H67.127V23.0605ZM70.877 26.4883L73.3379 31.8301L75.7891 26.4883H78.2598L73.3184 36.6543L68.416 26.4883H70.877ZM88.084 31.7617H81.2676C81.3262 32.543 81.5801 33.1647 82.0293 33.627C82.4785 34.0827 83.0547 34.3105 83.7578 34.3105C84.3047 34.3105 84.7572 34.1803 85.1152 33.9199C85.4668 33.6595 85.8672 33.1777 86.3164 32.4746L88.1719 33.5098C87.8854 33.998 87.5827 34.418 87.2637 34.7695C86.9447 35.1146 86.6029 35.401 86.2383 35.6289C85.8737 35.8503 85.4798 36.013 85.0566 36.1172C84.6335 36.2214 84.1745 36.2734 83.6797 36.2734C82.2604 36.2734 81.1211 35.8177 80.2617 34.9062C79.4023 33.9883 78.9727 32.7708 78.9727 31.2539C78.9727 29.75 79.3893 28.5326 80.2227 27.6016C81.0625 26.6836 82.1758 26.2246 83.5625 26.2246C84.9622 26.2246 86.069 26.6706 86.8828 27.5625C87.6901 28.4479 88.0938 29.6751 88.0938 31.2441L88.084 31.7617ZM85.8281 29.9648C85.5221 28.793 84.7832 28.207 83.6113 28.207C83.3444 28.207 83.0938 28.2493 82.8594 28.334C82.625 28.4121 82.4102 28.5293 82.2148 28.6855C82.026 28.8353 81.8633 29.0176 81.7266 29.2324C81.5898 29.4473 81.4857 29.6914 81.4141 29.9648H85.8281ZM90.4961 26.4883H92.7031V27.3672C93.4714 26.6055 94.3372 26.2246 95.3008 26.2246C96.4076 26.2246 97.2702 26.5729 97.8887 27.2695C98.4225 27.862 98.6895 28.8288 98.6895 30.1699V36H96.4824V30.6875C96.4824 29.75 96.3522 29.1022 96.0918 28.7441C95.8379 28.3796 95.3757 28.1973 94.7051 28.1973C93.9759 28.1973 93.4583 28.4382 93.1523 28.9199C92.8529 29.3952 92.7031 30.2253 92.7031 31.4102V36H90.4961V26.4883ZM103.738 28.5391V36H101.541V28.5391H100.604V26.4883H101.541V23.002H103.738V26.4883H105.447V28.5391H103.738ZM112.469 28.1094L110.652 29.0762C110.366 28.4902 110.011 28.1973 109.588 28.1973C109.386 28.1973 109.214 28.2656 109.07 28.4023C108.927 28.5326 108.855 28.7018 108.855 28.9102C108.855 29.2747 109.279 29.6361 110.125 29.9941C111.29 30.4954 112.075 30.9577 112.479 31.3809C112.882 31.804 113.084 32.3737 113.084 33.0898C113.084 34.0078 112.745 34.776 112.068 35.3945C111.411 35.9805 110.617 36.2734 109.686 36.2734C108.09 36.2734 106.961 35.4954 106.297 33.9395L108.172 33.0703C108.432 33.526 108.631 33.8158 108.768 33.9395C109.035 34.1868 109.354 34.3105 109.725 34.3105C110.467 34.3105 110.838 33.972 110.838 33.2949C110.838 32.9043 110.551 32.5397 109.979 32.2012C109.757 32.0905 109.536 31.9831 109.314 31.8789C109.093 31.7747 108.868 31.6673 108.641 31.5566C108.003 31.2441 107.553 30.9316 107.293 30.6191C106.961 30.222 106.795 29.7109 106.795 29.0859C106.795 28.2591 107.078 27.5755 107.645 27.0352C108.224 26.4948 108.927 26.2246 109.754 26.2246C110.971 26.2246 111.876 26.8529 112.469 28.1094Z" fill="white"/>
</svg>
