<svg width="330" height="64" viewBox="0 0 330 64" fill="none" xmlns="http://www.w3.org/2000/svg">
<rect width="330" height="64" rx="16" fill="white"/>
<path d="M50 24V40C50 45.5228 45.5228 50 40 50H24C18.4772 50 14 45.5228 14 40V24C14 18.4772 18.4772 14 24 14H40C45.5228 14 50 18.4772 50 24Z" stroke="black" stroke-width="3" stroke-linecap="round" stroke-linejoin="round"/>
<path d="M30 50C30 44 30.0001 38 30 32C30 27.625 31 24 38 24" stroke="black" stroke-width="3" stroke-linecap="round" stroke-linejoin="round"/>
<path d="M26 34H30H38" stroke="black" stroke-width="3" stroke-linecap="round" stroke-linejoin="round"/>
<path d="M73.3359 27.0605H68.082V30.6836H73.1504V32.8223H68.082V40H65.8066V24.9219H73.3359V27.0605ZM82.4375 30.4883H84.6445V40H82.4375V39.0039C81.5326 39.8503 80.5592 40.2734 79.5176 40.2734C78.2025 40.2734 77.1152 39.7982 76.2559 38.8477C75.403 37.8776 74.9766 36.6667 74.9766 35.2148C74.9766 33.7891 75.403 32.6009 76.2559 31.6504C77.1087 30.6999 78.1764 30.2246 79.459 30.2246C80.5658 30.2246 81.5586 30.6803 82.4375 31.5918V30.4883ZM77.2227 35.2148C77.2227 36.1263 77.4668 36.8685 77.9551 37.4414C78.4564 38.0208 79.0879 38.3105 79.8496 38.3105C80.6634 38.3105 81.321 38.0306 81.8223 37.4707C82.3236 36.8913 82.5742 36.1556 82.5742 35.2637C82.5742 34.3717 82.3236 33.6361 81.8223 33.0566C81.321 32.4902 80.6699 32.207 79.8691 32.207C79.1139 32.207 78.4824 32.4935 77.9746 33.0664C77.4733 33.6458 77.2227 34.362 77.2227 35.2148ZM94.8203 30.8984V33.8184C94.319 33.2064 93.8698 32.7865 93.4727 32.5586C93.082 32.3242 92.623 32.207 92.0957 32.207C91.2689 32.207 90.582 32.4967 90.0352 33.0762C89.4883 33.6556 89.2148 34.3815 89.2148 35.2539C89.2148 36.1458 89.4785 36.8783 90.0059 37.4512C90.5397 38.0241 91.2201 38.3105 92.0469 38.3105C92.5742 38.3105 93.0397 38.1966 93.4434 37.9688C93.834 37.7474 94.293 37.3177 94.8203 36.6797V39.5801C93.9284 40.0423 93.0365 40.2734 92.1445 40.2734C90.6732 40.2734 89.4427 39.7982 88.4531 38.8477C87.4635 37.8906 86.9688 36.7025 86.9688 35.2832C86.9688 33.8639 87.4701 32.666 88.4727 31.6895C89.4753 30.7129 90.7057 30.2246 92.1641 30.2246C93.1016 30.2246 93.987 30.4492 94.8203 30.8984ZM105.611 35.7617H98.7949C98.8535 36.543 99.1074 37.1647 99.5566 37.627C100.006 38.0827 100.582 38.3105 101.285 38.3105C101.832 38.3105 102.285 38.1803 102.643 37.9199C102.994 37.6595 103.395 37.1777 103.844 36.4746L105.699 37.5098C105.413 37.998 105.11 38.418 104.791 38.7695C104.472 39.1146 104.13 39.401 103.766 39.6289C103.401 39.8503 103.007 40.013 102.584 40.1172C102.161 40.2214 101.702 40.2734 101.207 40.2734C99.7878 40.2734 98.6484 39.8177 97.7891 38.9062C96.9297 37.9883 96.5 36.7708 96.5 35.2539C96.5 33.75 96.9167 32.5326 97.75 31.6016C98.5898 30.6836 99.7031 30.2246 101.09 30.2246C102.49 30.2246 103.596 30.6706 104.41 31.5625C105.217 32.4479 105.621 33.6751 105.621 35.2441L105.611 35.7617ZM103.355 33.9648C103.049 32.793 102.311 32.207 101.139 32.207C100.872 32.207 100.621 32.2493 100.387 32.334C100.152 32.4121 99.9375 32.5293 99.7422 32.6855C99.5534 32.8353 99.3906 33.0176 99.2539 33.2324C99.1172 33.4473 99.013 33.6914 98.9414 33.9648H103.355ZM110.221 23.5059V31.5918C111.1 30.6803 112.096 30.2246 113.209 30.2246C114.492 30.2246 115.559 30.7031 116.412 31.6602C117.265 32.6107 117.691 33.7956 117.691 35.2148C117.691 36.6797 117.262 37.8906 116.402 38.8477C115.549 39.7982 114.472 40.2734 113.17 40.2734C112.07 40.2734 111.087 39.8503 110.221 39.0039V40H108.023V23.5059H110.221ZM115.445 35.3125C115.445 34.401 115.198 33.6589 114.703 33.0859C114.202 32.5 113.574 32.207 112.818 32.207C112.011 32.207 111.354 32.4902 110.846 33.0566C110.344 33.6165 110.094 34.3457 110.094 35.2441C110.094 36.1686 110.341 36.9076 110.836 37.4609C111.331 38.0273 111.982 38.3105 112.789 38.3105C113.551 38.3105 114.182 38.0273 114.684 37.4609C115.191 36.888 115.445 36.1719 115.445 35.3125ZM119.566 35.1758C119.566 33.8021 120.058 32.6335 121.041 31.6699C122.024 30.7064 123.222 30.2246 124.635 30.2246C126.054 30.2246 127.258 30.7096 128.248 31.6797C129.225 32.6497 129.713 33.8411 129.713 35.2539C129.713 36.6797 129.221 37.8743 128.238 38.8379C127.249 39.7949 126.035 40.2734 124.596 40.2734C123.17 40.2734 121.975 39.7852 121.012 38.8086C120.048 37.8451 119.566 36.6341 119.566 35.1758ZM121.812 35.2148C121.812 36.1654 122.066 36.9173 122.574 37.4707C123.095 38.0306 123.782 38.3105 124.635 38.3105C125.494 38.3105 126.181 38.0339 126.695 37.4805C127.21 36.9271 127.467 36.1882 127.467 35.2637C127.467 34.3392 127.21 33.6003 126.695 33.0469C126.174 32.487 125.488 32.207 124.635 32.207C123.795 32.207 123.115 32.487 122.594 33.0469C122.073 33.6068 121.812 34.3294 121.812 35.2148ZM131.598 35.1758C131.598 33.8021 132.089 32.6335 133.072 31.6699C134.055 30.7064 135.253 30.2246 136.666 30.2246C138.085 30.2246 139.29 30.7096 140.279 31.6797C141.256 32.6497 141.744 33.8411 141.744 35.2539C141.744 36.6797 141.253 37.8743 140.27 38.8379C139.28 39.7949 138.066 40.2734 136.627 40.2734C135.201 40.2734 134.007 39.7852 133.043 38.8086C132.079 37.8451 131.598 36.6341 131.598 35.1758ZM133.844 35.2148C133.844 36.1654 134.098 36.9173 134.605 37.4707C135.126 38.0306 135.813 38.3105 136.666 38.3105C137.525 38.3105 138.212 38.0339 138.727 37.4805C139.241 36.9271 139.498 36.1882 139.498 35.2637C139.498 34.3392 139.241 33.6003 138.727 33.0469C138.206 32.487 137.519 32.207 136.666 32.207C135.826 32.207 135.146 32.487 134.625 33.0469C134.104 33.6068 133.844 34.3294 133.844 35.2148ZM146.275 23.5059V33.5645L149.371 30.4883H152.32L148.189 34.4824L152.623 40H149.771L146.627 35.9863L146.275 36.3379V40H144.078V23.5059H146.275Z" fill="black"/>
<path d="M299 26L305 32L299 38" stroke="black" stroke-width="1.5" stroke-linecap="round" stroke-linejoin="round"/>
</svg>
