<svg width="330" height="64" viewBox="0 0 330 64" fill="none" xmlns="http://www.w3.org/2000/svg">
<rect width="330" height="64" rx="16" fill="white"/>
<path d="M39.095 24.6065C37.2814 22.9872 34.8657 22 32.2179 22C26.5739 22 22 26.478 22 32C22 37.522 26.5739 42 32.2179 42C39.1562 42 41.72 36.8593 42 32.8333H33.682" stroke="black" stroke-width="3"/>
<path d="M50 24V40C50 45.5228 45.5228 50 40 50H24C18.4772 50 14 45.5228 14 40V24C14 18.4772 18.4772 14 24 14H40C45.5228 14 50 18.4772 50 24Z" stroke="black" stroke-width="3" stroke-linecap="round" stroke-linejoin="round"/>
<path d="M73.5605 32.1484H79.791V32.6465C79.791 33.7793 79.6576 34.7819 79.3906 35.6543C79.1302 36.4616 78.6908 37.2168 78.0723 37.9199C76.6725 39.4954 74.8919 40.2832 72.7305 40.2832C70.6211 40.2832 68.8145 39.5215 67.3105 37.998C65.8066 36.4681 65.0547 34.6322 65.0547 32.4902C65.0547 30.3027 65.8197 28.4473 67.3496 26.9238C68.8796 25.3939 70.7415 24.6289 72.9355 24.6289C74.1139 24.6289 75.2142 24.8698 76.2363 25.3516C77.2129 25.8333 78.1732 26.6146 79.1172 27.6953L77.4961 29.248C76.2591 27.6009 74.752 26.7773 72.9746 26.7773C71.3796 26.7773 70.0417 27.3275 68.9609 28.4277C67.8802 29.5085 67.3398 30.8626 67.3398 32.4902C67.3398 34.1699 67.9421 35.5534 69.1465 36.6406C70.2728 37.6497 71.4935 38.1543 72.8086 38.1543C73.9284 38.1543 74.9342 37.7767 75.8262 37.0215C76.7181 36.2598 77.2161 35.3483 77.3203 34.2871H73.5605V32.1484ZM81.793 35.1758C81.793 33.8021 82.2845 32.6335 83.2676 31.6699C84.2507 30.7064 85.4486 30.2246 86.8613 30.2246C88.2806 30.2246 89.485 30.7096 90.4746 31.6797C91.4512 32.6497 91.9395 33.8411 91.9395 35.2539C91.9395 36.6797 91.4479 37.8743 90.4648 38.8379C89.4753 39.7949 88.2611 40.2734 86.8223 40.2734C85.3965 40.2734 84.2018 39.7852 83.2383 38.8086C82.2747 37.8451 81.793 36.6341 81.793 35.1758ZM84.0391 35.2148C84.0391 36.1654 84.293 36.9173 84.8008 37.4707C85.3216 38.0306 86.0085 38.3105 86.8613 38.3105C87.7207 38.3105 88.4076 38.0339 88.9219 37.4805C89.4362 36.9271 89.6934 36.1882 89.6934 35.2637C89.6934 34.3392 89.4362 33.6003 88.9219 33.0469C88.401 32.487 87.7142 32.207 86.8613 32.207C86.0215 32.207 85.3411 32.487 84.8203 33.0469C84.2995 33.6068 84.0391 34.3294 84.0391 35.2148ZM93.8242 35.1758C93.8242 33.8021 94.3158 32.6335 95.2988 31.6699C96.2819 30.7064 97.4798 30.2246 98.8926 30.2246C100.312 30.2246 101.516 30.7096 102.506 31.6797C103.482 32.6497 103.971 33.8411 103.971 35.2539C103.971 36.6797 103.479 37.8743 102.496 38.8379C101.507 39.7949 100.292 40.2734 98.8535 40.2734C97.4277 40.2734 96.2331 39.7852 95.2695 38.8086C94.306 37.8451 93.8242 36.6341 93.8242 35.1758ZM96.0703 35.2148C96.0703 36.1654 96.3242 36.9173 96.832 37.4707C97.3529 38.0306 98.0397 38.3105 98.8926 38.3105C99.752 38.3105 100.439 38.0339 100.953 37.4805C101.467 36.9271 101.725 36.1882 101.725 35.2637C101.725 34.3392 101.467 33.6003 100.953 33.0469C100.432 32.487 99.7454 32.207 98.8926 32.207C98.0527 32.207 97.3724 32.487 96.8516 33.0469C96.3307 33.6068 96.0703 34.3294 96.0703 35.2148ZM115.504 39.7754C115.504 40.2246 115.488 40.6185 115.455 40.957C115.429 41.3021 115.39 41.6048 115.338 41.8652C115.182 42.5814 114.876 43.1966 114.42 43.7109C113.561 44.7005 112.379 45.1953 110.875 45.1953C109.605 45.1953 108.561 44.8535 107.74 44.1699C106.894 43.4668 106.406 42.4935 106.275 41.25H108.482C108.567 41.7188 108.707 42.0801 108.902 42.334C109.358 42.9264 110.022 43.2227 110.895 43.2227C112.503 43.2227 113.307 42.2363 113.307 40.2637V38.9355C112.434 39.8275 111.428 40.2734 110.289 40.2734C108.993 40.2734 107.932 39.8047 107.105 38.8672C106.272 37.9167 105.855 36.7285 105.855 35.3027C105.855 33.916 106.243 32.7376 107.018 31.7676C107.851 30.7389 108.951 30.2246 110.318 30.2246C111.516 30.2246 112.512 30.6706 113.307 31.5625V30.4883H115.504V39.7754ZM113.395 35.2637C113.395 34.3392 113.147 33.6003 112.652 33.0469C112.151 32.4805 111.51 32.1973 110.729 32.1973C109.895 32.1973 109.238 32.5065 108.756 33.125C108.32 33.6784 108.102 34.3945 108.102 35.2734C108.102 36.1393 108.32 36.849 108.756 37.4023C109.231 38.0078 109.889 38.3105 110.729 38.3105C111.568 38.3105 112.232 38.0046 112.721 37.3926C113.17 36.8392 113.395 36.1296 113.395 35.2637ZM120.475 23.5059V40H118.277V23.5059H120.475ZM131.92 35.7617H125.104C125.162 36.543 125.416 37.1647 125.865 37.627C126.314 38.0827 126.891 38.3105 127.594 38.3105C128.141 38.3105 128.593 38.1803 128.951 37.9199C129.303 37.6595 129.703 37.1777 130.152 36.4746L132.008 37.5098C131.721 37.998 131.419 38.418 131.1 38.7695C130.781 39.1146 130.439 39.401 130.074 39.6289C129.71 39.8503 129.316 40.013 128.893 40.1172C128.469 40.2214 128.01 40.2734 127.516 40.2734C126.096 40.2734 124.957 39.8177 124.098 38.9062C123.238 37.9883 122.809 36.7708 122.809 35.2539C122.809 33.75 123.225 32.5326 124.059 31.6016C124.898 30.6836 126.012 30.2246 127.398 30.2246C128.798 30.2246 129.905 30.6706 130.719 31.5625C131.526 32.4479 131.93 33.6751 131.93 35.2441L131.92 35.7617ZM129.664 33.9648C129.358 32.793 128.619 32.207 127.447 32.207C127.18 32.207 126.93 32.2493 126.695 32.334C126.461 32.4121 126.246 32.5293 126.051 32.6855C125.862 32.8353 125.699 33.0176 125.562 33.2324C125.426 33.4473 125.322 33.6914 125.25 33.9648H129.664Z" fill="black"/>
<path d="M299 26L305 32L299 38" stroke="black" stroke-width="1.5" stroke-linecap="round" stroke-linejoin="round"/>
</svg>
