<svg width="330" height="64" viewBox="0 0 330 64" fill="none" xmlns="http://www.w3.org/2000/svg">
<rect width="330" height="64" rx="16" fill="white"/>
<path d="M32 40C36.4183 40 40 36.4183 40 32C40 27.5817 36.4183 24 32 24C27.5817 24 24 27.5817 24 32C24 36.4183 27.5817 40 32 40Z" stroke="black" stroke-width="3" stroke-linecap="round" stroke-linejoin="round"/>
<path d="M14 40V24C14 18.4772 18.4772 14 24 14H40C45.5228 14 50 18.4772 50 24V40C50 45.5228 45.5228 50 40 50H24C18.4772 50 14 45.5228 14 40Z" stroke="black" stroke-width="3"/>
<path d="M43 21.02L43.02 20.9978" stroke="black" stroke-width="3" stroke-linecap="round" stroke-linejoin="round"/>
<path d="M68.082 24.9219V40H65.8066V24.9219H68.082ZM71.2852 30.4883H73.4922V31.3672C74.2604 30.6055 75.1263 30.2246 76.0898 30.2246C77.1966 30.2246 78.0592 30.5729 78.6777 31.2695C79.2116 31.862 79.4785 32.8288 79.4785 34.1699V40H77.2715V34.6875C77.2715 33.75 77.1413 33.1022 76.8809 32.7441C76.627 32.3796 76.1647 32.1973 75.4941 32.1973C74.765 32.1973 74.2474 32.4382 73.9414 32.9199C73.6419 33.3952 73.4922 34.2253 73.4922 35.4102V40H71.2852V30.4883ZM87.7891 32.1094L85.9727 33.0762C85.6862 32.4902 85.3314 32.1973 84.9082 32.1973C84.7064 32.1973 84.5339 32.2656 84.3906 32.4023C84.2474 32.5326 84.1758 32.7018 84.1758 32.9102C84.1758 33.2747 84.599 33.6361 85.4453 33.9941C86.6107 34.4954 87.3952 34.9577 87.7988 35.3809C88.2025 35.804 88.4043 36.3737 88.4043 37.0898C88.4043 38.0078 88.0658 38.776 87.3887 39.3945C86.7311 39.9805 85.9368 40.2734 85.0059 40.2734C83.4108 40.2734 82.2812 39.4954 81.6172 37.9395L83.4922 37.0703C83.7526 37.526 83.9512 37.8158 84.0879 37.9395C84.3548 38.1868 84.6738 38.3105 85.0449 38.3105C85.7871 38.3105 86.1582 37.972 86.1582 37.2949C86.1582 36.9043 85.8717 36.5397 85.2988 36.2012C85.0775 36.0905 84.8561 35.9831 84.6348 35.8789C84.4134 35.7747 84.1888 35.6673 83.9609 35.5566C83.3229 35.2441 82.8737 34.9316 82.6133 34.6191C82.2812 34.222 82.1152 33.7109 82.1152 33.0859C82.1152 32.2591 82.3984 31.5755 82.9648 31.0352C83.5443 30.4948 84.2474 30.2246 85.0742 30.2246C86.2917 30.2246 87.1966 30.8529 87.7891 32.1094ZM92.6523 32.5391V40H90.4551V32.5391H89.5176V30.4883H90.4551V27.002H92.6523V30.4883H94.3613V32.5391H92.6523ZM103.043 30.4883H105.25V40H103.043V39.0039C102.138 39.8503 101.165 40.2734 100.123 40.2734C98.8079 40.2734 97.7207 39.7982 96.8613 38.8477C96.0085 37.8776 95.582 36.6667 95.582 35.2148C95.582 33.7891 96.0085 32.6009 96.8613 31.6504C97.7142 30.6999 98.7819 30.2246 100.064 30.2246C101.171 30.2246 102.164 30.6803 103.043 31.5918V30.4883ZM97.8281 35.2148C97.8281 36.1263 98.0723 36.8685 98.5605 37.4414C99.0618 38.0208 99.6934 38.3105 100.455 38.3105C101.269 38.3105 101.926 38.0306 102.428 37.4707C102.929 36.8913 103.18 36.1556 103.18 35.2637C103.18 34.3717 102.929 33.6361 102.428 33.0566C101.926 32.4902 101.275 32.207 100.475 32.207C99.7194 32.207 99.0879 32.4935 98.5801 33.0664C98.0788 33.6458 97.8281 34.362 97.8281 35.2148ZM117.223 39.7754C117.223 40.2246 117.206 40.6185 117.174 40.957C117.148 41.3021 117.109 41.6048 117.057 41.8652C116.9 42.5814 116.594 43.1966 116.139 43.7109C115.279 44.7005 114.098 45.1953 112.594 45.1953C111.324 45.1953 110.279 44.8535 109.459 44.1699C108.613 43.4668 108.124 42.4935 107.994 41.25H110.201C110.286 41.7188 110.426 42.0801 110.621 42.334C111.077 42.9264 111.741 43.2227 112.613 43.2227C114.221 43.2227 115.025 42.2363 115.025 40.2637V38.9355C114.153 39.8275 113.147 40.2734 112.008 40.2734C110.712 40.2734 109.651 39.8047 108.824 38.8672C107.991 37.9167 107.574 36.7285 107.574 35.3027C107.574 33.916 107.962 32.7376 108.736 31.7676C109.57 30.7389 110.67 30.2246 112.037 30.2246C113.235 30.2246 114.231 30.6706 115.025 31.5625V30.4883H117.223V39.7754ZM115.113 35.2637C115.113 34.3392 114.866 33.6003 114.371 33.0469C113.87 32.4805 113.229 32.1973 112.447 32.1973C111.614 32.1973 110.956 32.5065 110.475 33.125C110.038 33.6784 109.82 34.3945 109.82 35.2734C109.82 36.1393 110.038 36.849 110.475 37.4023C110.95 38.0078 111.607 38.3105 112.447 38.3105C113.287 38.3105 113.951 38.0046 114.439 37.3926C114.889 36.8392 115.113 36.1296 115.113 35.2637ZM119.996 30.4883H122.193V31.3379C122.597 30.9147 122.955 30.625 123.268 30.4688C123.587 30.306 123.964 30.2246 124.4 30.2246C124.98 30.2246 125.585 30.4134 126.217 30.791L125.211 32.8027C124.794 32.5033 124.387 32.3535 123.99 32.3535C122.792 32.3535 122.193 33.2585 122.193 35.0684V40H119.996V30.4883ZM134.352 30.4883H136.559V40H134.352V39.0039C133.447 39.8503 132.473 40.2734 131.432 40.2734C130.117 40.2734 129.029 39.7982 128.17 38.8477C127.317 37.8776 126.891 36.6667 126.891 35.2148C126.891 33.7891 127.317 32.6009 128.17 31.6504C129.023 30.6999 130.09 30.2246 131.373 30.2246C132.48 30.2246 133.473 30.6803 134.352 31.5918V30.4883ZM129.137 35.2148C129.137 36.1263 129.381 36.8685 129.869 37.4414C130.37 38.0208 131.002 38.3105 131.764 38.3105C132.577 38.3105 133.235 38.0306 133.736 37.4707C134.238 36.8913 134.488 36.1556 134.488 35.2637C134.488 34.3717 134.238 33.6361 133.736 33.0566C133.235 32.4902 132.584 32.207 131.783 32.207C131.028 32.207 130.396 32.4935 129.889 33.0664C129.387 33.6458 129.137 34.362 129.137 35.2148ZM139.332 30.4883H141.529V31.3672C141.952 30.9245 142.314 30.625 142.613 30.4688C142.932 30.306 143.333 30.2246 143.814 30.2246C144.889 30.2246 145.738 30.6934 146.363 31.6309C147.053 30.6934 147.988 30.2246 149.166 30.2246C151.308 30.2246 152.379 31.5234 152.379 34.1211V40H150.172V34.7168C150.172 33.8053 150.061 33.1608 149.84 32.7832C149.612 32.3991 149.238 32.207 148.717 32.207C148.111 32.207 147.669 32.4349 147.389 32.8906C147.115 33.3464 146.979 34.0788 146.979 35.0879V40H144.771V34.7461C144.771 33.0534 144.283 32.207 143.307 32.207C142.688 32.207 142.236 32.4382 141.949 32.9004C141.669 33.3626 141.529 34.0918 141.529 35.0879V40H139.332V30.4883Z" fill="black"/>
<path d="M299 26L305 32L299 38" stroke="black" stroke-width="1.5" stroke-linecap="round" stroke-linejoin="round"/>
</svg>
