<svg width="391" height="69" viewBox="0 0 391 69" fill="none" xmlns="http://www.w3.org/2000/svg">
<g filter="url(#filter0_d_558_3448)">
<g clip-path="url(#clip0_558_3448)">
<rect width="190" height="56" transform="translate(3.22339 4.79999)" fill="#FF9401"/>
<path d="M75.03 40.8V25.7219H77.2957C78.3048 25.7219 79.1088 25.8 79.7078 25.9562C80.3132 26.1125 80.8243 26.3762 81.241 26.7473C81.6641 27.1314 81.9994 27.6099 82.2468 28.1828C82.5007 28.7622 82.6277 29.3482 82.6277 29.9406C82.6277 31.0213 82.2143 31.9361 81.3875 32.6848C82.1882 32.9582 82.8197 33.4367 83.282 34.1203C83.7507 34.7974 83.9851 35.5851 83.9851 36.4836C83.9851 37.662 83.5684 38.6581 82.7351 39.4719C82.2338 39.9732 81.6707 40.3215 81.0457 40.5168C80.3621 40.7056 79.5059 40.8 78.4773 40.8H75.03ZM77.3054 32.1965H78.0183C78.8647 32.1965 79.4832 32.0109 79.8738 31.6398C80.2709 31.2622 80.4695 30.7088 80.4695 29.9797C80.4695 29.27 80.2677 28.7329 79.864 28.3683C79.4604 27.9973 78.8744 27.8117 78.1062 27.8117H77.3054V32.1965ZM77.3054 38.6613H78.7117C79.7403 38.6613 80.4955 38.4595 80.9773 38.0558C81.4851 37.6196 81.739 37.0663 81.739 36.3957C81.739 35.7446 81.4949 35.1978 81.0066 34.7551C80.5313 34.3189 79.6817 34.1008 78.4578 34.1008H77.3054V38.6613ZM93.4578 31.2883H95.6648V40.8H93.4578V39.8039C92.5528 40.6502 91.5795 41.0734 90.5378 41.0734C89.2227 41.0734 88.1355 40.5982 87.2761 39.6476C86.4233 38.6776 85.9968 37.4667 85.9968 36.0148C85.9968 34.5891 86.4233 33.4009 87.2761 32.4504C88.129 31.4999 89.1967 31.0246 90.4792 31.0246C91.586 31.0246 92.5789 31.4803 93.4578 32.3918V31.2883ZM88.2429 36.0148C88.2429 36.9263 88.4871 37.6685 88.9753 38.2414C89.4766 38.8208 90.1082 39.1105 90.8699 39.1105C91.6837 39.1105 92.3412 38.8306 92.8425 38.2707C93.3438 37.6913 93.5945 36.9556 93.5945 36.0637C93.5945 35.1717 93.3438 34.4361 92.8425 33.8566C92.3412 33.2902 91.6902 33.007 90.8894 33.007C90.1342 33.007 89.5027 33.2935 88.9949 33.8664C88.4936 34.4458 88.2429 35.162 88.2429 36.0148ZM98.4382 31.2883H100.635V32.1379C101.039 31.7147 101.397 31.425 101.71 31.2687C102.029 31.106 102.406 31.0246 102.843 31.0246C103.422 31.0246 104.027 31.2134 104.659 31.591L103.653 33.6027C103.236 33.3032 102.83 33.1535 102.432 33.1535C101.234 33.1535 100.635 34.0585 100.635 35.8683V40.8H98.4382V31.2883ZM114.444 36.5617H107.628C107.686 37.343 107.94 37.9647 108.389 38.4269C108.839 38.8827 109.415 39.1105 110.118 39.1105C110.665 39.1105 111.117 38.9803 111.475 38.7199C111.827 38.4595 112.227 37.9777 112.677 37.2746L114.532 38.3098C114.246 38.798 113.943 39.218 113.624 39.5695C113.305 39.9146 112.963 40.201 112.598 40.4289C112.234 40.6502 111.84 40.813 111.417 40.9172C110.994 41.0213 110.535 41.0734 110.04 41.0734C108.621 41.0734 107.481 40.6177 106.622 39.7062C105.762 38.7883 105.333 37.5708 105.333 36.0539C105.333 34.55 105.749 33.3325 106.583 32.4016C107.423 31.4836 108.536 31.0246 109.923 31.0246C111.322 31.0246 112.429 31.4706 113.243 32.3625C114.05 33.2479 114.454 34.4751 114.454 36.0441L114.444 36.5617ZM112.188 34.7648C111.882 33.593 111.143 33.007 109.971 33.007C109.705 33.007 109.454 33.0493 109.219 33.134C108.985 33.2121 108.77 33.3293 108.575 33.4855C108.386 33.6353 108.223 33.8176 108.087 34.0324C107.95 34.2473 107.846 34.4914 107.774 34.7648H112.188ZM116.856 31.2883H119.053V32.1379C119.457 31.7147 119.815 31.425 120.128 31.2687C120.447 31.106 120.824 31.0246 121.26 31.0246C121.84 31.0246 122.445 31.2134 123.077 31.591L122.071 33.6027C121.654 33.3032 121.247 33.1535 120.85 33.1535C119.652 33.1535 119.053 34.0585 119.053 35.8683V40.8H116.856V31.2883Z" fill="white"/>
<rect width="190" height="56" transform="translate(193.223 4.79999)" fill="white"/>
<path d="M272.805 31.7375L278.675 25.7219H281.712L274.895 32.548L281.751 40.8H278.704L273.274 34.091L272.805 34.5598V40.8H270.53V25.7219H272.805V31.7375ZM282.239 35.9758C282.239 34.6021 282.731 33.4335 283.714 32.4699C284.697 31.5064 285.895 31.0246 287.307 31.0246C288.727 31.0246 289.931 31.5096 290.921 32.4797C291.897 33.4497 292.385 34.6411 292.385 36.0539C292.385 37.4797 291.894 38.6743 290.911 39.6379C289.921 40.5949 288.707 41.0734 287.268 41.0734C285.843 41.0734 284.648 40.5851 283.684 39.6086C282.721 38.645 282.239 37.4341 282.239 35.9758ZM284.485 36.0148C284.485 36.9654 284.739 37.7173 285.247 38.2707C285.768 38.8306 286.455 39.1105 287.307 39.1105C288.167 39.1105 288.854 38.8338 289.368 38.2805C289.882 37.7271 290.139 36.9881 290.139 36.0637C290.139 35.1392 289.882 34.4002 289.368 33.8469C288.847 33.287 288.16 33.007 287.307 33.007C286.468 33.007 285.787 33.287 285.266 33.8469C284.746 34.4068 284.485 35.1294 284.485 36.0148ZM294.719 31.2883H296.917V32.1379C297.32 31.7147 297.678 31.425 297.991 31.2687C298.31 31.106 298.688 31.0246 299.124 31.0246C299.703 31.0246 300.309 31.2134 300.94 31.591L299.934 33.6027C299.518 33.3032 299.111 33.1535 298.714 33.1535C297.516 33.1535 296.917 34.0585 296.917 35.8683V40.8H294.719V31.2883ZM305.188 33.3391V40.8H302.991V33.3391H302.053V31.2883H302.991V27.8019H305.188V31.2883H306.897V33.3391H305.188Z" fill="#23073E"/>
</g>
<path d="M19.3984 2.82033C24.2079 2.76822 30.5124 2.82394 35.3037 2.90041C36.8053 2.92412 36.0449 3.03014 37.0815 3.05128C39.1088 3.0925 40.9975 3.04051 43.001 3.08961C43.6649 3.10641 42.8384 3.27434 43.5346 3.2881C47.3497 3.36231 50.9588 3.31954 54.8235 3.35524C73.8597 3.53136 92.5718 3.5944 111.841 3.67091C118.194 3.696 125.918 3.8484 132.48 3.78175C133.246 3.77382 132.79 3.62642 132.935 3.61427C135.222 3.42829 134.462 3.72586 135.954 3.76539C141.878 3.9215 148.466 3.93507 154.168 3.87819C156.593 3.85355 154.161 3.56078 156.604 3.72511C156.773 3.73621 156.158 3.89274 156.823 3.90944C158.331 3.94698 161.193 3.91901 162.363 3.93141C164.616 3.9561 164.989 3.95453 167.12 3.95631C170.033 3.96011 173.498 4.03792 176.624 4.00245C177.291 3.99442 176.408 3.83396 177.472 3.80665C178.537 3.77939 181.355 3.793 182.305 3.83082C183.255 3.86867 182.85 3.99478 183.018 4.02369C184.402 4.26769 187.661 3.92976 188.08 3.9214C195.726 3.779 202.283 3.97151 209.46 3.97096C214.908 3.97013 220.734 3.90658 225.918 3.91529C232.095 3.9263 237.329 4.01325 243.329 3.9983C243.963 3.99691 243.221 3.80825 243.994 3.80616C252.211 3.78421 260.371 3.80478 268.553 3.93214C269.373 3.94508 268.316 4.11072 269.135 4.13356C274.154 4.26969 282.096 4.5967 285.077 3.8755C288.476 3.90366 292.604 3.93276 295.645 4.07814C297.606 4.1717 295.702 4.35216 298.111 4.27516C298.654 4.258 297.947 4.09997 298.762 4.08619C302.193 4.02834 305.94 4.07971 309.334 3.99806C310.024 3.98108 309.836 3.83948 310.031 3.81398C311.675 3.60747 314.411 3.94884 315.008 3.97364C319.55 4.15862 322.867 4.08583 327.099 4.09034C328.081 4.09147 326.92 3.90127 327.865 3.89552C332.766 3.86826 337.842 3.88461 342.641 3.96901C343.708 3.98824 342.727 4.15026 343.237 4.16774C345.486 4.24284 345.984 3.93682 348.141 4.00294C348.596 4.01649 348.34 4.15519 348.423 4.17042C349.721 4.40954 350.849 4.07072 351.183 4.06324C355.407 3.96103 358.106 4.31474 362.187 4.26466C362.675 4.25831 361.574 4.08281 362.946 4.07569C366.969 4.05437 371.094 4.05177 375.223 4.06751C379.928 3.96688 384.037 8.28101 383.851 12.8C383.837 13.8115 383.823 14.817 383.808 15.8149C383.786 17.2218 383.654 16.2175 383.638 16.306C383.384 17.749 383.724 18.6827 383.737 19.1414C383.829 22.7604 383.544 26.1411 383.949 28.6001C383.875 36.6856 383.903 44.7516 383.893 52.8C384.002 57.4272 379.803 61.5652 375.223 61.4031C372.215 61.37 369.21 61.3214 366.206 61.2496C366.013 61.2454 366.359 61.0779 365.974 61.0702C361.331 60.9761 362.222 61.2365 359.15 61.555C358.377 61.635 356.023 61.2505 355.814 61.2223C355.055 61.1184 355.842 60.8691 355.588 60.849C353.486 60.691 353.828 61.5155 350.992 61.5157C350.903 61.5144 351.275 61.3626 351.037 61.3475C350.298 61.3002 349.564 61.3605 348.841 61.3082C347.184 61.1873 346.594 60.7867 344.064 61.0199C343.743 61.0501 344.233 61.5178 341.7 61.4957C340.69 61.4865 336.221 61.4945 334.968 61.4642C333.717 61.434 334.576 61.2832 334.487 61.2767C331.116 61.0774 332.394 60.9949 330.706 60.6998C329.017 60.4059 329.485 61.1069 328.797 61.1852C328.107 61.2632 325.636 61.0988 325.028 61.0416C324.421 60.9844 325.179 60.8887 324.639 60.8563C321.06 60.6449 323.068 61.2043 321.889 61.3155C319.108 61.579 316.943 61.0591 314.398 61.0082C313.709 60.9944 314.271 61.1128 313.658 61.1239C311.229 61.1662 309.768 61.004 307.005 61.1527C306.553 61.1769 304.319 61.4895 302.873 61.2601C302.668 61.227 303.25 61.0975 302.215 61.0685C300.669 61.0249 297.883 60.9966 296.22 61.0399C294.993 61.0719 296.4 61.2854 294.855 61.2191C294.168 61.1895 295.441 61.0646 294.151 61.0194C292.868 60.9742 289.588 60.9797 288.34 60.984C287.094 60.9884 287.776 61.1503 287.675 61.1612C287.066 61.2237 284.674 61.3018 284.463 61.3016C273.805 61.3214 263.976 61.0484 253.599 61.1388C252.784 61.1456 253.327 61.3164 253.203 61.3192C250.415 61.3907 252.613 60.9367 250.665 60.7848C250.947 61.1313 249.797 61.0686 247.833 61.1066C246.887 61.1252 247.402 61.2593 247.316 61.2731C245.913 61.4769 244.935 61.2136 244.684 61.1598C243.754 60.9617 242.743 61.1957 242.11 61.0633C241.478 60.9319 242.933 60.7371 241.049 60.7396C240.521 60.8637 241.92 61.1878 240.49 61.2403C235.094 61.4391 225.023 61.1847 220.685 61.1583C216.355 61.1319 214.957 61.1548 212.434 61.11C207.877 61.0289 209.547 61.2694 206.718 61.3795C203.88 61.4896 205.26 60.8978 204.852 60.7706C204.451 60.6435 204.014 60.7744 203.516 60.7045C203.019 60.6346 204.094 60.5481 202.927 60.5218C201.758 60.4956 198.564 60.7218 198.15 60.8549C197.274 61.1366 198.714 61.4324 195.622 61.3285C195.444 61.3223 196.021 61.1667 195.341 61.151C189.933 61.0312 184.316 61.0238 178.915 60.9178C178.172 60.903 178.836 60.7299 178.404 60.7194C173.902 60.6086 175.512 60.9005 173.044 61.2247C173.598 60.7933 172.234 60.5293 168.818 60.5267C166.764 60.525 167.117 60.7135 165.789 60.8463C165.391 60.8863 163.937 60.757 163.674 60.8456C162.806 61.1353 164.175 61.4596 160.652 61.3304C160.498 61.3243 160.99 61.1657 160.456 61.1561C157.004 61.0933 156.591 61.3963 152.86 61.433C149.935 61.4618 144.734 61.277 141.404 61.2469C141.474 60.7618 138.329 60.8729 137.053 61.2074C134.892 61.1937 132.558 61.2126 130.469 61.1664C129.75 61.1506 130.222 61.0102 130.132 60.995C128.742 60.7569 127.802 61.0823 127.336 61.0951C122.28 61.2191 118.161 60.9725 113.336 61.2135C113.165 61.2222 112.887 61.5591 111.597 61.3131C111.514 61.2961 113.107 61.1428 110.838 61.131C108.568 61.1191 104.288 60.9384 101.137 61.0946C100.374 61.1322 98.445 61.4057 96.8968 61.192C96.6905 61.163 96.9162 61.0663 96.6185 61.0126C95.656 60.8412 95.1305 61.1818 93.9993 60.8924C92.868 60.6031 90.5149 60.3864 87.3366 60.5861C87.2354 60.5919 86.483 60.8618 85.4835 60.8575C83.8879 60.8505 81.6229 60.7943 79.9569 60.796C79.1593 60.797 79.6698 60.9646 79.5313 60.9676C74.168 61.0616 70.3507 60.9121 64.605 60.8473C63.5517 60.8351 60.5249 61.0636 58.4858 60.8829C56.2469 60.6851 58.5477 59.8622 53.4012 60.0582C51.3255 60.1366 48.6975 61.1807 44.9673 60.6398C37.7328 60.7738 31.0422 60.497 23.7876 60.6883C23.4613 60.6968 22.4297 60.9882 21.6627 60.9842C20.524 60.9778 19.8992 60.8416 19.086 60.8326C16.3578 60.7998 13.8151 60.868 11.2234 60.8871C10.5714 60.892 9.91513 60.816 9.27391 60.6535C8.07064 60.2835 8.50752 60.3338 7.20766 59.645C5.98709 58.8664 5.01695 58.3179 4.10106 56.4967C3.59708 55.3998 3.50379 54.1611 3.62404 52.8C3.65778 52.409 3.68252 52.0001 3.69196 51.5685C3.31811 51.4915 3.32581 50.1046 3.22712 47.6396C3.20797 47.1658 3.07785 47.6739 3.06208 47.4497C2.99502 46.5376 3.10286 45.6934 3.02986 44.8272C3.01232 44.6165 2.88465 44.6066 2.86311 44.4344C2.67508 42.9696 2.96227 40.5566 3.01228 40.1421C3.20218 38.5537 3.03613 37.8114 3.11091 36.593C3.18568 35.3767 3.27916 37.1954 3.32453 35.7745C3.41839 32.8293 3.39777 29.0451 3.40363 26.0539C3.40519 24.8604 3.23476 25.6747 3.23103 25.5039C3.1878 23.036 3.36909 20.5403 3.02961 19.1719C3.90736 17.4608 2.94447 17.6837 3.12019 14.1561C3.1344 13.8782 3.54948 13.5247 3.61042 14.5915C3.6713 15.6583 3.54155 17.276 3.63654 18.7561C3.65884 19.1066 4.04779 21.1145 4.07136 21.3884C4.2555 23.5343 3.63521 23.8384 3.60114 23.952C3.23348 25.2394 3.65251 27.6931 3.68146 28.3392C3.81414 31.2951 3.7269 33.8064 3.8216 36.2787C3.88281 37.8957 4.28912 38.0539 4.27668 39.3236C4.23557 43.5444 3.66877 45.0177 4.16022 48.9951C4.26504 49.8479 4.70913 49.0004 4.35993 52.0563C4.35276 52.1189 4.31404 52.4017 4.27206 52.8C4.16402 53.514 4.27945 54.7206 4.71412 55.3883C4.7919 55.5123 4.90864 55.4581 4.99404 55.6227C5.58959 56.7005 6.03054 57.4528 7.12929 58.2556C8.20646 59.0219 9.73103 59.517 11.2234 59.538C11.2731 59.5391 11.3229 59.5402 11.3724 59.5414C12.4631 59.5676 13.8624 59.8088 14.3845 59.8678C15.8587 60.0379 17.4394 59.759 18.3527 59.965C19.2737 60.1719 17.4731 60.4863 19.8882 60.62C19.9777 60.2837 20.1831 59.9386 20.3269 59.6005C25.6195 59.6123 30.827 59.721 36.1373 59.7062C36.7955 59.704 36.1223 59.5232 36.8281 59.5162C39.8057 59.4875 42.4065 59.6164 45.4944 59.5651C47.8847 59.5246 50.5058 59.3332 53.0051 59.285C54.5317 59.6698 58.2406 59.5392 60.9348 59.5743C61.8786 59.5865 61.8155 59.6892 62.4867 59.7228C65.0188 59.8468 63.8323 59.5068 64.5264 59.4532C67.5046 59.2249 67.7596 59.9945 71.271 59.9755C71.4569 59.9747 73.7308 59.5645 74.044 59.5389C76.0341 59.3724 74.3735 59.6817 75.6189 59.712C77.8927 59.7674 79.4729 59.8654 82.1407 59.7452C82.9187 59.7096 84.7848 59.454 86.2955 59.6517C86.4943 59.6776 86.3844 59.8132 86.5443 59.8212C89.4398 59.9535 89.5159 59.5275 91.1705 59.3832C92.8254 59.2389 95.3813 59.533 95.9015 59.6178C97.2623 59.8371 94.8588 59.7115 94.7851 59.733C93.9194 59.9891 95.7835 59.945 97.2079 59.9667C97.414 60.3844 99.406 60.3593 98.6845 59.9874C98.6023 59.9468 97.4938 59.9858 97.2079 59.9667C98.4581 59.5568 100.647 59.5043 103.065 59.8873C104.197 60.0668 103.127 60.2761 106.565 60.1996C108.125 60.165 107.522 59.8774 108.899 59.7989C112.045 59.62 116.133 59.8883 119.376 59.8461C120.553 59.8307 119.407 59.6733 120.211 59.6573C122.346 59.6146 124.229 59.7328 126.373 59.6722C126.567 59.6666 126.093 59.5017 126.759 59.4996C131.814 59.4805 136.215 59.5861 141.492 59.589C144.042 59.5903 148.601 59.4994 151.243 59.5177C155.821 59.5484 161.453 59.7881 165.363 59.7299C167.914 59.6926 167.355 59.5277 168.448 59.4154C170.557 59.1977 174.29 59.5877 174.793 59.6481C174.808 59.6501 172.613 59.6889 173.784 59.7736C174.465 59.9499 174.768 59.6488 174.793 59.6481C175.123 59.6871 179.508 59.7245 180.378 59.693C180.851 59.6758 180.587 59.5196 180.833 59.5135C186.696 59.3738 192.57 59.3341 198.516 59.4071C198.621 59.4103 198.463 59.585 198.71 59.5902C202.152 59.6679 204.357 59.4542 207.196 59.3273C210.035 59.2004 212.286 59.2429 213.967 59.5428C216.109 59.5051 219.182 59.6377 220.95 59.7181C222.718 59.7986 222.965 59.4585 223.121 59.4518C227.974 59.2366 230.779 59.4312 235.814 59.4615C238.208 59.4765 242.956 59.4272 245.548 59.39C247.596 59.3601 248.83 59.4398 250.718 59.3888C250.973 59.382 250.715 59.2306 250.793 59.2247C252.899 59.0436 251.887 59.4137 252.322 59.4799C253.899 59.7203 254.873 59.8483 257.57 59.7352C258.192 59.7093 260.005 59.1763 261.139 59.1451C262.613 59.1056 262.057 59.2966 263.601 59.2504C263.733 59.2466 263.706 59.1287 264.658 59.1339C269.082 59.1565 273.904 59.2251 278.501 59.2133C279.129 59.2121 278.324 59.0251 279.231 59.0204C283.488 58.9982 288.154 59.0051 292.301 59.0926C293.322 59.1148 292.682 59.2457 292.904 59.2845C294.264 59.5197 296.193 59.178 296.512 59.1715C304.105 59.0073 309.916 59.3165 317.655 59.1693C318.077 59.1607 321.319 58.7944 322.766 59.1085C322.865 59.1294 324.297 59.4508 325.562 59.2311C325.641 59.2173 324.749 59.0519 326.305 59.0687C327.862 59.0856 330.367 58.9751 332.506 59.1569C333.184 59.2141 334.785 59.5348 336.805 59.2792C336.937 59.2613 340.056 58.6834 341.169 59.0821C341.35 59.1478 341.161 59.5697 343.573 59.3534C344.033 59.3115 343.197 59.2173 344.411 59.1586C346.271 59.068 348.735 59.181 351.021 58.993C351.42 58.9598 353.117 58.6734 354.478 58.8907C354.692 58.9248 354.287 59.0657 355.006 59.0814C358.424 59.157 362.005 59.0628 365.476 59.1603C366.705 59.1945 366.077 59.4222 367.358 59.4833C368.64 59.5443 371.223 59.603 372.564 59.4989C373.906 59.3948 372.44 59.0318 374.45 59.0028C374.708 58.9991 374.966 58.9957 375.223 58.9925C378.52 59.0153 381.459 56.0966 381.429 52.8C381.47 48.5458 381.529 44.2928 381.544 40.0232C381.549 38.7292 381.419 39.8019 381.416 37.8951C381.407 30.9308 381.287 18.9547 381.553 12.8C381.556 12.7532 381.558 12.7068 381.559 12.661C381.161 8.74806 382.293 13.6425 381.673 10.5854C381.225 9.05217 379.702 8.13264 379.443 7.95536C378.086 6.87661 376.638 6.43606 375.223 6.4065C373.496 6.38386 371.818 6.35251 369.927 6.38086C369.137 6.39276 369.912 6.56379 369.239 6.57202C366.943 6.60168 364.529 6.52535 362.334 6.53931C361.35 6.54597 361.531 6.67659 360.625 6.66651C358.457 6.64389 356.541 6.58898 354.427 6.46656C354.235 6.4554 355.534 6.29291 353.93 6.28687C351.334 6.27755 348.112 6.15678 345.126 6.2815C344.24 6.31902 344.205 6.61755 342.3 6.41138C341.901 6.36832 342.411 6.00985 340.192 6.31958C339.819 6.37105 336.092 6.78883 334.263 6.51953C333.78 6.44866 332.549 6.15532 331.483 6.20142C331.338 6.20878 331.917 6.36913 331.034 6.38477C327.923 6.4371 324.661 6.41999 321.464 6.47022C320.611 6.48395 321.882 6.64988 320.61 6.66504C317.111 6.70698 312.742 6.66473 309.321 6.6128C308.06 6.59333 308.931 6.45588 308.84 6.44092C307.364 6.19762 306.491 6.52602 306.001 6.54517C302.954 6.65983 300.634 6.50557 297.826 6.54639C297.051 6.55724 297.6 6.71382 297.446 6.72779C295.846 6.86421 297.038 6.583 296.025 6.55201C293.188 6.46424 290.025 6.47682 287.156 6.49683C286.102 6.50441 287.286 6.68597 286.341 6.69068C280.742 6.72196 274.923 6.70459 269.46 6.6045C268.431 6.58532 269.078 6.44551 268.864 6.41358C267.386 6.19017 265.22 6.4949 264.722 6.52393C262.456 6.65647 261.576 6.53283 259.575 6.55591C249.801 6.67081 237.731 6.58892 228.505 6.53833C216.481 6.47323 207.151 6.34022 195.686 6.37476C194.957 6.37678 195.692 6.56277 195.064 6.5669C186.953 6.61173 178.969 6.53906 170.842 6.59278C170.175 6.59686 171.137 6.77317 170.066 6.78565C167.871 6.81247 165.09 6.80288 162.87 6.74658C161.787 6.71946 163.24 6.56816 162.15 6.54395C159.612 6.48722 156.892 6.47467 154.285 6.50293C153.176 6.51535 154.85 6.69568 153.408 6.69776C143.587 6.71565 133.942 6.7467 124.017 6.51319C123.337 6.49715 122.74 6.13065 121.293 6.20093C121.184 6.30265 121.19 6.42229 121.142 6.53101C106.845 6.58957 92.6944 6.46252 78.3573 6.44287C77.7528 6.44209 78.7975 6.63628 77.6272 6.63574C70.8537 6.63287 64.2763 6.68667 57.3478 6.49366C56.6604 6.47478 57.0131 6.13315 54.9872 6.18482C54.6299 6.19425 51.5788 6.23981 50.7899 6.31397C50.6828 6.32516 51.2394 6.48461 50.2562 6.48926C44.5426 6.51348 38.5551 6.47707 32.8515 6.37964C31.9309 6.36361 32.9112 6.1938 32.2556 6.18091C27.6048 6.09077 22.546 6.21986 18.1019 6.06568C15.1272 5.96187 16.2285 5.66833 14.6478 5.3794C14.4242 5.33864 12.5822 5.33218 12.4869 5.16407C12.2424 4.74135 13.1346 4.27847 12.7685 3.82789C12.6912 3.73084 10.2242 3.83537 11.6848 3.60084C11.7868 3.58515 13.5754 3.50731 14.0159 3.42775C14.3226 3.37274 13.7699 3.20178 14.3957 3.13136C15.0214 3.06101 15.709 3.20433 16.7465 3.1216C17.7834 3.03784 17.3275 2.84335 19.3984 2.82033ZM228.913 60.0778C230.55 60.2411 230.792 59.6429 229.021 59.786C228.935 59.7936 228.828 60.0697 228.913 60.0778ZM30.7973 60.1722C32.938 60.4361 34.4028 60.0481 32.8927 59.8444C31.3827 59.6408 30.1451 60.0923 30.7973 60.1722ZM8.78542 59.9635C9.88849 60.4383 10.6277 60.2759 10.6966 60.1256C10.7748 59.9498 10.2739 59.8291 9.11871 59.579C8.98757 59.5492 8.65997 59.9073 8.78542 59.9635ZM21.9784 5.29713C21.9558 5.28918 20.6316 5.28144 20.6 5.28931C19.8949 5.4793 22.5426 5.49465 21.9784 5.29713ZM3.4488 40.7151C3.33405 41.4961 3.46651 43.7449 3.6092 42.7744C3.72399 41.9932 3.59154 39.7424 3.4488 40.7151ZM314.329 60.7162C314.355 60.7251 315.304 60.7331 315.285 60.6827C315.22 60.5204 313.899 60.5662 314.329 60.7162ZM8.33226 5.57014C5.78865 6.56024 4.44381 8.49515 3.95297 9.10725C3.70299 9.4245 3.61217 9.42308 3.77061 8.97871C3.94099 8.5503 4.36147 7.62804 5.54572 6.55792C5.98529 6.18579 5.53664 6.62225 5.18996 7.08134C4.84191 7.54189 4.58261 7.99906 5.05447 7.47174C6.83062 5.69062 8.45057 4.43019 11.1742 4.55972C11.4173 4.58577 10.7179 4.67136 9.97659 4.90182C9.22689 5.11979 8.46839 5.51281 8.32376 5.5746C8.32659 5.57312 8.32942 5.57163 8.33226 5.57014ZM229.855 60.7963C229.888 60.8042 231.202 60.8117 231.234 60.8038C231.945 60.6139 229.298 60.5987 229.855 60.7963ZM369.722 61.086C369.795 61.1029 372.845 61.1187 372.944 61.1031C374.535 60.7926 368.369 60.7598 369.722 61.086ZM141.352 61.234C139.918 61.425 138.202 61.4475 137.059 61.2076C138.484 61.2204 139.919 61.2222 141.352 61.234Z" fill="#23073E"/>
</g>
<defs>
<filter id="filter0_d_558_3448" x="4.86374e-05" y="-1.23978e-05" width="390.749" height="68.366" filterUnits="userSpaceOnUse" color-interpolation-filters="sRGB">
<feFlood flood-opacity="0" result="BackgroundImageFix"/>
<feColorMatrix in="SourceAlpha" type="matrix" values="0 0 0 0 0 0 0 0 0 0 0 0 0 0 0 0 0 0 127 0" result="hardAlpha"/>
<feOffset dx="2" dy="2"/>
<feGaussianBlur stdDeviation="2.4"/>
<feComposite in2="hardAlpha" operator="out"/>
<feColorMatrix type="matrix" values="0 0 0 0 0 0 0 0 0 0 0 0 0 0 0 0 0 0 0.05 0"/>
<feBlend mode="normal" in2="BackgroundImageFix" result="effect1_dropShadow_558_3448"/>
<feBlend mode="normal" in="SourceGraphic" in2="effect1_dropShadow_558_3448" result="shape"/>
</filter>
<clipPath id="clip0_558_3448">
<path d="M3.22339 12.8C3.22339 8.38171 6.80511 4.79999 11.2234 4.79999H375.223C379.642 4.79999 383.223 8.38171 383.223 12.8V52.8C383.223 57.2183 379.642 60.8 375.223 60.8H11.2234C6.80512 60.8 3.22339 57.2183 3.22339 52.8V12.8Z" fill="white"/>
</clipPath>
</defs>
</svg>
