<svg width="385" height="69" viewBox="0 0 385 69" fill="none" xmlns="http://www.w3.org/2000/svg">
<g filter="url(#filter0_d_665_4597)">
<g clip-path="url(#clip0_665_4597)">
<rect width="187" height="56" transform="translate(3.22339 4.8)" fill="white"/>
<path d="M73.53 40.8V25.7219H75.7957C76.8048 25.7219 77.6088 25.8 78.2078 25.9563C78.8132 26.1125 79.3243 26.3762 79.741 26.7473C80.1641 27.1314 80.4994 27.6099 80.7468 28.1828C81.0007 28.7622 81.1277 29.3482 81.1277 29.9406C81.1277 31.0214 80.7143 31.9361 79.8875 32.6848C80.6882 32.9582 81.3197 33.4367 81.782 34.1203C82.2507 34.7974 82.4851 35.5852 82.4851 36.4836C82.4851 37.662 82.0684 38.6581 81.2351 39.4719C80.7338 39.9732 80.1707 40.3215 79.5457 40.5168C78.8621 40.7056 78.0059 40.8 76.9773 40.8H73.53ZM75.8054 32.1965H76.5183C77.3647 32.1965 77.9832 32.0109 78.3738 31.6398C78.7709 31.2622 78.9695 30.7089 78.9695 29.9797C78.9695 29.2701 78.7677 28.7329 78.364 28.3684C77.9604 27.9973 77.3744 27.8117 76.6062 27.8117H75.8054V32.1965ZM75.8054 38.6613H77.2117C78.2403 38.6613 78.9955 38.4595 79.4773 38.0559C79.9851 37.6197 80.239 37.0663 80.239 36.3957C80.239 35.7447 79.9949 35.1978 79.5066 34.7551C79.0313 34.3189 78.1817 34.1008 76.9578 34.1008H75.8054V38.6613ZM91.9578 31.2883H94.1648V40.8H91.9578V39.8039C91.0528 40.6503 90.0795 41.0734 89.0378 41.0734C87.7227 41.0734 86.6355 40.5982 85.7761 39.6477C84.9233 38.6776 84.4968 37.4667 84.4968 36.0148C84.4968 34.5891 84.9233 33.4009 85.7761 32.4504C86.629 31.4999 87.6967 31.0246 88.9792 31.0246C90.086 31.0246 91.0789 31.4803 91.9578 32.3918V31.2883ZM86.7429 36.0148C86.7429 36.9263 86.9871 37.6685 87.4753 38.2414C87.9766 38.8208 88.6082 39.1105 89.3699 39.1105C90.1837 39.1105 90.8412 38.8306 91.3425 38.2707C91.8438 37.6913 92.0945 36.9556 92.0945 36.0637C92.0945 35.1717 91.8438 34.4361 91.3425 33.8566C90.8412 33.2902 90.1902 33.007 89.3894 33.007C88.6342 33.007 88.0027 33.2935 87.4949 33.8664C86.9936 34.4458 86.7429 35.162 86.7429 36.0148ZM96.9382 31.2883H99.1355V32.1379C99.5391 31.7147 99.8972 31.425 100.21 31.2688C100.529 31.106 100.906 31.0246 101.343 31.0246C101.922 31.0246 102.527 31.2134 103.159 31.591L102.153 33.6027C101.736 33.3033 101.33 33.1535 100.932 33.1535C99.7345 33.1535 99.1355 34.0585 99.1355 35.8684V40.8H96.9382V31.2883ZM112.944 36.5617H106.128C106.186 37.343 106.44 37.9647 106.889 38.427C107.339 38.8827 107.915 39.1105 108.618 39.1105C109.165 39.1105 109.617 38.9803 109.975 38.7199C110.327 38.4595 110.727 37.9777 111.177 37.2746L113.032 38.3098C112.746 38.798 112.443 39.218 112.124 39.5695C111.805 39.9146 111.463 40.201 111.098 40.4289C110.734 40.6503 110.34 40.813 109.917 40.9172C109.494 41.0214 109.035 41.0734 108.54 41.0734C107.121 41.0734 105.981 40.6177 105.122 39.7063C104.262 38.7883 103.833 37.5708 103.833 36.0539C103.833 34.55 104.249 33.3326 105.083 32.4016C105.923 31.4836 107.036 31.0246 108.423 31.0246C109.822 31.0246 110.929 31.4706 111.743 32.3625C112.55 33.2479 112.954 34.4751 112.954 36.0441L112.944 36.5617ZM110.688 34.7648C110.382 33.593 109.643 33.007 108.471 33.007C108.205 33.007 107.954 33.0494 107.719 33.134C107.485 33.2121 107.27 33.3293 107.075 33.4855C106.886 33.6353 106.723 33.8176 106.587 34.0324C106.45 34.2473 106.346 34.4914 106.274 34.7648H110.688ZM115.356 31.2883H117.553V32.1379C117.957 31.7147 118.315 31.425 118.628 31.2688C118.947 31.106 119.324 31.0246 119.76 31.0246C120.34 31.0246 120.945 31.2134 121.577 31.591L120.571 33.6027C120.154 33.3033 119.747 33.1535 119.35 33.1535C118.152 33.1535 117.553 34.0585 117.553 35.8684V40.8H115.356V31.2883Z" fill="#23073E"/>
<rect width="187" height="56" transform="translate(190.223 4.8)" fill="#FF9401"/>
<path d="M268.305 31.7375L274.175 25.7219H277.212L270.395 32.548L277.251 40.8H274.204L268.774 34.091L268.305 34.5598V40.8H266.03V25.7219H268.305V31.7375ZM277.739 35.9758C277.739 34.6021 278.231 33.4335 279.214 32.4699C280.197 31.5064 281.395 31.0246 282.807 31.0246C284.227 31.0246 285.431 31.5096 286.421 32.4797C287.397 33.4497 287.885 34.6411 287.885 36.0539C287.885 37.4797 287.394 38.6744 286.411 39.6379C285.421 40.5949 284.207 41.0734 282.768 41.0734C281.343 41.0734 280.148 40.5852 279.184 39.6086C278.221 38.6451 277.739 37.4341 277.739 35.9758ZM279.985 36.0148C279.985 36.9654 280.239 37.7173 280.747 38.2707C281.268 38.8306 281.955 39.1105 282.807 39.1105C283.667 39.1105 284.354 38.8339 284.868 38.2805C285.382 37.7271 285.639 36.9882 285.639 36.0637C285.639 35.1392 285.382 34.4003 284.868 33.8469C284.347 33.287 283.66 33.007 282.807 33.007C281.968 33.007 281.287 33.287 280.766 33.8469C280.246 34.4068 279.985 35.1294 279.985 36.0148ZM290.219 31.2883H292.417V32.1379C292.82 31.7147 293.178 31.425 293.491 31.2688C293.81 31.106 294.188 31.0246 294.624 31.0246C295.203 31.0246 295.809 31.2134 296.44 31.591L295.434 33.6027C295.018 33.3033 294.611 33.1535 294.214 33.1535C293.016 33.1535 292.417 34.0585 292.417 35.8684V40.8H290.219V31.2883ZM300.688 33.3391V40.8H298.491V33.3391H297.553V31.2883H298.491V27.802H300.688V31.2883H302.397V33.3391H300.688Z" fill="#120000"/>
</g>
<path d="M19.2841 2.82034C24.0264 2.76824 30.2427 2.82395 34.967 2.90042C36.4476 2.92414 35.6979 3.03015 36.72 3.0513C38.7189 3.09252 40.5812 3.04052 42.5567 3.08963C43.2113 3.10642 42.3964 3.27435 43.0829 3.28811C46.8446 3.36233 50.4033 3.31956 54.2139 3.35525C72.9839 3.53137 91.4344 3.59441 110.434 3.67093C116.699 3.69601 124.314 3.84841 130.785 3.78177C131.54 3.77383 131.09 3.62643 131.234 3.61429C133.488 3.4283 132.738 3.72587 134.21 3.76541C140.052 3.92151 146.547 3.93509 152.169 3.8782C154.561 3.85357 152.163 3.56079 154.571 3.72512C154.738 3.73623 154.131 3.89276 154.787 3.90945C156.275 3.947 159.097 3.91902 160.249 3.93142C162.471 3.95612 162.839 3.95454 164.94 3.95633C167.813 3.96013 171.23 4.03793 174.312 4.00247C174.97 3.99443 174.099 3.83397 175.148 3.80667C176.198 3.77941 178.976 3.79301 179.913 3.83084C180.85 3.86868 180.451 3.9948 180.616 4.02371C181.98 4.2677 185.194 3.92977 185.607 3.92141C193.146 3.77902 199.611 3.97152 206.688 3.97097C212.06 3.97015 217.805 3.9066 222.916 3.91531C229.006 3.92631 234.168 4.01326 240.084 3.99832C240.709 3.99692 239.977 3.80826 240.74 3.80618C248.842 3.78423 256.888 3.80479 264.955 3.93216C265.764 3.94509 264.721 4.11074 265.529 4.13357C270.478 4.2697 278.309 4.59672 281.248 3.87552C284.6 3.90368 288.67 3.93277 291.669 4.07815C293.602 4.17172 291.724 4.35217 294.1 4.27517C294.635 4.25802 293.939 4.09998 294.742 4.08621C298.124 4.02835 301.82 4.07972 305.166 3.99807C305.847 3.98109 305.661 3.83949 305.854 3.81399C307.474 3.60749 310.172 3.94885 310.761 3.97366C315.239 4.15863 318.51 4.08584 322.683 4.09036C323.651 4.09149 322.506 3.90128 323.438 3.89553C328.27 3.86827 333.276 3.88462 338.007 3.96902C339.06 3.98825 338.092 4.15027 338.595 4.16775C340.812 4.24285 341.304 3.93684 343.431 4.00296C343.879 4.0165 343.626 4.1552 343.708 4.17044C344.988 4.40956 346.1 4.07074 346.43 4.06326C350.594 3.96105 353.256 4.31476 357.28 4.26467C357.761 4.25832 356.676 4.08283 358.029 4.07571C361.7 4.05598 365.457 4.05228 369.223 4.06431C373.921 3.95967 378.045 8.26778 377.86 12.8C377.844 14.0455 377.827 15.2824 377.808 16.5078C377.786 17.895 377.654 16.9048 377.638 16.992C377.384 18.4148 377.724 19.3354 377.737 19.7877C377.829 23.3562 377.544 26.6896 377.949 29.1141C377.876 37.0278 377.903 44.9224 377.893 52.8C378.002 57.4274 373.803 61.5659 369.223 61.4031C366.257 61.3701 363.294 61.3214 360.332 61.2496C360.142 61.2454 360.483 61.0779 360.103 61.0702C355.525 60.9761 356.404 61.2365 353.375 61.5551C352.612 61.635 350.291 61.2505 350.086 61.2223C349.337 61.1184 350.113 60.8691 349.863 60.849C347.789 60.691 348.127 61.5155 345.33 61.5158C345.243 61.5144 345.61 61.3626 345.376 61.3475C344.646 61.3002 343.923 61.3605 343.209 61.3082C341.576 61.1874 340.994 60.7868 338.499 61.0199C338.184 61.0502 338.666 61.5178 336.169 61.4957C335.173 61.4865 330.766 61.4945 329.531 61.4642C328.298 61.434 329.145 61.2833 329.057 61.2767C325.733 61.0775 326.993 60.9949 325.328 60.6998C323.663 60.4059 324.125 61.1069 323.446 61.1852C322.766 61.2632 320.329 61.0988 319.73 61.0416C319.132 60.9844 319.878 60.8887 319.346 60.8563C315.817 60.6449 317.797 61.2043 316.634 61.3156C313.893 61.579 311.758 61.0591 309.248 61.0082C308.569 60.9944 309.123 61.1128 308.519 61.1239C306.124 61.1662 304.683 61.004 301.959 61.1527C301.513 61.177 299.31 61.4895 297.885 61.2601C297.683 61.2271 298.256 61.0975 297.236 61.0685C295.711 61.0249 292.964 60.9966 291.325 61.0399C290.115 61.072 291.502 61.2854 289.979 61.2191C289.302 61.1895 290.556 61.0646 289.285 61.0194C288.02 60.9742 284.785 60.9797 283.554 60.984C282.326 60.9884 282.998 61.1504 282.899 61.1613C282.298 61.2238 279.94 61.3018 279.732 61.3016C269.223 61.3214 259.532 61.0485 249.299 61.1388C248.496 61.1457 249.031 61.3164 248.909 61.3192C246.16 61.3908 248.327 60.9368 246.407 60.7848C246.684 61.1313 245.551 61.0686 243.614 61.1066C242.681 61.1252 243.189 61.2593 243.104 61.2731C241.721 61.4769 240.757 61.2136 240.509 61.1598C239.592 60.9617 238.595 61.1958 237.971 61.0634C237.348 60.9319 238.782 60.7371 236.925 60.7396C236.405 60.8637 237.783 61.1878 236.373 61.2404C231.053 61.4391 221.123 61.1847 216.846 61.1583C212.577 61.1319 211.198 61.1548 208.71 61.11C204.217 61.0289 205.864 61.2694 203.074 61.3795C200.276 61.4896 201.636 60.8978 201.234 60.7706C200.839 60.6435 200.408 60.7744 199.917 60.7045C199.427 60.6346 200.487 60.5481 199.336 60.5219C198.183 60.4956 195.034 60.7219 194.625 60.8549C193.762 61.1367 195.182 61.4324 192.133 61.3285C191.958 61.3223 192.527 61.1667 191.856 61.151C186.524 61.0312 180.985 61.0238 175.659 60.9179C174.927 60.903 175.582 60.7299 175.156 60.7194C170.717 60.6087 172.304 60.9005 169.871 61.2247C170.417 60.7933 169.072 60.5293 165.703 60.5267C163.678 60.5251 164.027 60.7135 162.717 60.8463C162.324 60.8864 160.892 60.757 160.632 60.8456C159.776 61.1353 161.125 61.4596 157.652 61.3304C157.5 61.3243 157.985 61.1657 157.459 61.1561C154.055 61.0933 153.648 61.3963 149.969 61.433C147.085 61.4618 141.957 61.277 138.673 61.247C138.742 60.7619 135.641 60.8729 134.383 61.2074C132.252 61.1937 129.95 61.2126 127.891 61.1664C127.182 61.1506 127.648 61.0102 127.558 60.995C126.188 60.7569 125.261 61.0823 124.801 61.0951C119.816 61.2191 115.755 60.9725 110.997 61.2135C110.829 61.2222 110.555 61.5592 109.283 61.3131C109.201 61.2962 110.772 61.1428 108.534 61.131C106.296 61.1191 102.076 60.9385 98.9689 61.0946C98.217 61.1322 96.3148 61.4057 94.7883 61.192C94.585 61.163 94.8074 61.0664 94.5139 61.0126C93.5648 60.8412 93.0466 61.1818 91.9313 60.8925C90.8158 60.6031 88.4956 60.3864 85.3618 60.5861C85.2619 60.5919 84.5201 60.8618 83.5346 60.8576C81.9613 60.8505 79.7279 60.7943 78.0853 60.796C77.2987 60.797 77.8022 60.9646 77.6656 60.9677C72.3772 61.0616 68.6134 60.9122 62.9479 60.8473C61.9094 60.8351 58.9248 61.0637 56.9143 60.8829C54.7067 60.6851 56.9752 59.8622 51.9009 60.0582C49.8541 60.1367 47.2629 61.1807 43.5848 60.6398C36.4515 60.7738 29.8545 60.497 22.7012 60.6884C22.3795 60.6968 21.3624 60.9882 20.6061 60.9843C19.4833 60.9778 18.8671 60.8416 18.0654 60.8326C15.6954 60.8037 13.4675 60.8532 11.2234 60.8785C10.277 60.8894 9.32354 60.7308 8.42036 60.3912C7.28127 59.8976 7.70567 59.9917 6.50385 59.1792C5.38807 58.2883 4.49072 57.6552 3.77147 55.7782C3.45204 54.8554 3.42005 53.8553 3.54808 52.8C3.61888 52.1972 3.67634 51.5547 3.69196 50.8507C3.31811 50.7748 3.32581 49.4074 3.22712 46.9768C3.20797 46.5096 3.07785 47.0106 3.06208 46.7896C2.99502 45.8902 3.10286 45.0578 3.02986 44.2038C3.01232 43.996 2.88465 43.9862 2.86311 43.8164C2.67508 42.3721 2.96227 39.9928 3.01228 39.5841C3.20218 38.0179 3.03613 37.286 3.11091 36.0847C3.18568 34.8853 3.27916 36.6786 3.32453 35.2776C3.41839 32.3736 3.39777 28.6423 3.40363 25.6929C3.40519 24.5161 3.23476 25.319 3.23103 25.1506C3.1878 22.7172 3.36909 20.2564 3.02961 18.9071C3.90736 17.2199 2.94447 17.4397 3.12019 13.9614C3.1344 13.6874 3.54948 13.3389 3.61042 14.3908C3.6713 15.4426 3.54155 17.0377 3.63654 18.4971C3.65884 18.8427 4.04779 20.8225 4.07136 21.0926C4.2555 23.2086 3.63521 23.5084 3.60114 23.6204C3.23348 24.8898 3.65251 27.3092 3.68146 27.9462C3.81414 30.8608 3.7269 33.337 3.8216 35.7748C3.88281 37.3691 4.28912 37.5251 4.27668 38.7771C4.23557 42.9388 3.66877 44.3916 4.16022 48.3133C4.26504 49.1542 4.70913 48.3186 4.35993 51.3318C4.34881 51.4274 4.26183 52.0453 4.20448 52.8C4.14182 53.451 4.23675 54.236 4.49405 54.7455C4.55874 54.8745 4.68027 54.8322 4.74825 55.0019C5.22851 56.1163 5.58445 56.8969 6.58068 57.7965C7.58643 58.6832 9.08426 59.342 10.579 59.5111C10.7826 59.5364 10.9999 59.5643 11.2234 59.5877C12.1155 59.6675 13.0314 59.8221 13.4297 59.8678C14.8832 60.0379 16.4417 59.759 17.3423 59.965C18.2504 60.1719 16.4751 60.4863 18.8563 60.62C18.9446 60.2838 19.1472 59.9386 19.2889 59.6005C24.5076 59.6123 29.6422 59.721 34.8782 59.7062C35.5274 59.704 34.8635 59.5232 35.5594 59.5162C38.4953 59.4875 41.0598 59.6164 44.1046 59.5651C46.4614 59.5247 49.0458 59.3333 51.5102 59.285C53.0156 59.6698 56.6725 59.5392 59.3291 59.5744C60.2596 59.5865 60.1975 59.6893 60.8593 59.7228C63.356 59.8468 62.1861 59.5068 62.8704 59.4533C65.8071 59.2249 66.0585 59.9945 69.5207 59.9755C69.7041 59.9747 71.9462 59.5645 72.255 59.539C74.2172 59.3724 72.5798 59.6817 73.8078 59.712C76.0499 59.7674 77.608 59.8654 80.2385 59.7453C81.0055 59.7097 82.8456 59.454 84.3352 59.6517C84.5312 59.6776 84.4228 59.8132 84.5805 59.8212C87.4355 59.9535 87.5107 59.5275 89.1421 59.3832C90.7738 59.2389 93.294 59.533 93.8069 59.6178C95.1487 59.8371 92.7787 59.7115 92.7061 59.733C91.8525 59.9891 93.6905 59.945 95.095 59.9667C95.2982 60.3844 97.2624 60.3594 96.5509 59.9874C96.4699 59.9468 95.377 59.9858 95.095 59.9667C96.3277 59.5568 98.4863 59.5043 100.87 59.8873C101.986 60.0669 100.931 60.2762 104.321 60.1996C105.86 60.165 105.265 59.8774 106.623 59.799C109.725 59.62 113.756 59.8884 116.954 59.8461C118.114 59.8307 116.984 59.6733 117.777 59.6574C119.882 59.6146 121.738 59.7328 123.852 59.6723C124.044 59.6666 123.576 59.5017 124.233 59.4996C129.217 59.4805 133.557 59.5861 138.76 59.589C141.275 59.5903 145.77 59.4994 148.374 59.5177C152.888 59.5484 158.441 59.7881 162.298 59.7299C164.813 59.6926 164.261 59.5277 165.339 59.4154C167.418 59.1977 171.099 59.5877 171.595 59.6481C171.61 59.6501 169.446 59.6889 170.601 59.7736C171.272 59.9499 171.571 59.6488 171.595 59.6481C171.921 59.6871 176.244 59.7245 177.102 59.693C177.569 59.6758 177.308 59.5196 177.551 59.5136C183.332 59.3738 189.124 59.3341 194.987 59.4071C195.09 59.4103 194.935 59.585 195.178 59.5902C198.572 59.6679 200.746 59.4542 203.545 59.3273C206.344 59.2004 208.564 59.2429 210.221 59.5429C212.333 59.5051 215.363 59.6377 217.107 59.7182C218.851 59.7986 219.094 59.4585 219.247 59.4518C224.033 59.2366 226.799 59.4313 231.763 59.4616C234.124 59.4765 238.805 59.4272 241.361 59.39C243.381 59.3601 244.597 59.4398 246.458 59.3888C246.71 59.382 246.456 59.2306 246.533 59.2247C248.61 59.0436 247.611 59.4138 248.04 59.4799C249.595 59.7203 250.555 59.8483 253.215 59.7352C253.829 59.7093 255.616 59.1763 256.734 59.1452C258.188 59.1056 257.639 59.2967 259.162 59.2504C259.292 59.2466 259.265 59.1287 260.204 59.1339C264.566 59.1565 269.321 59.2251 273.853 59.2133C274.473 59.2121 273.679 59.0252 274.573 59.0204C278.771 58.9982 283.371 59.0052 287.461 59.0927C288.467 59.1148 287.836 59.2457 288.055 59.2846C289.396 59.5197 291.298 59.178 291.612 59.1715C299.099 59.0073 304.829 59.3165 312.46 59.1693C312.876 59.1607 316.073 58.7944 317.5 59.1085C317.597 59.1294 319.009 59.4508 320.256 59.2311C320.334 59.2173 319.455 59.0519 320.989 59.0687C322.524 59.0856 324.994 58.9751 327.104 59.1569C327.772 59.2141 329.35 59.5348 331.342 59.2792C331.472 59.2613 334.548 58.6834 335.646 59.0822C335.824 59.1478 335.637 59.5697 338.015 59.3534C338.469 59.3115 337.645 59.2174 338.842 59.1586C340.675 59.068 343.105 59.181 345.359 58.9931C345.753 58.9598 347.426 58.6734 348.768 58.8908C348.979 58.9248 348.579 59.0657 349.288 59.0814C352.659 59.1571 356.189 59.0628 359.612 59.1603C360.825 59.1945 360.205 59.4223 361.468 59.4833C362.733 59.5443 365.279 59.603 366.601 59.4989C367.924 59.3948 366.479 59.0319 368.461 59.0028C368.715 58.9991 368.969 58.9957 369.223 58.9925C372.52 59.0145 375.46 56.0978 375.431 52.8C375.472 48.6639 375.529 44.5287 375.544 40.3775C375.549 39.1016 375.419 40.1594 375.416 38.2792C375.407 31.347 375.285 19.3787 375.561 13.3635C375.57 13.156 375.58 12.9688 375.589 12.8C375.497 9.75203 376.191 14.1549 375.856 11.2162C375.563 9.66908 374.159 8.62031 373.923 8.41954C372.482 7.01971 370.854 6.4335 369.223 6.39392C367.832 6.37457 366.443 6.3576 364.911 6.38088C364.132 6.39278 364.896 6.5638 364.233 6.57204C361.969 6.6017 359.589 6.52536 357.425 6.53932C356.454 6.54598 356.633 6.6766 355.74 6.66652C353.603 6.6439 351.712 6.589 349.629 6.46657C349.439 6.45542 350.72 6.29293 349.138 6.28688C346.579 6.27757 343.402 6.15679 340.457 6.28151C339.584 6.31903 339.549 6.61756 337.671 6.4114C337.277 6.36834 337.78 6.00987 335.592 6.3196C335.224 6.37107 331.549 6.78884 329.746 6.51955C329.27 6.44867 328.056 6.15534 327.005 6.20144C326.863 6.20879 327.434 6.36914 326.563 6.38478C323.495 6.43712 320.279 6.42001 317.127 6.47023C316.285 6.48396 317.539 6.64989 316.284 6.66506C312.834 6.707 308.527 6.66475 305.153 6.61281C303.909 6.59335 304.769 6.45589 304.679 6.44094C303.223 6.19764 302.363 6.52604 301.88 6.54518C298.875 6.65984 296.588 6.50558 293.819 6.54641C293.054 6.55725 293.596 6.71384 293.444 6.7278C291.867 6.86422 293.042 6.58302 292.043 6.55202C289.246 6.46425 286.127 6.47684 283.298 6.49684C282.259 6.50442 283.426 6.68599 282.494 6.69069C276.974 6.72198 271.236 6.7046 265.849 6.60451C264.835 6.58533 265.473 6.44553 265.261 6.41359C263.804 6.19018 261.669 6.49492 261.178 6.52394C258.944 6.65649 258.076 6.53285 256.103 6.55593C246.465 6.67082 234.564 6.58894 225.467 6.53835C213.611 6.47324 204.412 6.34024 193.107 6.37477C192.388 6.37679 193.113 6.56278 192.493 6.56691C184.496 6.61175 176.623 6.53907 168.611 6.59279C167.953 6.59687 168.901 6.77319 167.845 6.78566C165.681 6.81248 162.938 6.8029 160.75 6.7466C159.682 6.71947 161.114 6.56818 160.04 6.54396C157.537 6.48724 154.855 6.47468 152.285 6.50295C151.192 6.51536 152.842 6.69569 151.42 6.69777C141.736 6.71566 132.226 6.74672 122.44 6.5132C121.769 6.49716 121.18 6.13066 119.754 6.20095C119.647 6.30266 119.652 6.42231 119.606 6.53102C105.508 6.58959 91.5553 6.46253 77.4187 6.44289C76.8226 6.4421 77.8527 6.63629 76.6988 6.63576C70.02 6.63289 63.5345 6.68669 56.7029 6.49367C56.0251 6.47479 56.3728 6.13317 54.3753 6.18483C54.023 6.19426 51.0145 6.23982 50.2367 6.31398C50.1311 6.32517 50.6799 6.48463 49.7105 6.48928C44.0768 6.51349 38.173 6.47709 32.5491 6.37966C31.6414 6.36363 32.608 6.19382 31.9615 6.18093C27.3757 6.09079 22.3877 6.21987 18.0057 6.06569C15.0726 5.96188 16.1585 5.66835 14.5999 5.37942C14.3795 5.33865 12.5632 5.33219 12.4693 5.16409C12.2281 4.74136 13.1079 4.27849 12.7469 3.82791C12.6706 3.73086 10.2382 3.83539 11.6783 3.60086C11.779 3.58516 13.5425 3.50732 13.9769 3.42776C14.2793 3.37276 13.7343 3.20179 14.3513 3.13138C14.9683 3.06103 15.6463 3.20434 16.6692 3.12161C17.6917 3.03786 17.2421 2.84337 19.2841 2.82034ZM224.958 60.0778C226.573 60.2411 226.811 59.6429 225.065 59.786C224.98 59.7936 224.875 60.0698 224.958 60.0778ZM29.6129 60.1722C31.7237 60.4361 33.168 60.0481 31.679 59.8444C30.1902 59.6408 28.9698 60.0923 29.6129 60.1722ZM8.01954 59.655C9.0485 60.2413 9.79062 60.1629 9.87502 60.0208C9.97134 59.8551 9.49638 59.6784 8.39042 59.3083C8.26521 59.2649 7.90281 59.5862 8.01954 59.655ZM21.828 5.29714C21.8057 5.2892 20.5001 5.28146 20.4689 5.28933C19.7737 5.47931 22.3844 5.49466 21.828 5.29714ZM3.4488 40.1491C3.33405 40.9192 3.46651 43.1365 3.6092 42.1796C3.72399 41.4093 3.59154 39.19 3.4488 40.1491ZM309.18 60.7162C309.206 60.7251 310.142 60.7331 310.123 60.6827C310.059 60.5205 308.757 60.5663 309.18 60.7162ZM8.37072 5.55488C5.8588 6.5168 4.50696 8.4005 4.01073 8.99589C3.75837 9.30419 3.66791 9.30079 3.83015 8.86497C4.00389 8.44468 4.4318 7.54227 5.61039 6.49968C6.04755 6.13712 5.60159 6.56387 5.25529 7.01323C4.90762 7.46399 4.64687 7.91207 5.11889 7.39813C6.89194 5.66341 8.48907 4.42757 11.1748 4.55974C11.4146 4.58565 10.7249 4.67208 9.99395 4.89914C9.25448 5.11407 8.5052 5.4992 8.36232 5.55925C8.36512 5.55779 8.36792 5.55633 8.37072 5.55488ZM225.888 60.7963C225.92 60.8042 227.216 60.8117 227.247 60.8038C227.949 60.6139 225.338 60.5987 225.888 60.7963ZM363.799 61.0861C363.871 61.1029 366.878 61.1187 366.976 61.1032C368.545 60.7926 362.465 60.7598 363.799 61.0861ZM138.622 61.234C137.208 61.4251 135.516 61.4476 134.389 61.2076C135.794 61.2204 137.209 61.2223 138.622 61.234Z" fill="#23073E"/>
</g>
<defs>
<filter id="filter0_d_665_4597" x="2.86102e-06" y="2.86102e-06" width="384.749" height="68.366" filterUnits="userSpaceOnUse" color-interpolation-filters="sRGB">
<feFlood flood-opacity="0" result="BackgroundImageFix"/>
<feColorMatrix in="SourceAlpha" type="matrix" values="0 0 0 0 0 0 0 0 0 0 0 0 0 0 0 0 0 0 127 0" result="hardAlpha"/>
<feOffset dx="2" dy="2"/>
<feGaussianBlur stdDeviation="2.4"/>
<feComposite in2="hardAlpha" operator="out"/>
<feColorMatrix type="matrix" values="0 0 0 0 0 0 0 0 0 0 0 0 0 0 0 0 0 0 0.05 0"/>
<feBlend mode="normal" in2="BackgroundImageFix" result="effect1_dropShadow_665_4597"/>
<feBlend mode="normal" in="SourceGraphic" in2="effect1_dropShadow_665_4597" result="shape"/>
</filter>
<clipPath id="clip0_665_4597">
<path d="M3.22339 12.8C3.22339 8.38172 6.80511 4.8 11.2234 4.8H369.223C373.642 4.8 377.223 8.38173 377.223 12.8V52.8C377.223 57.2183 373.642 60.8 369.223 60.8H11.2234C6.80511 60.8 3.22339 57.2183 3.22339 52.8V12.8Z" fill="white"/>
</clipPath>
</defs>
</svg>
