<svg width="353" height="69" viewBox="0 0 353 69" fill="none" xmlns="http://www.w3.org/2000/svg">
<g filter="url(#filter0_d_1255_7697)">
<g clip-path="url(#clip0_1255_7697)">
<rect width="171" height="56" transform="translate(3.22339 4.8)" fill="#FF9401"/>
<path d="M65.53 40.8V25.7219H67.7957C68.8048 25.7219 69.6088 25.8 70.2078 25.9563C70.8132 26.1125 71.3243 26.3762 71.741 26.7473C72.1641 27.1314 72.4994 27.6099 72.7468 28.1828C73.0007 28.7622 73.1277 29.3482 73.1277 29.9406C73.1277 31.0214 72.7143 31.9361 71.8875 32.6848C72.6882 32.9582 73.3197 33.4367 73.782 34.1203C74.2507 34.7974 74.4851 35.5852 74.4851 36.4836C74.4851 37.662 74.0684 38.6581 73.2351 39.4719C72.7338 39.9732 72.1707 40.3215 71.5457 40.5168C70.8621 40.7056 70.0059 40.8 68.9773 40.8H65.53ZM67.8054 32.1965H68.5183C69.3647 32.1965 69.9832 32.0109 70.3738 31.6398C70.7709 31.2622 70.9695 30.7089 70.9695 29.9797C70.9695 29.2701 70.7677 28.7329 70.364 28.3684C69.9604 27.9973 69.3744 27.8117 68.6062 27.8117H67.8054V32.1965ZM67.8054 38.6613H69.2117C70.2403 38.6613 70.9955 38.4595 71.4773 38.0559C71.9851 37.6197 72.239 37.0663 72.239 36.3957C72.239 35.7447 71.9949 35.1978 71.5066 34.7551C71.0313 34.3189 70.1817 34.1008 68.9578 34.1008H67.8054V38.6613ZM83.9578 31.2883H86.1648V40.8H83.9578V39.8039C83.0528 40.6503 82.0795 41.0734 81.0378 41.0734C79.7227 41.0734 78.6355 40.5982 77.7761 39.6477C76.9233 38.6776 76.4968 37.4667 76.4968 36.0148C76.4968 34.5891 76.9233 33.4009 77.7761 32.4504C78.629 31.4999 79.6967 31.0246 80.9792 31.0246C82.086 31.0246 83.0789 31.4803 83.9578 32.3918V31.2883ZM78.7429 36.0148C78.7429 36.9263 78.9871 37.6685 79.4753 38.2414C79.9766 38.8208 80.6082 39.1105 81.3699 39.1105C82.1837 39.1105 82.8412 38.8306 83.3425 38.2707C83.8438 37.6913 84.0945 36.9556 84.0945 36.0637C84.0945 35.1717 83.8438 34.4361 83.3425 33.8566C82.8412 33.2902 82.1902 33.007 81.3894 33.007C80.6342 33.007 80.0027 33.2935 79.4949 33.8664C78.9936 34.4458 78.7429 35.162 78.7429 36.0148ZM88.9382 31.2883H91.1355V32.1379C91.5391 31.7147 91.8972 31.425 92.2097 31.2688C92.5287 31.106 92.9063 31.0246 93.3425 31.0246C93.922 31.0246 94.5274 31.2134 95.1589 31.591L94.1531 33.6027C93.7364 33.3033 93.3295 33.1535 92.9324 33.1535C91.7345 33.1535 91.1355 34.0585 91.1355 35.8684V40.8H88.9382V31.2883ZM104.944 36.5617H98.1277C98.1863 37.343 98.4402 37.9647 98.8894 38.427C99.3386 38.8827 99.9148 39.1105 100.618 39.1105C101.165 39.1105 101.617 38.9803 101.975 38.7199C102.327 38.4595 102.727 37.9777 103.177 37.2746L105.032 38.3098C104.746 38.798 104.443 39.218 104.124 39.5695C103.805 39.9146 103.463 40.201 103.098 40.4289C102.734 40.6503 102.34 40.813 101.917 40.9172C101.494 41.0214 101.035 41.0734 100.54 41.0734C99.1205 41.0734 97.9812 40.6177 97.1218 39.7063C96.2625 38.7883 95.8328 37.5708 95.8328 36.0539C95.8328 34.55 96.2494 33.3326 97.0828 32.4016C97.9226 31.4836 99.0359 31.0246 100.423 31.0246C101.822 31.0246 102.929 31.4706 103.743 32.3625C104.55 33.2479 104.954 34.4751 104.954 36.0441L104.944 36.5617ZM102.688 34.7648C102.382 33.593 101.643 33.007 100.471 33.007C100.205 33.007 99.9539 33.0494 99.7195 33.134C99.4851 33.2121 99.2703 33.3293 99.075 33.4855C98.8861 33.6353 98.7234 33.8176 98.5867 34.0324C98.45 34.2473 98.3458 34.4914 98.2742 34.7648H102.688ZM107.356 31.2883H109.553V32.1379C109.957 31.7147 110.315 31.425 110.628 31.2688C110.947 31.106 111.324 31.0246 111.76 31.0246C112.34 31.0246 112.945 31.2134 113.577 31.591L112.571 33.6027C112.154 33.3033 111.747 33.1535 111.35 33.1535C110.152 33.1535 109.553 34.0585 109.553 35.8684V40.8H107.356V31.2883Z" fill="white"/>
<rect width="171" height="56" transform="translate(174.223 4.8)" fill="white"/>
<path d="M241.35 27.8605H235.305V31.4836H241.175V33.6223H235.305V38.6613H241.35V40.8H233.03V25.7219H241.35V27.8605ZM245.1 31.2883L247.561 36.6301L250.012 31.2883H252.483L247.542 41.4543L242.639 31.2883H245.1ZM262.307 36.5617H255.491C255.55 37.343 255.803 37.9647 256.253 38.427C256.702 38.8827 257.278 39.1105 257.981 39.1105C258.528 39.1105 258.981 38.9803 259.339 38.7199C259.69 38.4595 260.091 37.9777 260.54 37.2746L262.395 38.3098C262.109 38.798 261.806 39.218 261.487 39.5695C261.168 39.9146 260.826 40.201 260.462 40.4289C260.097 40.6503 259.703 40.813 259.28 40.9172C258.857 41.0214 258.398 41.0734 257.903 41.0734C256.484 41.0734 255.344 40.6177 254.485 39.7063C253.626 38.7883 253.196 37.5708 253.196 36.0539C253.196 34.55 253.613 33.3326 254.446 32.4016C255.286 31.4836 256.399 31.0246 257.786 31.0246C259.186 31.0246 260.292 31.4706 261.106 32.3625C261.913 33.2479 262.317 34.4751 262.317 36.0441L262.307 36.5617ZM260.052 34.7648C259.746 33.593 259.007 33.007 257.835 33.007C257.568 33.007 257.317 33.0494 257.083 33.134C256.848 33.2121 256.634 33.3293 256.438 33.4855C256.249 33.6353 256.087 33.8176 255.95 34.0324C255.813 34.2473 255.709 34.4914 255.637 34.7648H260.052ZM264.719 31.2883H266.927V32.1672C267.695 31.4055 268.561 31.0246 269.524 31.0246C270.631 31.0246 271.494 31.3729 272.112 32.0695C272.646 32.662 272.913 33.6288 272.913 34.9699V40.8H270.706V35.4875C270.706 34.55 270.576 33.9022 270.315 33.5441C270.061 33.1796 269.599 32.9973 268.928 32.9973C268.199 32.9973 267.682 33.2382 267.376 33.7199C267.076 34.1952 266.927 35.0253 266.927 36.2102V40.8H264.719V31.2883ZM277.962 33.3391V40.8H275.764V33.3391H274.827V31.2883H275.764V27.802H277.962V31.2883H279.671V33.3391H277.962ZM286.692 32.9094L284.876 33.8762C284.589 33.2902 284.234 32.9973 283.811 32.9973C283.609 32.9973 283.437 33.0656 283.294 33.2023C283.15 33.3326 283.079 33.5018 283.079 33.7102C283.079 34.0747 283.502 34.4361 284.348 34.7941C285.514 35.2954 286.298 35.7577 286.702 36.1809C287.106 36.604 287.307 37.1737 287.307 37.8898C287.307 38.8078 286.969 39.576 286.292 40.1945C285.634 40.7805 284.84 41.0734 283.909 41.0734C282.314 41.0734 281.184 40.2954 280.52 38.7395L282.395 37.8703C282.656 38.326 282.854 38.6158 282.991 38.7395C283.258 38.9869 283.577 39.1105 283.948 39.1105C284.69 39.1105 285.061 38.772 285.061 38.0949C285.061 37.7043 284.775 37.3397 284.202 37.0012C283.981 36.8905 283.759 36.7831 283.538 36.6789C283.316 36.5747 283.092 36.4673 282.864 36.3566C282.226 36.0441 281.777 35.7316 281.516 35.4191C281.184 35.022 281.018 34.5109 281.018 33.8859C281.018 33.0591 281.302 32.3755 281.868 31.8352C282.447 31.2948 283.15 31.0246 283.977 31.0246C285.195 31.0246 286.1 31.6529 286.692 32.9094Z" fill="#23073E"/>
</g>
<path d="M18.6745 2.82034C23.0581 2.76824 28.8043 2.82395 33.1714 2.90042C34.54 2.92414 33.847 3.03015 34.7918 3.0513C36.6396 3.09252 38.361 3.04052 40.187 3.08963C40.7922 3.10642 40.0389 3.27435 40.6735 3.28811C44.1507 3.36233 47.4402 3.31956 50.9627 3.35525C68.3132 3.53137 85.3684 3.59441 102.931 3.67093C108.722 3.69601 115.762 3.84841 121.743 3.78177C122.441 3.77383 122.025 3.62643 122.158 3.61429C124.242 3.4283 123.549 3.72587 124.909 3.76541C130.309 3.92151 136.313 3.93509 141.51 3.8782C143.721 3.85357 141.504 3.56079 143.73 3.72512C143.885 3.73623 143.324 3.89276 143.93 3.90945C145.305 3.947 147.913 3.91902 148.979 3.93142C151.033 3.95612 151.373 3.95454 153.315 3.95633C155.97 3.96013 159.129 4.03793 161.978 4.00247C162.586 3.99443 161.781 3.83397 162.751 3.80667C163.722 3.77941 166.29 3.79301 167.155 3.83084C168.021 3.86868 167.653 3.9948 167.806 4.02371C169.067 4.2677 172.037 3.92977 172.419 3.92141C179.388 3.77902 185.364 3.97152 191.906 3.97097C196.872 3.97015 202.182 3.9066 206.907 3.91531C212.536 3.92631 217.307 4.01326 222.776 3.99832C223.354 3.99692 222.677 3.80826 223.382 3.80618C230.872 3.78423 238.309 3.80479 245.766 3.93216C246.514 3.94509 245.55 4.11074 246.297 4.13357C250.872 4.2697 258.11 4.59672 260.827 3.87552C263.926 3.90368 267.687 3.93277 270.46 4.07815C272.247 4.17172 270.511 4.35217 272.707 4.27517C273.202 4.25802 272.558 4.09998 273.301 4.08621C276.427 4.02835 279.843 4.07972 282.936 3.99807C283.565 3.98109 283.394 3.83949 283.572 3.81399C285.07 3.60749 287.564 3.94885 288.108 3.97366C292.248 4.15863 295.271 4.08584 299.128 4.09036C300.023 4.09149 298.965 3.90128 299.826 3.89553C304.293 3.86827 308.92 3.88462 313.294 3.96902C314.267 3.98825 313.372 4.15027 313.837 4.16775C315.887 4.24285 316.341 3.93684 318.307 4.00296C318.721 4.0165 318.488 4.1552 318.564 4.17044C319.747 4.40956 320.775 4.07074 321.079 4.06326C324.929 3.96105 327.39 4.31476 331.109 4.26467C331.554 4.25832 330.55 4.08283 331.801 4.07571C333.59 4.06531 335.401 4.05936 337.223 4.05783C341.867 3.9276 346.079 8.19059 345.907 12.8C345.882 15.2988 345.849 17.7752 345.808 20.2028C345.786 21.4851 345.654 20.5698 345.638 20.6504C345.384 21.9656 345.724 22.8166 345.737 23.2347C345.829 26.5333 345.544 29.6146 345.949 31.8558C345.879 38.8527 345.901 45.8336 345.894 52.8C346.005 57.4283 341.803 61.5701 337.223 61.4031C334.482 61.3701 331.742 61.3214 329.005 61.2496C328.828 61.2454 329.144 61.0779 328.793 61.0702C324.561 60.9761 325.374 61.2365 322.574 61.5551C321.868 61.635 319.723 61.2505 319.533 61.2223C318.841 61.1184 319.559 60.8691 319.327 60.849C317.41 60.691 317.723 61.5155 315.137 61.5158C315.056 61.5144 315.396 61.3626 315.179 61.3475C314.505 61.3002 313.836 61.3605 313.177 61.3082C311.667 61.1874 311.129 60.7868 308.823 61.0199C308.531 61.0502 308.977 61.5178 306.668 61.4957C305.748 61.4865 301.675 61.4945 300.533 61.4642C299.393 61.434 300.176 61.2833 300.094 61.2767C297.022 61.0775 298.187 60.9949 296.648 60.6998C295.109 60.4059 295.535 61.1069 294.908 61.1852C294.279 61.2632 292.027 61.0988 291.473 61.0416C290.92 60.9844 291.61 60.8887 291.118 60.8563C287.856 60.6449 289.686 61.2043 288.611 61.3156C286.077 61.579 284.104 61.0591 281.784 61.0082C281.156 60.9944 281.668 61.1128 281.109 61.1239C278.896 61.1662 277.564 61.004 275.046 61.1527C274.634 61.177 272.598 61.4895 271.28 61.2601C271.093 61.2271 271.623 61.0975 270.68 61.0685C269.271 61.0249 266.731 60.9966 265.216 61.0399C264.097 61.072 265.38 61.2854 263.972 61.2191C263.346 61.1895 264.506 61.0646 263.33 61.0194C262.161 60.9742 259.171 60.9797 258.033 60.984C256.898 60.9884 257.519 61.1504 257.427 61.1613C256.872 61.2238 254.693 61.3018 254.5 61.3016C244.785 61.3214 235.827 61.0485 226.369 61.1388C225.626 61.1457 226.121 61.3164 226.008 61.3192C223.467 61.3908 225.47 60.9368 223.695 60.7848C223.951 61.1313 222.904 61.0686 221.114 61.1066C220.251 61.1252 220.721 61.2593 220.642 61.2731C219.363 61.4769 218.472 61.2136 218.243 61.1598C217.396 60.9617 216.474 61.1958 215.897 61.0634C215.321 60.9319 216.647 60.7371 214.931 60.7396C214.449 60.8637 215.724 61.1878 214.42 61.2404C209.503 61.4391 200.323 61.1847 196.369 61.1583C192.423 61.1319 191.149 61.1548 188.849 61.11C184.696 61.0289 186.218 61.2694 183.639 61.3795C181.053 61.4896 182.31 60.8978 181.938 60.7706C181.573 60.6435 181.175 60.7744 180.721 60.7045C180.268 60.6346 181.248 60.5481 180.183 60.5219C179.119 60.4956 176.207 60.7219 175.83 60.8549C175.032 61.1367 176.344 61.4324 173.526 61.3285C173.364 61.3223 173.89 61.1667 173.269 61.151C168.341 61.0312 163.22 61.0238 158.298 60.9179C157.621 60.903 158.226 60.7299 157.832 60.7194C153.73 60.6087 155.196 60.9005 152.947 61.2247C153.452 60.7933 152.209 60.5293 149.095 60.5267C147.223 60.5251 147.545 60.7135 146.335 60.8463C145.971 60.8864 144.647 60.757 144.407 60.8456C143.615 61.1353 144.863 61.4596 141.653 61.3304C141.512 61.3243 141.96 61.1657 141.473 61.1561C138.327 61.0933 137.951 61.3963 134.55 61.433C131.885 61.4618 127.144 61.277 124.109 61.247C124.173 60.7619 121.306 60.8729 120.143 61.2074C118.173 61.1937 116.046 61.2126 114.142 61.1664C113.487 61.1506 113.917 61.0102 113.835 60.995C112.568 60.7569 111.711 61.0823 111.286 61.0951C106.678 61.2191 102.924 60.9725 98.526 61.2135C98.37 61.2222 98.1171 61.5592 96.9415 61.3131C96.8654 61.2962 98.3179 61.1428 96.2492 61.131C94.1801 61.1191 90.2797 60.9385 87.4072 61.0946C86.7121 61.1322 84.9539 61.4057 83.5428 61.192C83.3548 61.163 83.5605 61.0664 83.2891 61.0126C82.4118 60.8412 81.9329 61.1818 80.9018 60.8925C79.8707 60.6031 77.726 60.3864 74.8291 60.5861C74.7369 60.5919 74.0511 60.8618 73.1401 60.8576C71.6858 60.8505 69.6214 60.7943 68.103 60.796C67.3758 60.797 67.8412 60.9646 67.715 60.9677C62.8265 61.0616 59.3473 60.9122 54.1104 60.8473C53.1504 60.8351 50.3916 61.0637 48.5331 60.8829C46.4924 60.6851 48.5894 59.8622 43.8988 60.0582C42.0068 60.1367 39.6116 61.1807 36.2117 60.6398C29.6177 60.7738 23.5197 60.497 16.9074 60.6884C16.61 60.6968 15.6697 60.9882 14.9707 60.9843C13.9329 60.9778 13.3633 60.8416 12.6222 60.8326C12.1504 60.8264 11.6845 60.8238 11.2234 60.8238C8.6466 60.8321 6.1822 59.648 4.67707 57.5543C4.05061 56.5926 4.34265 56.8748 3.81303 55.6427C3.46511 54.6838 3.20211 53.9347 3.17691 52.8C3.17354 52.452 3.17934 52.0701 3.20051 51.6362C3.26877 50.2496 3.64778 48.8632 3.69196 47.0227C3.31811 46.9526 3.32581 45.6885 3.22712 43.4418C3.20797 43.0099 3.07785 43.473 3.06208 43.2687C2.99502 42.4373 3.10286 41.6679 3.02986 40.8784C3.01232 40.6864 2.88465 40.6773 2.86311 40.5203C2.67508 39.1853 2.96227 36.9859 3.01228 36.6082C3.20218 35.1604 3.03613 34.4838 3.11091 33.3734C3.18568 32.2647 3.27916 33.9224 3.32453 32.6273C3.41839 29.9429 3.39777 26.4938 3.40363 23.7675C3.40519 22.6797 3.23476 23.4218 3.23103 23.2662C3.1878 21.0168 3.36909 18.7421 3.02961 17.4949C3.90736 15.9353 2.94447 16.1384 3.12019 12.9232C3.1225 12.882 3.13542 12.839 3.15569 12.8C3.22826 12.6587 3.39387 12.5805 3.50423 12.8C3.55474 12.9017 3.59457 13.0671 3.61042 13.3201C3.6713 14.2924 3.54155 15.7668 3.63654 17.1159C3.65884 17.4354 4.04779 19.2654 4.07136 19.5151C4.2555 21.471 3.63521 21.7482 3.60114 21.8517C3.23348 23.0251 3.65251 25.2615 3.68146 25.8504C3.81414 28.5446 3.7269 30.8335 3.8216 33.0869C3.88281 34.5607 4.28912 34.7048 4.27668 35.8621C4.23557 39.7092 3.66877 41.052 4.16022 44.6772C4.26504 45.4545 4.70913 44.6821 4.35993 47.4674C4.33792 47.6424 4.01846 49.7103 4.22053 50.9051C4.246 51.0551 4.37542 51.0504 4.3863 51.2482C4.41667 51.821 4.41469 52.3113 4.40662 52.8C4.39836 53.3488 4.42972 53.9044 4.63569 54.5744C4.99193 55.757 5.82085 57.015 6.86055 57.9395C7.46268 58.5142 8.34123 59.2221 8.72768 59.4148C9.52227 59.8573 10.504 59.8778 11.2234 59.8868C11.4977 59.8922 11.7449 59.9133 11.9537 59.965C12.7932 60.1719 11.1521 60.4863 13.3533 60.62C13.4348 60.2838 13.6221 59.9386 13.7532 59.6005C18.5771 59.6123 23.3234 59.721 28.1635 59.7062C28.7635 59.704 28.1499 59.5232 28.7931 59.5162C31.5071 59.4875 33.8776 59.6164 36.6921 59.5651C38.8707 59.5247 41.2596 59.3333 43.5377 59.285C44.9291 59.6698 48.3095 59.5392 50.7652 59.5744C51.6254 59.5865 51.5679 59.6893 52.1797 59.7228C54.4876 59.8468 53.4061 59.5068 54.0388 59.4533C56.7533 59.2249 56.9857 59.9945 60.1861 59.9755C60.3556 59.9747 62.4282 59.5645 62.7136 59.539C64.5274 59.3724 63.0138 59.6817 64.149 59.712C66.2215 59.7674 67.6617 59.8654 70.0934 59.7453C70.8023 59.7097 72.5033 59.454 73.8802 59.6517C74.0614 59.6776 73.9612 59.8132 74.107 59.8212C76.7461 59.9535 76.8155 59.5275 78.3236 59.3832C79.8319 59.2389 82.1615 59.533 82.6356 59.6178C83.8759 59.8371 81.6852 59.7115 81.618 59.733C80.829 59.9891 82.528 59.945 83.8263 59.9667C84.0142 60.3844 85.8297 60.3594 85.1721 59.9874C85.0973 59.9468 84.0869 59.9858 83.8263 59.9667C84.9658 59.5568 86.9612 59.5043 89.1648 59.8873C90.1964 60.0669 89.2212 60.2762 92.3549 60.1996C93.777 60.165 93.2275 59.8774 94.4826 59.799C97.3498 59.62 101.076 59.8884 104.032 59.8461C105.105 59.8307 104.06 59.6733 104.793 59.6574C106.739 59.6146 108.455 59.7328 110.409 59.6723C110.586 59.6666 110.153 59.5017 110.761 59.4996C115.368 59.4805 119.379 59.5861 124.189 59.589C126.514 59.5903 130.669 59.4994 133.076 59.5177C137.249 59.5484 142.382 59.7881 145.947 59.7299C148.272 59.6926 147.762 59.5277 148.758 59.4154C150.68 59.1977 154.083 59.5877 154.541 59.6481C154.555 59.6501 152.554 59.6889 153.622 59.7736C154.242 59.9499 154.518 59.6488 154.541 59.6481C154.842 59.6871 158.838 59.7245 159.632 59.693C160.063 59.6758 159.822 59.5196 160.047 59.5136C165.391 59.3738 170.744 59.3341 176.164 59.4071C176.259 59.4103 176.116 59.585 176.34 59.5902C179.478 59.6679 181.487 59.4542 184.075 59.3273C186.662 59.2004 188.714 59.2429 190.246 59.5429C192.198 59.5051 194.999 59.6377 196.611 59.7182C198.223 59.7986 198.448 59.4585 198.59 59.4518C203.013 59.2366 205.57 59.4313 210.159 59.4616C212.341 59.4765 216.669 59.4272 219.031 59.39C220.898 59.3601 222.022 59.4398 223.743 59.3888C223.975 59.382 223.74 59.2306 223.811 59.2247C225.731 59.0436 224.809 59.4138 225.205 59.4799C226.642 59.7203 227.53 59.8483 229.988 59.7352C230.556 59.7093 232.207 59.1763 233.241 59.1452C234.585 59.1056 234.078 59.2967 235.485 59.2504C235.606 59.2466 235.581 59.1287 236.449 59.1339C240.481 59.1565 244.876 59.2251 249.066 59.2133C249.638 59.2121 248.904 59.0252 249.731 59.0204C253.611 58.9982 257.864 59.0052 261.644 59.0927C262.574 59.1148 261.991 59.2457 262.193 59.2846C263.433 59.5197 265.191 59.178 265.482 59.1715C272.402 59.0073 277.699 59.3165 284.753 59.1693C285.137 59.1607 288.093 58.7944 289.411 59.1085C289.501 59.1294 290.806 59.4508 291.96 59.2311C292.031 59.2173 291.218 59.0519 292.637 59.0687C294.056 59.0856 296.339 58.9751 298.289 59.1569C298.906 59.2141 300.366 59.5348 302.207 59.2792C302.327 59.2613 305.17 58.6834 306.185 59.0822C306.349 59.1478 306.177 59.5697 308.375 59.3534C308.795 59.3115 308.033 59.2174 309.139 59.1586C310.834 59.068 313.08 59.181 315.164 58.9931C315.528 58.9598 317.075 58.6734 318.315 58.8908C318.51 58.9248 318.141 59.0657 318.796 59.0814C321.912 59.1571 325.175 59.0628 328.339 59.1603C329.46 59.1945 328.887 59.4223 330.055 59.4833C331.223 59.5443 333.577 59.603 334.8 59.4989C336.022 59.3948 334.687 59.0319 336.519 59.0028C336.754 58.9991 336.988 58.9957 337.223 58.9925C340.518 59.0099 343.462 56.1048 343.441 52.8C343.481 49.2935 343.53 45.7866 343.544 42.2674C343.549 41.088 343.419 42.0657 343.416 40.3277C343.407 33.9198 343.285 22.8566 343.561 17.2963C343.782 12.8412 343.95 18.4477 344.04 15.0433C344.06 14.273 343.978 13.4732 343.884 12.8C343.777 12.159 343.564 11.7057 343.525 11.5424C342.714 8.5864 340.748 6.77534 337.978 6.42464C337.403 6.38309 337.949 6.59771 337.469 6.57676C337.388 6.57511 337.306 6.57473 337.223 6.5757C335.225 6.59432 333.144 6.52606 331.243 6.53932C330.346 6.54598 330.511 6.6766 329.685 6.66652C327.71 6.6439 325.963 6.589 324.036 6.46657C323.861 6.45542 325.045 6.29293 323.583 6.28688C321.217 6.27757 318.28 6.15679 315.559 6.28151C314.751 6.31903 314.719 6.61756 312.983 6.4114C312.619 6.36834 313.084 6.00987 311.062 6.3196C310.721 6.37107 307.324 6.78884 305.657 6.51955C305.218 6.44867 304.095 6.15534 303.124 6.20144C302.992 6.20879 303.52 6.36914 302.715 6.38478C299.879 6.43712 296.906 6.42001 293.992 6.47023C293.214 6.48396 294.373 6.64989 293.214 6.66506C290.024 6.707 286.043 6.66475 282.924 6.61281C281.775 6.59335 282.569 6.45589 282.486 6.44094C281.14 6.19764 280.345 6.52604 279.898 6.54518C277.121 6.65984 275.007 6.50558 272.447 6.54641C271.741 6.55725 272.242 6.71384 272.101 6.7278C270.643 6.86422 271.729 6.58302 270.806 6.55202C268.22 6.46425 265.337 6.47684 262.722 6.49684C261.761 6.50442 262.841 6.68599 261.979 6.69069C256.876 6.72198 251.572 6.7046 246.593 6.60451C245.655 6.58533 246.245 6.44553 246.05 6.41359C244.703 6.19018 242.729 6.49492 242.275 6.52394C240.21 6.65649 239.407 6.53285 237.584 6.55593C228.674 6.67082 217.674 6.58894 209.264 6.53835C198.306 6.47324 189.802 6.34024 179.351 6.37477C178.687 6.37679 179.357 6.56278 178.784 6.56691C171.392 6.61175 164.115 6.53907 156.708 6.59279C156.1 6.59687 156.976 6.77319 156.001 6.78566C154 6.81248 151.465 6.8029 149.442 6.7466C148.455 6.71947 149.778 6.56818 148.785 6.54396C146.472 6.48724 143.993 6.47468 141.617 6.50295C140.606 6.51536 142.132 6.69569 140.818 6.69777C131.866 6.71566 123.075 6.74672 114.029 6.5132C113.409 6.49716 112.865 6.13066 111.546 6.20095C111.447 6.30266 111.452 6.42231 111.409 6.53102C98.3781 6.58959 85.4801 6.46253 72.4126 6.44289C71.8616 6.4421 72.8138 6.63629 71.7471 6.63576C65.5734 6.63289 59.5784 6.68669 53.2635 6.49367C52.6369 6.47479 52.9584 6.13317 51.1119 6.18483C50.7862 6.19426 48.0053 6.23982 47.2863 6.31398C47.1886 6.32517 47.696 6.48463 46.7999 6.48928C41.5922 6.51349 36.1349 6.47709 30.9363 6.37966C30.0973 6.36363 30.9908 6.19382 30.3932 6.18093C26.1542 6.09079 21.5434 6.21987 17.4928 6.06569C14.7815 5.96188 15.7853 5.66835 14.3446 5.37942C14.1408 5.33865 12.4619 5.33219 12.3751 5.16409C12.1522 4.74136 12.9654 4.27849 12.6317 3.82791C12.5612 3.73086 10.3127 3.83539 11.6439 3.60086C11.7369 3.58516 13.3671 3.50732 13.7686 3.42776C14.0482 3.37276 13.5444 3.20179 14.1148 3.13138C14.6851 3.06103 15.3118 3.20434 16.2574 3.12161C17.2025 3.03786 16.787 2.84337 18.6745 2.82034ZM203.868 60.0778C205.361 60.2411 205.581 59.6429 203.967 59.786C203.889 59.7936 203.791 60.0698 203.868 60.0778ZM23.2964 60.1722C25.2475 60.4361 26.5826 60.0481 25.2062 59.8444C23.83 59.6408 22.702 60.0923 23.2964 60.1722ZM4.77656 56.7601C5.26702 57.7397 5.87726 58.0614 6.02609 57.989C6.19404 57.9051 5.9389 57.5084 5.26917 56.6621C5.19411 56.5653 4.72184 56.647 4.77656 56.7601ZM21.026 5.29714C21.0054 5.2892 19.7985 5.28146 19.7697 5.28933C19.1271 5.47931 21.5403 5.49466 21.026 5.29714ZM3.4488 37.1304C3.33405 37.8422 3.46651 39.8919 3.6092 39.0074C3.72399 38.2953 3.59154 36.2438 3.4488 37.1304ZM281.721 60.7162C281.745 60.7251 282.61 60.7331 282.592 60.6827C282.534 60.5205 281.33 60.5663 281.721 60.7162ZM8.5774 5.47683C6.2368 6.29543 4.86518 7.91117 4.34745 8.41762C3.8951 9.01398 3.75049 8.11033 5.96525 6.20034C6.38691 5.88749 5.95782 6.26396 5.61641 6.66262C5.27359 7.06256 5.00874 7.46249 5.47698 7.01879C7.21955 5.52557 8.69494 4.41388 11.1785 4.55971C11.4001 4.585 10.763 4.67556 10.086 4.88548C9.40287 5.0847 8.70252 5.42963 8.56956 5.48071C8.57218 5.47941 8.57479 5.47812 8.5774 5.47683ZM204.728 60.7963C204.758 60.8042 205.955 60.8117 205.984 60.8038C206.633 60.6139 204.22 60.5987 204.728 60.7963ZM332.209 61.0861C332.276 61.1029 335.055 61.1187 335.146 61.1032C336.596 60.7926 330.976 60.7598 332.209 61.0861ZM124.061 61.234C122.754 61.4251 121.191 61.4476 120.149 61.2076C121.448 61.2204 122.755 61.2223 124.061 61.234Z" fill="#23073E"/>
</g>
<defs>
<filter id="filter0_d_1255_7697" x="-1.23978e-05" y="2.86102e-06" width="352.749" height="68.366" filterUnits="userSpaceOnUse" color-interpolation-filters="sRGB">
<feFlood flood-opacity="0" result="BackgroundImageFix"/>
<feColorMatrix in="SourceAlpha" type="matrix" values="0 0 0 0 0 0 0 0 0 0 0 0 0 0 0 0 0 0 127 0" result="hardAlpha"/>
<feOffset dx="2" dy="2"/>
<feGaussianBlur stdDeviation="2.4"/>
<feComposite in2="hardAlpha" operator="out"/>
<feColorMatrix type="matrix" values="0 0 0 0 0 0 0 0 0 0 0 0 0 0 0 0 0 0 0.05 0"/>
<feBlend mode="normal" in2="BackgroundImageFix" result="effect1_dropShadow_1255_7697"/>
<feBlend mode="normal" in="SourceGraphic" in2="effect1_dropShadow_1255_7697" result="shape"/>
</filter>
<clipPath id="clip0_1255_7697">
<path d="M3.22339 12.8C3.22339 8.38172 6.80511 4.8 11.2234 4.8H337.223C341.642 4.8 345.223 8.38173 345.223 12.8V52.8C345.223 57.2183 341.642 60.8 337.223 60.8H11.2234C6.80512 60.8 3.22339 57.2183 3.22339 52.8V12.8Z" fill="white"/>
</clipPath>
</defs>
</svg>
